DINAH VAA DEVLAT BOLD.ufo
<glyph name="quotedbl" format="1">
  <advance width="266"/>
  <unicode hex="0022"/>
  <outline>
    <contour>
      <point x="120" y="654" type="line"/>
      <point x="124" y="585" type="line" smooth="yes"/>
      <point x="126" y="543"/>
      <point x="129" y="503"/>
      <point x="129" y="476" type="curve" smooth="yes"/>
      <point x="129" y="442"/>
      <point x="114" y="422"/>
      <point x="85" y="422" type="curve"/>
      <point x="31" y="465" type="line"/>
      <point x="28" y="468"/>
      <point x="28" y="473"/>
      <point x="28" y="479" type="curve" smooth="yes"/>
      <point x="28" y="489"/>
      <point x="30" y="502"/>
      <point x="30" y="508" type="curve" smooth="yes"/>
      <point x="30" y="581" type="line" smooth="yes"/>
      <point x="27" y="611"/>
      <point x="26" y="646"/>
      <point x="24" y="654" type="curve"/>
    </contour>
    <contour>
      <point x="226" y="654" type="line"/>
      <point x="231" y="579"/>
      <point x="235" y="517"/>
      <point x="235" y="476" type="curve" smooth="yes"/>
      <point x="235" y="442"/>
      <point x="223" y="422"/>
      <point x="192" y="422" type="curve"/>
      <point x="137" y="465" type="line"/>
      <point x="137" y="508" type="line" smooth="yes"/>
      <point x="137" y="554"/>
      <point x="135" y="647"/>
      <point x="131" y="654" type="curve"/>
    </contour>
  </outline>
</glyph>
<glyph name="dollar" format="1">
  <advance width="657"/>
  <unicode hex="0024"/>
  <outline>
    <contour>
      <point x="273" y="-33" type="line"/>
      <point x="273" y="-5" type="line"/>
      <point x="196" y="6"/>
      <point x="82" y="82"/>
      <point x="82" y="86" type="curve" smooth="yes"/>
      <point x="82" y="95" type="line" smooth="yes"/>
      <point x="82" y="155"/>
      <point x="97" y="209"/>
      <point x="125" y="262" type="curve"/>
      <point x="200" y="235" type="line"/>
      <point x="197" y="224"/>
      <point x="196" y="212"/>
      <point x="196" y="195" type="curve" smooth="yes"/>
      <point x="196" y="121"/>
      <point x="238" y="97"/>
      <point x="276" y="90" type="curve"/>
      <point x="276" y="304" type="line"/>
      <point x="225" y="336" type="line"/>
      <point x="165" y="367"/>
      <point x="115" y="394"/>
      <point x="114" y="416" type="curve"/>
      <point x="124" y="464"/>
      <point x="210" y="594"/>
      <point x="271" y="647" type="curve"/>
      <point x="271" y="665"/>
      <point x="267" y="681"/>
      <point x="267" y="685" type="curve" smooth="yes"/>
      <point x="267" y="686"/>
      <point x="267" y="686"/>
      <point x="316" y="713" type="curve" smooth="yes"/>
      <point x="342" y="713"/>
      <point x="354" y="695"/>
      <point x="358" y="664" type="curve"/>
      <point x="406" y="653"/>
      <point x="513" y="600"/>
      <point x="513" y="593" type="curve" smooth="yes"/>
      <point x="513" y="553" type="line" smooth="yes"/>
      <point x="513" y="518"/>
      <point x="503" y="466"/>
      <point x="481" y="411" type="curve"/>
      <point x="412" y="436" type="line"/>
      <point x="413" y="438"/>
      <point x="414" y="449"/>
      <point x="415" y="461" type="curve" smooth="yes"/>
      <point x="415" y="467" type="line" smooth="yes"/>
      <point x="415" y="504"/>
      <point x="390" y="540"/>
      <point x="364" y="561" type="curve"/>
      <point x="366" y="514"/>
      <point x="366" y="460"/>
      <point x="366" y="401" type="curve"/>
      <point x="453" y="342"/>
      <point x="567" y="263"/>
      <point x="567" y="229" type="curve"/>
      <point x="555" y="179"/>
      <point x="440" y="52"/>
      <point x="367" y="7" type="curve"/>
      <point x="367" y="-41" type="line"/>
    </contour>
    <contour>
      <point x="417" y="190" type="curve"/>
      <point x="406" y="216"/>
      <point x="389" y="236"/>
      <point x="367" y="254" type="curve"/>
      <point x="367" y="102" type="line"/>
      <point x="406" y="126"/>
      <point x="415" y="176"/>
    </contour>
    <contour>
      <point x="233" y="475" type="curve"/>
      <point x="233" y="475"/>
      <point x="238" y="473"/>
      <point x="276" y="450" type="curve"/>
      <point x="276" y="538" type="line" smooth="yes"/>
      <point x="276" y="542"/>
      <point x="276" y="542"/>
      <point x="276" y="542" type="curve"/>
      <point x="276" y="551" type="line"/>
      <point x="262" y="532"/>
      <point x="248" y="502"/>
    </contour>
  </outline>
</glyph>
<glyph name="percent" format="1">
  <advance width="715"/>
  <unicode hex="0025"/>
  <outline>
    <contour>
      <point x="162" y="353" type="curve" smooth="yes"/>
      <point x="24" y="353"/>
      <point x="14" y="435"/>
      <point x="14" y="516" type="curve" smooth="yes"/>
      <point x="14" y="554"/>
      <point x="137" y="657"/>
      <point x="190" y="657" type="curve" smooth="yes"/>
      <point x="305" y="657"/>
      <point x="340" y="599"/>
      <point x="340" y="532" type="curve" smooth="yes"/>
      <point x="340" y="528"/>
      <point x="340" y="523"/>
      <point x="339" y="517" type="curve" smooth="yes"/>
      <point x="336" y="494" type="line" smooth="yes"/>
      <point x="331" y="454"/>
      <point x="214" y="353"/>
    </contour>
    <contour>
      <point x="487" y="-5" type="curve" smooth="yes"/>
      <point x="348" y="-5"/>
      <point x="339" y="78"/>
      <point x="339" y="158" type="curve" smooth="yes"/>
      <point x="339" y="197"/>
      <point x="462" y="299"/>
      <point x="515" y="299" type="curve" smooth="yes"/>
      <point x="631" y="299"/>
      <point x="664" y="241"/>
      <point x="664" y="175" type="curve" smooth="yes"/>
      <point x="664" y="166"/>
      <point x="661" y="157"/>
      <point x="661" y="136" type="curve" smooth="yes"/>
      <point x="661" y="98"/>
      <point x="538" y="-5"/>
    </contour>
    <contour>
      <point x="63" y="-7" type="line"/>
      <point x="82" y="17"/>
      <point x="347" y="452"/>
      <point x="374" y="496" type="curve" smooth="yes"/>
      <point x="389" y="521"/>
      <point x="418" y="562"/>
      <point x="418" y="585" type="curve"/>
      <point x="523" y="655" type="line"/>
      <point x="543" y="643"/>
      <point x="551" y="636"/>
      <point x="551" y="634" type="curve" smooth="yes"/>
      <point x="550" y="611"/>
      <point x="503" y="520"/>
      <point x="427" y="394" type="curve" smooth="yes"/>
      <point x="361" y="285" type="line" smooth="yes"/>
      <point x="351" y="268"/>
      <point x="340" y="252"/>
      <point x="330" y="236" type="curve" smooth="yes"/>
      <point x="186" y="-1" type="line"/>
    </contour>
    <contour>
      <point x="559" y="69" type="curve"/>
      <point x="562" y="86"/>
      <point x="565" y="110"/>
      <point x="565" y="135" type="curve" smooth="yes"/>
      <point x="565" y="192"/>
      <point x="540" y="247"/>
      <point x="497" y="247" type="curve" smooth="yes"/>
      <point x="487" y="247"/>
      <point x="473" y="243"/>
      <point x="454" y="233" type="curve"/>
      <point x="448" y="215"/>
      <point x="441" y="192"/>
      <point x="441" y="166" type="curve" smooth="yes"/>
      <point x="441" y="110"/>
      <point x="478" y="58"/>
      <point x="523" y="58" type="curve" smooth="yes"/>
      <point x="532" y="58"/>
      <point x="544" y="61"/>
    </contour>
    <contour>
      <point x="235" y="426" type="curve"/>
      <point x="237" y="442"/>
      <point x="241" y="467"/>
      <point x="241" y="493" type="curve" smooth="yes"/>
      <point x="241" y="549"/>
      <point x="215" y="604"/>
      <point x="172" y="604" type="curve" smooth="yes"/>
      <point x="162" y="604"/>
      <point x="148" y="600"/>
      <point x="129" y="590" type="curve"/>
      <point x="123" y="573"/>
      <point x="117" y="549"/>
      <point x="117" y="524" type="curve" smooth="yes"/>
      <point x="117" y="467"/>
      <point x="153" y="416"/>
      <point x="198" y="416" type="curve" smooth="yes"/>
      <point x="208" y="416"/>
      <point x="220" y="419"/>
    </contour>
  </outline>
</glyph>
<glyph name="ampersand" format="1">
  <advance width="642"/>
  <unicode hex="0026"/>
  <outline>
    <contour>
      <point x="494" y="130" type="line"/>
      <point x="514" y="103"/>
      <point x="569" y="34"/>
      <point x="569" y="7" type="curve" smooth="yes"/>
      <point x="569" y="5"/>
      <point x="561" y="-2"/>
      <point x="549" y="-9" type="curve"/>
      <point x="462" y="2" type="line"/>
      <point x="460" y="16"/>
      <point x="432" y="66"/>
      <point x="432" y="66" type="curve"/>
      <point x="366" y="12"/>
      <point x="303" y="-14"/>
      <point x="242" y="-14" type="curve" smooth="yes"/>
      <point x="137" y="-14"/>
      <point x="81" y="47"/>
      <point x="72" y="134" type="curve"/>
      <point x="72" y="217"/>
      <point x="131" y="280"/>
      <point x="241" y="324" type="curve"/>
      <point x="225" y="351"/>
      <point x="189" y="414"/>
      <point x="189" y="464" type="curve" smooth="yes"/>
      <point x="189" y="509"/>
      <point x="219" y="550"/>
      <point x="327" y="559" type="curve"/>
      <point x="389" y="559"/>
      <point x="447" y="527"/>
      <point x="447" y="461" type="curve" smooth="yes"/>
      <point x="447" y="414"/>
      <point x="418" y="352"/>
      <point x="343" y="313" type="curve"/>
      <point x="388" y="264"/>
      <point x="403" y="247"/>
      <point x="441" y="198" type="curve"/>
      <point x="449" y="223"/>
      <point x="457" y="258"/>
      <point x="457" y="299" type="curve" smooth="yes"/>
      <point x="457" y="317" type="line"/>
      <point x="458" y="316"/>
      <point x="552" y="334"/>
      <point x="552" y="334" type="curve"/>
      <point x="554" y="330"/>
      <point x="557" y="327"/>
      <point x="557" y="323" type="curve" smooth="yes"/>
      <point x="557" y="288"/>
      <point x="490" y="136"/>
      <point x="490" y="136" type="curve"/>
    </contour>
    <contour>
      <point x="402" y="112" type="line"/>
      <point x="307" y="229"/>
      <point x="274" y="270"/>
      <point x="261" y="288" type="curve"/>
      <point x="211" y="269"/>
      <point x="188" y="238"/>
      <point x="188" y="197" type="curve" smooth="yes"/>
      <point x="188" y="109"/>
      <point x="282" y="35"/>
      <point x="295" y="35" type="curve" smooth="yes"/>
      <point x="315" y="35"/>
      <point x="324" y="41"/>
      <point x="381" y="92" type="curve"/>
    </contour>
    <contour>
      <point x="298" y="520" type="curve"/>
      <point x="292" y="510"/>
      <point x="290" y="492"/>
      <point x="290" y="472" type="curve" smooth="yes"/>
      <point x="290" y="422"/>
      <point x="303" y="361"/>
      <point x="314" y="347" type="curve"/>
      <point x="333" y="361"/>
      <point x="344" y="397"/>
      <point x="344" y="435" type="curve" smooth="yes"/>
      <point x="344" y="481"/>
      <point x="332" y="528"/>
      <point x="309" y="528" type="curve" smooth="yes"/>
      <point x="306" y="528"/>
      <point x="300" y="526"/>
    </contour>
  </outline>
</glyph>
<glyph name="quotesingle" format="1">
  <advance width="152"/>
  <unicode hex="0027"/>
  <outline>
    <contour>
      <point x="118" y="654" type="line"/>
      <point x="122" y="585" type="line" smooth="yes"/>
      <point x="124" y="543"/>
      <point x="127" y="503"/>
      <point x="127" y="476" type="curve" smooth="yes"/>
      <point x="127" y="442"/>
      <point x="112" y="422"/>
      <point x="83" y="422" type="curve"/>
      <point x="29" y="465" type="line"/>
      <point x="26" y="468"/>
      <point x="26" y="473"/>
      <point x="26" y="479" type="curve" smooth="yes"/>
      <point x="26" y="489"/>
      <point x="28" y="502"/>
      <point x="28" y="508" type="curve" smooth="yes"/>
      <point x="28" y="581" type="line" smooth="yes"/>
      <point x="25" y="611"/>
      <point x="24" y="646"/>
      <point x="22" y="654" type="curve"/>
    </contour>
  </outline>
</glyph>
<glyph name="asterisk" format="1">
  <advance width="364"/>
  <unicode hex="002A"/>
  <outline>
    <contour>
      <point x="237" y="670" type="line"/>
      <point x="229" y="655"/>
      <point x="218" y="619"/>
      <point x="212" y="586" type="curve"/>
      <point x="249" y="612"/>
      <point x="307" y="636"/>
      <point x="330" y="638" type="curve"/>
      <point x="330" y="577" type="line"/>
      <point x="292" y="570"/>
      <point x="220" y="544"/>
      <point x="203" y="529" type="curve"/>
      <point x="245" y="510"/>
      <point x="337" y="462"/>
      <point x="342" y="448" type="curve"/>
      <point x="248" y="419" type="line"/>
      <point x="238" y="438"/>
      <point x="225" y="460"/>
      <point x="212" y="476" type="curve"/>
      <point x="215" y="439"/>
      <point x="217" y="391"/>
      <point x="217" y="374" type="curve"/>
      <point x="123" y="390" type="line"/>
      <point x="126" y="397"/>
      <point x="143" y="450"/>
      <point x="143" y="476" type="curve" smooth="yes"/>
      <point x="143" y="479"/>
      <point x="144" y="482"/>
      <point x="145" y="484" type="curve"/>
      <point x="105" y="461"/>
      <point x="53" y="440"/>
      <point x="26" y="439" type="curve"/>
      <point x="31" y="502" type="line"/>
      <point x="65" y="504"/>
      <point x="140" y="519"/>
      <point x="156" y="529" type="curve"/>
      <point x="115" y="547"/>
      <point x="28" y="596"/>
      <point x="24" y="611" type="curve"/>
      <point x="117" y="639" type="line"/>
      <point x="124" y="623"/>
      <point x="137" y="600"/>
      <point x="148" y="583" type="curve"/>
      <point x="146" y="619"/>
      <point x="145" y="668"/>
      <point x="145" y="683" type="curve"/>
    </contour>
  </outline>
</glyph>
<glyph name="plus" format="1">
  <advance width="578"/>
  <unicode hex="002B"/>
  <outline>
    <contour>
      <point x="80" y="260" type="line"/>
      <point x="225" y="260" type="line"/>
      <point x="225" y="273"/>
      <point x="226" y="296"/>
      <point x="226" y="305" type="curve" smooth="yes"/>
      <point x="226" y="324" type="line" smooth="yes"/>
      <point x="226" y="356"/>
      <point x="224" y="366"/>
      <point x="221" y="382" type="curve" smooth="yes"/>
      <point x="219" y="393" type="line"/>
      <point x="262" y="462" type="line"/>
      <point x="264" y="468"/>
      <point x="274" y="471"/>
      <point x="288" y="471" type="curve" smooth="yes"/>
      <point x="325" y="471"/>
      <point x="329" y="412"/>
      <point x="329" y="294" type="curve" smooth="yes"/>
      <point x="329" y="262" type="line"/>
      <point x="505" y="262" type="line"/>
      <point x="471" y="199" type="line"/>
      <point x="405" y="199"/>
      <point x="372" y="200"/>
      <point x="327" y="200" type="curve"/>
      <point x="325" y="132"/>
      <point x="319" y="65"/>
      <point x="311" y="25" type="curve"/>
      <point x="212" y="25" type="line"/>
      <point x="214" y="47"/>
      <point x="219" y="126"/>
      <point x="222" y="199" type="curve"/>
      <point x="155" y="198"/>
      <point x="90" y="195"/>
      <point x="61" y="192" type="curve"/>
    </contour>
  </outline>
</glyph>
<glyph name="period" format="1">
  <advance width="209"/>
  <unicode hex="002E"/>
  <outline>
    <contour>
      <point x="116" y="116" type="curve" smooth="yes"/>
      <point x="173" y="116"/>
      <point x="188" y="81"/>
      <point x="188" y="57" type="curve" smooth="yes"/>
      <point x="188" y="26"/>
      <point x="155" y="-2"/>
      <point x="113" y="-2" type="curve" smooth="yes"/>
      <point x="67" y="-2"/>
      <point x="38" y="26"/>
      <point x="38" y="57" type="curve" smooth="yes"/>
      <point x="38" y="61"/>
      <point x="38" y="65"/>
      <point x="41" y="73" type="curve"/>
      <point x="46" y="100"/>
      <point x="82" y="116"/>
    </contour>
  </outline>
</glyph>
<glyph name="zero" format="1">
  <advance width="397"/>
  <unicode hex="0030"/>
  <outline>
    <contour>
      <point x="273" y="92" type="curve"/>
      <point x="278" y="113"/>
      <point x="283" y="142"/>
      <point x="283" y="174" type="curve" smooth="yes"/>
      <point x="283" y="244"/>
      <point x="249" y="315"/>
      <point x="192" y="315" type="curve" smooth="yes"/>
      <point x="178" y="315"/>
      <point x="160" y="309"/>
      <point x="136" y="297" type="curve"/>
      <point x="125" y="274"/>
      <point x="109" y="237"/>
      <point x="109" y="206" type="curve" smooth="yes"/>
      <point x="109" y="135"/>
      <point x="157" y="71"/>
      <point x="218" y="71" type="curve" smooth="yes"/>
      <point x="228" y="71"/>
      <point x="254" y="83"/>
    </contour>
    <contour>
      <point x="180" y="0" type="curve" smooth="yes"/>
      <point x="11" y="0"/>
      <point x="0" y="103"/>
      <point x="0" y="203" type="curve" smooth="yes"/>
      <point x="0" y="252"/>
      <point x="151" y="380"/>
      <point x="215" y="380" type="curve" smooth="yes"/>
      <point x="357" y="380"/>
      <point x="396" y="306"/>
      <point x="396" y="223" type="curve" smooth="yes"/>
      <point x="396" y="208"/>
      <point x="396" y="191"/>
      <point x="393" y="176" type="curve"/>
      <point x="389" y="127"/>
      <point x="242" y="0"/>
    </contour>
  </outline>
</glyph>
<glyph name="one" format="1">
  <advance width="233"/>
  <unicode hex="0031"/>
  <outline>
    <contour>
      <point x="88" y="0" type="line"/>
      <point x="93" y="34"/>
      <point x="98" y="145"/>
      <point x="98" y="197" type="curve" smooth="yes"/>
      <point x="98" y="237"/>
      <point x="98" y="289"/>
      <point x="90" y="306" type="curve"/>
      <point x="31" y="293" type="line"/>
      <point x="25" y="305" type="line"/>
      <point x="56" y="337"/>
      <point x="153" y="384"/>
      <point x="183" y="384" type="curve" smooth="yes"/>
      <point x="184" y="384"/>
      <point x="185" y="384"/>
      <point x="193" y="375" type="curve"/>
      <point x="206" y="357"/>
      <point x="209" y="317"/>
      <point x="209" y="255" type="curve" smooth="yes"/>
      <point x="209" y="108" type="line" smooth="yes"/>
      <point x="209" y="75"/>
      <point x="209" y="40"/>
      <point x="210" y="2" type="curve"/>
    </contour>
  </outline>
</glyph>
<glyph name="two" format="1">
  <advance width="433"/>
  <unicode hex="0032"/>
  <outline>
    <contour>
      <point x="203" y="380" type="line"/>
      <point x="262" y="380"/>
      <point x="373" y="301"/>
      <point x="373" y="259" type="curve" smooth="yes"/>
      <point x="373" y="235"/>
      <point x="340" y="173"/>
      <point x="258" y="49" type="curve"/>
      <point x="424" y="68" type="line"/>
      <point x="393" y="0" type="line"/>
      <point x="220" y="0" type="line" smooth="yes"/>
      <point x="197" y="0"/>
      <point x="177" y="-1"/>
      <point x="159" y="-1" type="curve" smooth="yes"/>
      <point x="98" y="-1"/>
      <point x="64" y="0"/>
      <point x="64" y="5" type="curve"/>
      <point x="125" y="52" type="line"/>
      <point x="148" y="76"/>
      <point x="219" y="176"/>
      <point x="248" y="221" type="curve" smooth="yes"/>
      <point x="264" y="244"/>
      <point x="265" y="249"/>
      <point x="272" y="263" type="curve"/>
      <point x="274" y="266" type="line"/>
      <point x="262" y="288"/>
      <point x="250" y="297"/>
      <point x="239" y="297" type="curve" smooth="yes"/>
      <point x="210" y="297"/>
      <point x="170" y="257"/>
      <point x="150" y="216" type="curve"/>
      <point x="124" y="235"/>
      <point x="92" y="263"/>
      <point x="84" y="270" type="curve"/>
      <point x="84" y="276" type="line"/>
      <point x="84" y="278"/>
      <point x="84" y="281"/>
      <point x="85" y="282" type="curve"/>
      <point x="98" y="317"/>
      <point x="158" y="376"/>
      <point x="196" y="380" type="curve" smooth="yes"/>
    </contour>
  </outline>
</glyph>
<glyph name="three" format="1">
  <advance width="417"/>
  <unicode hex="0033"/>
  <outline>
    <contour>
      <point x="53" y="282" type="line"/>
      <point x="53" y="291"/>
      <point x="114" y="365"/>
      <point x="159" y="380" type="curve"/>
      <point x="171" y="380" type="line" smooth="yes"/>
      <point x="216" y="380"/>
      <point x="332" y="274"/>
      <point x="348" y="239" type="curve" smooth="yes"/>
      <point x="357" y="217"/>
      <point x="363" y="190"/>
      <point x="363" y="169" type="curve" smooth="yes"/>
      <point x="363" y="126"/>
      <point x="342" y="79"/>
      <point x="301" y="51" type="curve"/>
      <point x="367" y="6"/>
      <point x="417" y="-45"/>
      <point x="417" y="-90" type="curve" smooth="yes"/>
      <point x="417" y="-169"/>
      <point x="307" y="-257"/>
      <point x="216" y="-257" type="curve" smooth="yes"/>
      <point x="128" y="-257"/>
      <point x="17" y="-254"/>
      <point x="17" y="-168" type="curve" smooth="yes"/>
      <point x="17" y="-159"/>
      <point x="18" y="-149"/>
      <point x="23" y="-132" type="curve"/>
      <point x="31" y="-132"/>
      <point x="109" y="-135"/>
      <point x="135" y="-147" type="curve"/>
      <point x="135" y="-179"/>
      <point x="141" y="-216"/>
      <point x="165" y="-216" type="curve" smooth="yes"/>
      <point x="251" y="-216"/>
      <point x="283" y="-93"/>
      <point x="283" y="-65" type="curve" smooth="yes"/>
      <point x="283" y="60"/>
      <point x="215" y="23"/>
      <point x="122" y="59" type="curve"/>
      <point x="132" y="92" type="line"/>
      <point x="161" y="79"/>
      <point x="175" y="74"/>
      <point x="179" y="74" type="curve" smooth="yes"/>
      <point x="219" y="74"/>
      <point x="245" y="125"/>
      <point x="245" y="198" type="curve" smooth="yes"/>
      <point x="245" y="248"/>
      <point x="224" y="296"/>
      <point x="212" y="296" type="curve" smooth="yes"/>
      <point x="186" y="296"/>
      <point x="151" y="260"/>
      <point x="133" y="223" type="curve"/>
      <point x="100" y="239"/>
      <point x="53" y="282"/>
      <point x="55" y="281" type="curve"/>
    </contour>
  </outline>
</glyph>
<glyph name="four" format="1">
  <advance width="516"/>
  <unicode hex="0034"/>
  <outline>
    <contour>
      <point x="463" y="-7" type="line"/>
      <point x="412" y="-7" type="line"/>
      <point x="412" y="-59" type="line" smooth="yes"/>
      <point x="412" y="-77"/>
      <point x="411" y="-95"/>
      <point x="411" y="-113" type="curve" smooth="yes"/>
      <point x="411" y="-163"/>
      <point x="412" y="-212"/>
      <point x="413" y="-253" type="curve"/>
      <point x="291" y="-253" type="line"/>
      <point x="295" y="-228"/>
      <point x="300" y="-86"/>
      <point x="302" y="-7" type="curve"/>
      <point x="290" y="-7" type="line" smooth="yes"/>
      <point x="258" y="-8"/>
      <point x="214" y="-8"/>
      <point x="186" y="-8" type="curve" smooth="yes"/>
      <point x="96" y="-8"/>
      <point x="27" y="-7"/>
      <point x="27" y="-2" type="curve"/>
      <point x="77" y="44" type="line" smooth="yes"/>
      <point x="118" y="82"/>
      <point x="208" y="215"/>
      <point x="227" y="269" type="curve"/>
      <point x="265" y="320"/>
      <point x="309" y="357"/>
      <point x="360" y="389" type="curve"/>
      <point x="405" y="389"/>
      <point x="412" y="301"/>
      <point x="412" y="144" type="curve" smooth="yes"/>
      <point x="412" y="53" type="line"/>
      <point x="440" y="55"/>
      <point x="468" y="60"/>
      <point x="495" y="71" type="curve"/>
    </contour>
    <contour>
      <point x="303" y="48" type="curve"/>
      <point x="302" y="89"/>
      <point x="303" y="132"/>
      <point x="296" y="215" type="curve"/>
      <point x="253" y="144" type="line" smooth="yes"/>
      <point x="237" y="117"/>
      <point x="214" y="84"/>
      <point x="192" y="39" type="curve"/>
      <point x="224" y="40"/>
      <point x="273" y="44"/>
    </contour>
  </outline>
</glyph>
<glyph name="five" format="1">
  <advance width="477"/>
  <unicode hex="0035"/>
  <outline>
    <contour>
      <point x="75" y="265" type="move"/>
    </contour>
    <contour>
      <point x="426" y="248" type="line"/>
      <point x="341" y="248" type="line" smooth="yes"/>
      <point x="316" y="248"/>
      <point x="291" y="247"/>
      <point x="268" y="247" type="curve" smooth="yes"/>
      <point x="180" y="247" type="line"/>
      <point x="174" y="247"/>
      <point x="168" y="247"/>
      <point x="159" y="248" type="curve"/>
      <point x="161" y="200"/>
      <point x="155" y="154"/>
      <point x="155" y="108" type="curve"/>
      <point x="275" y="104"/>
      <point x="410" y="-4"/>
      <point x="410" y="-90" type="curve" smooth="yes"/>
      <point x="410" y="-169"/>
      <point x="300" y="-257"/>
      <point x="209" y="-257" type="curve" smooth="yes"/>
      <point x="121" y="-257"/>
      <point x="10" y="-254"/>
      <point x="10" y="-168" type="curve" smooth="yes"/>
      <point x="10" y="-159"/>
      <point x="11" y="-149"/>
      <point x="16" y="-132" type="curve"/>
      <point x="24" y="-132"/>
      <point x="102" y="-135"/>
      <point x="128" y="-147" type="curve"/>
      <point x="128" y="-179"/>
      <point x="134" y="-216"/>
      <point x="158" y="-216" type="curve" smooth="yes"/>
      <point x="244" y="-216"/>
      <point x="276" y="-93"/>
      <point x="276" y="-65" type="curve" smooth="yes"/>
      <point x="276" y="22"/>
      <point x="188" y="69"/>
      <point x="114" y="69" type="curve"/>
      <point x="60" y="69" type="line"/>
      <point x="69" y="128"/>
      <point x="78" y="187"/>
      <point x="78" y="238" type="curve" smooth="yes"/>
      <point x="78" y="246"/>
      <point x="78" y="255"/>
      <point x="77" y="259" type="curve"/>
      <point x="75" y="265" type="line"/>
      <point x="137" y="326" type="line"/>
      <point x="160" y="314"/>
      <point x="194" y="312"/>
      <point x="214" y="312" type="curve" smooth="yes"/>
      <point x="222" y="312" type="line" smooth="yes"/>
      <point x="267" y="312"/>
      <point x="438" y="326"/>
      <point x="461" y="330" type="curve"/>
    </contour>
  </outline>
</glyph>
<glyph name="six" format="1">
  <advance width="451"/>
  <unicode hex="0036"/>
  <outline>
    <contour>
      <point x="221" y="-2" type="curve"/>
      <point x="52" y="-2"/>
      <point x="37" y="100"/>
      <point x="32" y="200" type="curve"/>
      <point x="40" y="275"/>
      <point x="105" y="661"/>
      <point x="279" y="661" type="curve" smooth="yes"/>
      <point x="337" y="661"/>
      <point x="384" y="609"/>
      <point x="401" y="590" type="curve"/>
      <point x="382" y="556" type="line"/>
      <point x="350" y="578" type="line" smooth="yes"/>
      <point x="330" y="591"/>
      <point x="321" y="599"/>
      <point x="306" y="599" type="curve" smooth="yes"/>
      <point x="250" y="599"/>
      <point x="209" y="509"/>
      <point x="175" y="357" type="curve"/>
      <point x="194" y="369"/>
      <point x="216" y="378"/>
      <point x="240" y="378" type="curve" smooth="yes"/>
      <point x="414" y="378"/>
      <point x="426" y="275"/>
      <point x="426" y="175" type="curve" smooth="yes"/>
      <point x="426" y="125"/>
      <point x="283" y="-1"/>
    </contour>
    <contour>
      <point x="157" y="290" type="curve"/>
      <point x="153" y="272"/>
      <point x="147" y="243"/>
      <point x="147" y="213" type="curve" smooth="yes"/>
      <point x="147" y="140"/>
      <point x="190" y="72"/>
      <point x="255" y="72" type="curve" smooth="yes"/>
      <point x="269" y="72"/>
      <point x="281" y="74"/>
      <point x="303" y="84" type="curve"/>
      <point x="308" y="109"/>
      <point x="310" y="133"/>
      <point x="310" y="158" type="curve" smooth="yes"/>
      <point x="310" y="232"/>
      <point x="280" y="308"/>
      <point x="218" y="308" type="curve" smooth="yes"/>
      <point x="203" y="308"/>
      <point x="183" y="303"/>
    </contour>
  </outline>
</glyph>
<glyph name="seven" format="1">
  <advance width="415"/>
  <unicode hex="0037"/>
  <outline>
    <contour>
      <point x="79" y="-253" type="line"/>
      <point x="108" y="-175"/>
      <point x="247" y="115"/>
      <point x="295" y="246" type="curve"/>
      <point x="143" y="246" type="line" smooth="yes"/>
      <point x="116" y="246"/>
      <point x="71" y="245"/>
      <point x="44" y="244" type="curve"/>
      <point x="5" y="331" type="line"/>
      <point x="31" y="326"/>
      <point x="204" y="312"/>
      <point x="250" y="312" type="curve" smooth="yes"/>
      <point x="258" y="312" type="line" smooth="yes"/>
      <point x="279" y="312"/>
      <point x="303" y="312"/>
      <point x="332" y="323" type="curve"/>
      <point x="402" y="257" type="line"/>
      <point x="393" y="257"/>
      <point x="385" y="255"/>
      <point x="385" y="253" type="curve"/>
      <point x="199" y="-253" type="line"/>
    </contour>
  </outline>
</glyph>
<glyph name="eight" format="1">
  <advance width="481"/>
  <unicode hex="0038"/>
  <outline>
    <contour>
      <point x="222" y="-259" type="curve" smooth="yes"/>
      <point x="53" y="-259"/>
      <point x="42" y="-161"/>
      <point x="42" y="-66" type="curve" smooth="yes"/>
      <point x="42" y="-43"/>
      <point x="93" y="11"/>
      <point x="156" y="53" type="curve"/>
      <point x="50" y="75"/>
      <point x="42" y="151"/>
      <point x="42" y="226" type="curve" smooth="yes"/>
      <point x="42" y="269"/>
      <point x="182" y="380"/>
      <point x="240" y="380" type="curve" smooth="yes"/>
      <point x="372" y="380"/>
      <point x="407" y="315"/>
      <point x="407" y="244" type="curve" smooth="yes"/>
      <point x="407" y="200"/>
      <point x="399" y="167"/>
      <point x="303" y="98" type="curve"/>
      <point x="407" y="81"/>
      <point x="438" y="19"/>
      <point x="438" y="-47" type="curve" smooth="yes"/>
      <point x="438" y="-60"/>
      <point x="436" y="-73"/>
      <point x="434" y="-90" type="curve"/>
      <point x="434" y="-138"/>
      <point x="284" y="-259"/>
    </contour>
    <contour>
      <point x="313" y="-176" type="curve"/>
      <point x="313" y="-174"/>
      <point x="314" y="-173"/>
      <point x="314" y="-171" type="curve" smooth="yes"/>
      <point x="318" y="-152"/>
      <point x="323" y="-127"/>
      <point x="323" y="-98" type="curve" smooth="yes"/>
      <point x="323" y="-30"/>
      <point x="289" y="38"/>
      <point x="232" y="38" type="curve" smooth="yes"/>
      <point x="219" y="38"/>
      <point x="200" y="32"/>
      <point x="177" y="20" type="curve"/>
      <point x="166" y="0"/>
      <point x="158" y="-29"/>
      <point x="158" y="-60" type="curve" smooth="yes"/>
      <point x="158" y="-126"/>
      <point x="205" y="-189"/>
      <point x="266" y="-189" type="curve" smooth="yes"/>
      <point x="278" y="-189"/>
      <point x="294" y="-185"/>
    </contour>
    <contour>
      <point x="293" y="127" type="curve"/>
      <point x="296" y="145"/>
      <point x="302" y="172"/>
      <point x="302" y="200" type="curve" smooth="yes"/>
      <point x="302" y="262"/>
      <point x="271" y="324"/>
      <point x="219" y="324" type="curve" smooth="yes"/>
      <point x="208" y="324"/>
      <point x="191" y="319"/>
      <point x="170" y="309" type="curve"/>
      <point x="161" y="290"/>
      <point x="154" y="265"/>
      <point x="154" y="235" type="curve" smooth="yes"/>
      <point x="154" y="173"/>
      <point x="196" y="116"/>
      <point x="250" y="116" type="curve" smooth="yes"/>
      <point x="261" y="116"/>
      <point x="276" y="120"/>
    </contour>
  </outline>
</glyph>
<glyph name="nine" format="1">
  <advance width="488"/>
  <unicode hex="0039"/>
  <outline>
    <contour>
      <point x="255" y="371" type="curve"/>
      <point x="424" y="371"/>
      <point x="439" y="269"/>
      <point x="444" y="169" type="curve" smooth="yes"/>
      <point x="444" y="94"/>
      <point x="376" y="-257"/>
      <point x="208" y="-257" type="curve" smooth="yes"/>
      <point x="148" y="-257"/>
      <point x="102" y="-204"/>
      <point x="85" y="-185" type="curve"/>
      <point x="101" y="-152" type="line"/>
      <point x="158" y="-187"/>
      <point x="156" y="-194"/>
      <point x="181" y="-194" type="curve" smooth="yes"/>
      <point x="234" y="-194"/>
      <point x="268" y="-136"/>
      <point x="301" y="11" type="curve"/>
      <point x="282" y="0"/>
      <point x="260" y="-9"/>
      <point x="236" y="-9" type="curve" smooth="yes"/>
      <point x="62" y="-9"/>
      <point x="50" y="94"/>
      <point x="50" y="194" type="curve" smooth="yes"/>
      <point x="50" y="244"/>
      <point x="193" y="370"/>
    </contour>
    <contour>
      <point x="167" y="283" type="curve"/>
      <point x="167" y="278"/>
      <point x="168" y="273"/>
      <point x="168" y="268" type="curve" smooth="yes"/>
      <point x="168" y="252"/>
      <point x="166" y="231"/>
      <point x="166" y="211" type="curve" smooth="yes"/>
      <point x="166" y="137"/>
      <point x="196" y="61"/>
      <point x="259" y="61" type="curve" smooth="yes"/>
      <point x="274" y="61"/>
      <point x="293" y="66"/>
      <point x="319" y="79" type="curve"/>
      <point x="324" y="99"/>
      <point x="330" y="125"/>
      <point x="330" y="152" type="curve" smooth="yes"/>
      <point x="330" y="221"/>
      <point x="290" y="296"/>
      <point x="220" y="296" type="curve" smooth="yes"/>
      <point x="206" y="296"/>
      <point x="189" y="292"/>
    </contour>
  </outline>
</glyph>
<glyph name="colon" format="1">
  <advance width="208"/>
  <unicode hex="003A"/>
  <outline>
    <contour>
      <point x="107" y="116" type="curve" smooth="yes"/>
      <point x="164" y="116"/>
      <point x="179" y="81"/>
      <point x="179" y="57" type="curve" smooth="yes"/>
      <point x="179" y="26"/>
      <point x="146" y="-2"/>
      <point x="104" y="-2" type="curve" smooth="yes"/>
      <point x="58" y="-2"/>
      <point x="29" y="26"/>
      <point x="29" y="57" type="curve" smooth="yes"/>
      <point x="29" y="61"/>
      <point x="29" y="65"/>
      <point x="32" y="73" type="curve"/>
      <point x="37" y="100"/>
      <point x="73" y="116"/>
    </contour>
    <contour>
      <point x="107" y="296" type="curve" smooth="yes"/>
      <point x="164" y="296"/>
      <point x="179" y="262"/>
      <point x="179" y="235" type="curve" smooth="yes"/>
      <point x="179" y="205"/>
      <point x="146" y="176"/>
      <point x="104" y="176" type="curve" smooth="yes"/>
      <point x="58" y="176"/>
      <point x="29" y="207"/>
      <point x="29" y="236" type="curve" smooth="yes"/>
      <point x="29" y="268"/>
      <point x="64" y="296"/>
    </contour>
  </outline>
</glyph>
<glyph name="semicolon" format="1">
  <advance width="228"/>
  <unicode hex="003B"/>
  <outline>
    <contour>
      <point x="184" y="45" type="curve" smooth="yes"/>
      <point x="184" y="-12"/>
      <point x="108" y="-104"/>
      <point x="87" y="-122" type="curve"/>
      <point x="73" y="-116"/>
      <point x="51" y="-106"/>
      <point x="41" y="-98" type="curve"/>
      <point x="54" y="-89"/>
      <point x="74" y="-47"/>
      <point x="89" y="-2" type="curve"/>
      <point x="48" y="1"/>
      <point x="23" y="28"/>
      <point x="23" y="57" type="curve" smooth="yes"/>
      <point x="23" y="61"/>
      <point x="23" y="65"/>
      <point x="26" y="73" type="curve"/>
      <point x="30" y="97"/>
      <point x="60" y="112"/>
      <point x="92" y="116" type="curve"/>
      <point x="101" y="116" type="line" smooth="yes"/>
      <point x="143" y="116"/>
      <point x="184" y="86"/>
    </contour>
    <contour>
      <point x="101" y="296" type="curve" smooth="yes"/>
      <point x="158" y="296"/>
      <point x="173" y="262"/>
      <point x="173" y="235" type="curve" smooth="yes"/>
      <point x="173" y="205"/>
      <point x="140" y="176"/>
      <point x="98" y="176" type="curve" smooth="yes"/>
      <point x="52" y="176"/>
      <point x="23" y="207"/>
      <point x="23" y="236" type="curve" smooth="yes"/>
      <point x="23" y="268"/>
      <point x="58" y="296"/>
    </contour>
  </outline>
</glyph>
<glyph name="less" format="1">
  <advance width="525"/>
  <unicode hex="003C"/>
  <outline>
    <contour>
      <point x="31" y="237" type="line"/>
      <point x="245" y="323" type="line"/>
      <point x="345" y="364"/>
      <point x="406" y="388"/>
      <point x="444" y="388" type="curve" smooth="yes"/>
      <point x="465" y="388"/>
      <point x="479" y="385"/>
      <point x="484" y="376" type="curve"/>
      <point x="409" y="306" type="line"/>
      <point x="398" y="306"/>
      <point x="379" y="307"/>
      <point x="379" y="309" type="curve" smooth="yes"/>
      <point x="380" y="309"/>
      <point x="368" y="304"/>
      <point x="362" y="301" type="curve" smooth="yes"/>
      <point x="122" y="202" type="line"/>
      <point x="209" y="155"/>
      <point x="317" y="108"/>
      <point x="353" y="93" type="curve" smooth="yes"/>
      <point x="379" y="82" type="line"/>
      <point x="380" y="82"/>
      <point x="381" y="82"/>
      <point x="383" y="83" type="curve"/>
      <point x="382" y="84"/>
      <point x="395" y="84"/>
      <point x="409" y="84" type="curve"/>
      <point x="483" y="13" type="line"/>
      <point x="478" y="6"/>
      <point x="464" y="2"/>
      <point x="444" y="2" type="curve" smooth="yes"/>
      <point x="406" y="2"/>
      <point x="345" y="26"/>
      <point x="244" y="67" type="curve"/>
      <point x="180" y="93" type="line" smooth="yes"/>
      <point x="154" y="103"/>
      <point x="136" y="110"/>
      <point x="84" y="132" type="curve"/>
      <point x="34" y="148"/>
      <point x="31" y="148"/>
      <point x="31" y="155" type="curve"/>
    </contour>
  </outline>
</glyph>
<glyph name="equal" format="1">
  <advance width="547"/>
  <unicode hex="003D"/>
  <outline>
    <contour>
      <point x="45" y="162" type="line"/>
      <point x="143" y="162" type="line" smooth="yes"/>
      <point x="179" y="162"/>
      <point x="215" y="162"/>
      <point x="252" y="163" type="curve"/>
      <point x="496" y="163" type="line"/>
      <point x="462" y="101" type="line"/>
      <point x="403" y="102"/>
      <point x="345" y="103"/>
      <point x="288" y="103" type="curve" smooth="yes"/>
      <point x="200" y="103"/>
      <point x="114" y="101"/>
      <point x="28" y="94" type="curve"/>
    </contour>
    <contour>
      <point x="71" y="334" type="line"/>
      <point x="222" y="334" type="line" smooth="yes"/>
      <point x="240" y="334"/>
      <point x="259" y="335"/>
      <point x="277" y="335" type="curve" smooth="yes"/>
      <point x="521" y="335" type="line"/>
      <point x="487" y="273" type="line"/>
      <point x="392" y="274"/>
      <point x="343" y="275"/>
      <point x="294" y="275" type="curve" smooth="yes"/>
      <point x="212" y="275"/>
      <point x="132" y="273"/>
      <point x="52" y="266" type="curve"/>
    </contour>
  </outline>
</glyph>
<glyph name="question" format="1">
  <advance width="434"/>
  <unicode hex="003F"/>
  <outline>
    <contour>
      <point x="97" y="184" type="line"/>
      <point x="92" y="216"/>
      <point x="95" y="271"/>
      <point x="81" y="314" type="curve"/>
      <point x="140" y="327" type="line"/>
      <point x="172" y="348"/>
      <point x="199" y="410"/>
      <point x="199" y="467" type="curve" smooth="yes"/>
      <point x="199" y="474" type="line" smooth="yes"/>
      <point x="199" y="509"/>
      <point x="198" y="616"/>
      <point x="166" y="616" type="curve" smooth="yes"/>
      <point x="143" y="616"/>
      <point x="141" y="583"/>
      <point x="141" y="562" type="curve"/>
      <point x="141" y="550" type="line"/>
      <point x="120" y="536"/>
      <point x="31" y="536"/>
      <point x="27" y="536" type="curve"/>
      <point x="24" y="550"/>
      <point x="23" y="562"/>
      <point x="23" y="572" type="curve" smooth="yes"/>
      <point x="23" y="657"/>
      <point x="73" y="659"/>
      <point x="145" y="659" type="curve" smooth="yes"/>
      <point x="214" y="659"/>
      <point x="334" y="573"/>
      <point x="334" y="495" type="curve" smooth="yes"/>
      <point x="334" y="428"/>
      <point x="236" y="331"/>
      <point x="175" y="297" type="curve"/>
      <point x="198" y="231"/>
      <point x="206" y="202"/>
      <point x="213" y="154" type="curve"/>
    </contour>
    <contour>
      <point x="153" y="116" type="curve" smooth="yes"/>
      <point x="210" y="116"/>
      <point x="224" y="81"/>
      <point x="224" y="57" type="curve" smooth="yes"/>
      <point x="224" y="26"/>
      <point x="193" y="-2"/>
      <point x="149" y="-2" type="curve" smooth="yes"/>
      <point x="104" y="-2"/>
      <point x="74" y="26"/>
      <point x="74" y="57" type="curve" smooth="yes"/>
      <point x="74" y="91"/>
      <point x="112" y="116"/>
    </contour>
  </outline>
</glyph>
<glyph name="at" format="1">
  <advance width="753"/>
  <unicode hex="0040"/>
  <outline>
    <contour>
      <point x="515" y="-66" type="line"/>
      <point x="503" y="-103"/>
      <point x="432" y="-107"/>
      <point x="397" y="-107" type="curve" smooth="yes"/>
      <point x="208" y="-107"/>
      <point x="82" y="42"/>
      <point x="82" y="173" type="curve" smooth="yes"/>
      <point x="82" y="410"/>
      <point x="375" y="500"/>
      <point x="475" y="500" type="curve"/>
      <point x="661" y="495"/>
      <point x="721" y="369"/>
      <point x="721" y="259" type="curve" smooth="yes"/>
      <point x="721" y="127"/>
      <point x="636" y="47"/>
      <point x="504" y="-17" type="curve"/>
      <point x="473" y="9" type="line"/>
      <point x="460" y="19"/>
      <point x="449" y="27"/>
      <point x="441" y="36" type="curve"/>
      <point x="418" y="15"/>
      <point x="391" y="-4"/>
      <point x="373" y="-4" type="curve" smooth="yes"/>
      <point x="293" y="-4"/>
      <point x="257" y="84"/>
      <point x="257" y="150" type="curve" smooth="yes"/>
      <point x="257" y="166"/>
      <point x="258" y="183"/>
      <point x="264" y="197" type="curve" smooth="yes"/>
      <point x="277" y="231"/>
      <point x="367" y="329"/>
      <point x="407" y="329" type="curve" smooth="yes"/>
      <point x="415" y="329"/>
      <point x="419" y="329"/>
      <point x="420" y="328" type="curve"/>
      <point x="454" y="318"/>
      <point x="517" y="271"/>
      <point x="524" y="244" type="curve"/>
      <point x="527" y="236"/>
      <point x="527" y="233"/>
      <point x="527" y="230" type="curve" smooth="yes"/>
      <point x="527" y="208"/>
      <point x="522" y="177"/>
      <point x="522" y="164" type="curve" smooth="yes"/>
      <point x="522" y="156" type="line" smooth="yes"/>
      <point x="522" y="86"/>
      <point x="543" y="63"/>
      <point x="562" y="53" type="curve"/>
      <point x="591" y="82"/>
      <point x="614" y="133"/>
      <point x="614" y="230" type="curve" smooth="yes"/>
      <point x="614" y="234" type="line" smooth="yes"/>
      <point x="612" y="389"/>
      <point x="508" y="429"/>
      <point x="420" y="429" type="curve" smooth="yes"/>
      <point x="282" y="429"/>
      <point x="193" y="358"/>
      <point x="193" y="213" type="curve" smooth="yes"/>
      <point x="193" y="39"/>
      <point x="343" y="-75"/>
      <point x="445" y="-75" type="curve" smooth="yes"/>
      <point x="453" y="-75"/>
      <point x="464" y="-74"/>
      <point x="473" y="-48" type="curve"/>
    </contour>
    <contour>
      <point x="419" y="72" type="curve"/>
      <point x="425" y="85"/>
      <point x="427" y="107"/>
      <point x="427" y="132" type="curve" smooth="yes"/>
      <point x="427" y="189"/>
      <point x="411" y="253"/>
      <point x="381" y="253" type="curve" smooth="yes"/>
      <point x="378" y="253"/>
      <point x="371" y="250"/>
      <point x="366" y="244" type="curve"/>
      <point x="357" y="229"/>
      <point x="353" y="208"/>
      <point x="353" y="183" type="curve" smooth="yes"/>
      <point x="353" y="125"/>
      <point x="379" y="66"/>
      <point x="412" y="66" type="curve" smooth="yes"/>
      <point x="414" y="66"/>
      <point x="419" y="68"/>
      <point x="419" y="71" type="curve" smooth="yes"/>
      <point x="419" y="71"/>
      <point x="419" y="72"/>
    </contour>
  </outline>
</glyph>
<glyph name="A" format="1">
  <advance width="583"/>
  <unicode hex="0041"/>
  <outline>
    <contour>
      <point x="421" y="-1" type="line"/>
      <point x="417" y="15"/>
      <point x="394" y="84"/>
      <point x="368" y="157" type="curve"/>
      <point x="174" y="157" type="line"/>
      <point x="173" y="155"/>
      <point x="173" y="156"/>
      <point x="118" y="-6" type="curve"/>
      <point x="12" y="1" type="line"/>
      <point x="56" y="109"/>
      <point x="163" y="413"/>
      <point x="214" y="558" type="curve"/>
      <point x="209" y="568"/>
      <point x="206" y="569"/>
      <point x="205" y="569" type="curve"/>
      <point x="241" y="650" type="line"/>
      <point x="241" y="650"/>
      <point x="255" y="655"/>
      <point x="258" y="656" type="curve"/>
      <point x="315" y="656"/>
      <point x="385" y="474"/>
      <point x="451" y="293" type="curve" smooth="yes"/>
      <point x="501" y="156" type="line" smooth="yes"/>
      <point x="521" y="100"/>
      <point x="540" y="46"/>
      <point x="557" y="4" type="curve"/>
    </contour>
    <contour>
      <point x="351" y="207" type="line"/>
      <point x="269" y="446" type="line"/>
      <point x="190" y="207" type="line"/>
    </contour>
    <contour>
      <point x="247" y="563" type="move" name="top"/>
    </contour>
    <contour>
      <point x="481" y="11" type="move" name="bottom"/>
    </contour>
  </outline>
</glyph>
<glyph name="B" format="1">
  <advance width="542"/>
  <unicode hex="0042"/>
  <outline>
    <contour>
      <point x="13" y="650" type="line"/>
      <point x="32" y="649"/>
      <point x="72" y="648"/>
      <point x="93" y="648" type="curve" smooth="yes"/>
      <point x="166" y="648"/>
      <point x="246" y="650"/>
      <point x="296" y="650" type="curve" smooth="yes"/>
      <point x="305" y="650" type="line"/>
      <point x="432" y="639"/>
      <point x="468" y="561"/>
      <point x="468" y="494" type="curve" smooth="yes"/>
      <point x="468" y="438"/>
      <point x="447" y="406"/>
      <point x="391" y="357" type="curve"/>
      <point x="384" y="357" type="line"/>
      <point x="473" y="330"/>
      <point x="501" y="269"/>
      <point x="501" y="216" type="curve" smooth="yes"/>
      <point x="501" y="109"/>
      <point x="383" y="1"/>
      <point x="271" y="1" type="curve" smooth="yes"/>
      <point x="135" y="1" type="line" smooth="yes"/>
      <point x="112" y="1"/>
      <point x="66" y="0"/>
      <point x="41" y="0" type="curve"/>
      <point x="46" y="69"/>
      <point x="52" y="416"/>
      <point x="52" y="462" type="curve" smooth="yes"/>
      <point x="52" y="504"/>
      <point x="52" y="550"/>
      <point x="44" y="562" type="curve"/>
      <point x="60" y="583" type="line"/>
      <point x="53" y="583"/>
      <point x="44" y="582"/>
      <point x="42" y="582" type="curve"/>
    </contour>
    <contour>
      <point x="178" y="57" type="line"/>
      <point x="201" y="52"/>
      <point x="238" y="50"/>
      <point x="264" y="50" type="curve" smooth="yes"/>
      <point x="342" y="50"/>
      <point x="373" y="88"/>
      <point x="373" y="172" type="curve" smooth="yes"/>
      <point x="373" y="301"/>
      <point x="315" y="332"/>
      <point x="233" y="332" type="curve" smooth="yes"/>
      <point x="211" y="332"/>
      <point x="186" y="330"/>
      <point x="178" y="327" type="curve"/>
    </contour>
    <contour>
      <point x="341" y="453" type="curve"/>
      <point x="339" y="569"/>
      <point x="294" y="598"/>
      <point x="220" y="598" type="curve" smooth="yes"/>
      <point x="200" y="598"/>
      <point x="179" y="594"/>
      <point x="168" y="594" type="curve"/>
      <point x="177" y="563"/>
      <point x="178" y="445"/>
      <point x="178" y="390" type="curve" smooth="yes"/>
      <point x="178" y="362" type="line"/>
      <point x="255" y="362"/>
      <point x="296" y="364"/>
      <point x="325" y="364" type="curve"/>
      <point x="326" y="366"/>
      <point x="341" y="396"/>
    </contour>
  </outline>
</glyph>
<glyph name="C" format="1">
  <advance width="562"/>
  <unicode hex="0043"/>
  <outline>
    <contour>
      <point x="296" y="658" type="line"/>
      <point x="380" y="633"/>
      <point x="494" y="523"/>
      <point x="494" y="508" type="curve"/>
      <point x="489" y="499"/>
      <point x="469" y="464"/>
      <point x="410" y="421" type="curve"/>
      <point x="376" y="474"/>
      <point x="295" y="551"/>
      <point x="243" y="551" type="curve" smooth="yes"/>
      <point x="173" y="551"/>
      <point x="168" y="414"/>
      <point x="168" y="348" type="curve" smooth="yes"/>
      <point x="168" y="145"/>
      <point x="226" y="80"/>
      <point x="293" y="80" type="curve" smooth="yes"/>
      <point x="349" y="80"/>
      <point x="414" y="95"/>
      <point x="474" y="141" type="curve"/>
      <point x="505" y="86" type="line"/>
      <point x="443" y="37"/>
      <point x="270" y="-1"/>
      <point x="231" y="-3" type="curve"/>
      <point x="94" y="6"/>
      <point x="39" y="151"/>
      <point x="39" y="277" type="curve" smooth="yes"/>
      <point x="39" y="317"/>
      <point x="44" y="359"/>
      <point x="53" y="392" type="curve" smooth="yes"/>
      <point x="70" y="454"/>
      <point x="211" y="658"/>
      <point x="286" y="658" type="curve" smooth="yes"/>
    </contour>
    <contour>
      <point x="282" y="602" type="move" name="top"/>
    </contour>
    <contour>
      <point x="260" y="11" type="move" name="bottom"/>
    </contour>
  </outline>
</glyph>
<glyph name="F" format="1">
  <advance width="437"/>
  <unicode hex="0046"/>
  <outline>
    <contour>
      <point x="12" y="650" type="line"/>
      <point x="43" y="649"/>
      <point x="95" y="648"/>
      <point x="123" y="648" type="curve" smooth="yes"/>
      <point x="284" y="648" type="line" smooth="yes"/>
      <point x="380" y="648"/>
      <point x="427" y="646"/>
      <point x="427" y="626" type="curve"/>
      <point x="352" y="574" type="line"/>
      <point x="317" y="593"/>
      <point x="281" y="593"/>
      <point x="254" y="593" type="curve" smooth="yes"/>
      <point x="244" y="593" type="line" smooth="yes"/>
      <point x="226" y="593"/>
      <point x="193" y="590"/>
      <point x="170" y="590" type="curve"/>
      <point x="177" y="539"/>
      <point x="178" y="460"/>
      <point x="178" y="374" type="curve" smooth="yes"/>
      <point x="178" y="357" type="line"/>
      <point x="182" y="354"/>
      <point x="205" y="353"/>
      <point x="228" y="353" type="curve" smooth="yes"/>
      <point x="238" y="353" type="line" smooth="yes"/>
      <point x="264" y="353"/>
      <point x="300" y="353"/>
      <point x="334" y="372" type="curve"/>
      <point x="415" y="320" type="line"/>
      <point x="415" y="302"/>
      <point x="388" y="299"/>
      <point x="303" y="299" type="curve" smooth="yes"/>
      <point x="178" y="299" type="line"/>
      <point x="178" y="250" type="line" smooth="yes"/>
      <point x="178" y="232"/>
      <point x="177" y="214"/>
      <point x="177" y="196" type="curve" smooth="yes"/>
      <point x="177" y="143" type="line" smooth="yes"/>
      <point x="177" y="94"/>
      <point x="178" y="43"/>
      <point x="179" y="2" type="curve"/>
      <point x="40" y="2" type="line"/>
      <point x="45" y="35"/>
      <point x="52" y="412"/>
      <point x="52" y="462" type="curve" smooth="yes"/>
      <point x="52" y="506"/>
      <point x="51" y="549"/>
      <point x="44" y="562" type="curve"/>
      <point x="59" y="583" type="line"/>
      <point x="42" y="582" type="line"/>
    </contour>
  </outline>
</glyph>
<glyph name="G" format="1">
  <advance width="573"/>
  <unicode hex="0047"/>
  <outline>
    <contour>
      <point x="350" y="0" type="line"/>
      <point x="350" y="30" type="line"/>
      <point x="306" y="12"/>
      <point x="253" y="-2"/>
      <point x="231" y="-3" type="curve"/>
      <point x="94" y="6"/>
      <point x="39" y="151"/>
      <point x="39" y="276" type="curve" smooth="yes"/>
      <point x="39" y="316"/>
      <point x="44" y="357"/>
      <point x="53" y="390" type="curve" smooth="yes"/>
      <point x="70" y="452"/>
      <point x="215" y="657"/>
      <point x="296" y="657" type="curve"/>
      <point x="377" y="633"/>
      <point x="494" y="518"/>
      <point x="494" y="506" type="curve" smooth="yes"/>
      <point x="494" y="506"/>
      <point x="474" y="467"/>
      <point x="410" y="418" type="curve"/>
      <point x="376" y="472"/>
      <point x="296" y="549"/>
      <point x="244" y="549" type="curve" smooth="yes"/>
      <point x="173" y="549"/>
      <point x="168" y="400"/>
      <point x="168" y="344" type="curve" smooth="yes"/>
      <point x="168" y="130"/>
      <point x="232" y="80"/>
      <point x="292" y="80" type="curve" smooth="yes"/>
      <point x="311" y="80"/>
      <point x="342" y="86"/>
      <point x="350" y="94" type="curve"/>
      <point x="350" y="185" type="line"/>
      <point x="293" y="185" type="line"/>
      <point x="303" y="236" type="line"/>
      <point x="522" y="236" type="line"/>
      <point x="512" y="185" type="line"/>
      <point x="474" y="185" type="line"/>
      <point x="474" y="169" type="line" smooth="yes"/>
      <point x="474" y="138"/>
      <point x="474" y="83"/>
      <point x="477" y="-2" type="curve"/>
    </contour>
    <contour>
      <point x="285" y="587" type="move" name="top"/>
    </contour>
    <contour>
      <point x="256" y="11" type="move" name="bottom"/>
    </contour>
  </outline>
</glyph>
<glyph name="H" format="1">
  <advance width="625"/>
  <unicode hex="0048"/>
  <outline>
    <contour>
      <point x="403" y="0" type="line"/>
      <point x="406" y="19"/>
      <point x="409" y="160"/>
      <point x="411" y="277" type="curve"/>
      <point x="179" y="277" type="line"/>
      <point x="179" y="250" type="line" smooth="yes"/>
      <point x="179" y="232"/>
      <point x="178" y="214"/>
      <point x="178" y="196" type="curve" smooth="yes"/>
      <point x="178" y="143" type="line" smooth="yes"/>
      <point x="178" y="94"/>
      <point x="179" y="43"/>
      <point x="180" y="2" type="curve"/>
      <point x="41" y="2" type="line"/>
      <point x="46" y="35"/>
      <point x="52" y="412"/>
      <point x="52" y="462" type="curve" smooth="yes"/>
      <point x="52" y="505"/>
      <point x="52" y="553"/>
      <point x="45" y="566" type="curve"/>
      <point x="108" y="649" type="line"/>
      <point x="171" y="649"/>
      <point x="179" y="526"/>
      <point x="179" y="374" type="curve" smooth="yes"/>
      <point x="179" y="326" type="line"/>
      <point x="412" y="326" type="line"/>
      <point x="412" y="393"/>
      <point x="414" y="444"/>
      <point x="414" y="462" type="curve" smooth="yes"/>
      <point x="414" y="504"/>
      <point x="414" y="552"/>
      <point x="405" y="566" type="curve"/>
      <point x="468" y="649" type="line"/>
      <point x="532" y="649"/>
      <point x="540" y="523"/>
      <point x="540" y="370" type="curve" smooth="yes"/>
      <point x="540" y="0" type="line"/>
    </contour>
    <contour>
      <point x="280" y="567" type="move" name="top"/>
    </contour>
  </outline>
</glyph>
<glyph name="I" format="1">
  <advance width="292"/>
  <unicode hex="0049"/>
  <outline>
    <contour>
      <point x="41" y="0" type="line"/>
      <point x="46" y="35"/>
      <point x="51" y="412"/>
      <point x="51" y="462" type="curve" smooth="yes"/>
      <point x="51" y="505"/>
      <point x="51" y="553"/>
      <point x="44" y="566" type="curve"/>
      <point x="107" y="649" type="line"/>
      <point x="169" y="649"/>
      <point x="177" y="526"/>
      <point x="177" y="374" type="curve" smooth="yes"/>
      <point x="177" y="143" type="line" smooth="yes"/>
      <point x="177" y="94"/>
      <point x="177" y="43"/>
      <point x="178" y="2" type="curve"/>
    </contour>
    <contour>
      <point x="116" y="580" type="move" name="top"/>
    </contour>
    <contour>
      <point x="111" y="11" type="move" name="bottom"/>
    </contour>
  </outline>
</glyph>
<glyph name="K" format="1">
  <advance width="594"/>
  <unicode hex="004B"/>
  <outline>
    <contour>
      <point x="41" y="0" type="line"/>
      <point x="46" y="35"/>
      <point x="52" y="412"/>
      <point x="52" y="462" type="curve" smooth="yes"/>
      <point x="52" y="505"/>
      <point x="52" y="561"/>
      <point x="45" y="574" type="curve"/>
      <point x="108" y="657" type="line"/>
      <point x="171" y="657"/>
      <point x="179" y="526"/>
      <point x="179" y="374" type="curve"/>
      <point x="266" y="470"/>
      <point x="366" y="580"/>
      <point x="421" y="580" type="curve" smooth="yes"/>
      <point x="432" y="580"/>
      <point x="438" y="580"/>
      <point x="450" y="572" type="curve"/>
      <point x="457" y="502" type="line"/>
      <point x="441" y="496"/>
      <point x="367" y="424"/>
      <point x="309" y="366" type="curve"/>
      <point x="433" y="204"/>
      <point x="568" y="56"/>
      <point x="568" y="15" type="curve" smooth="yes"/>
      <point x="568" y="12"/>
      <point x="563" y="7"/>
      <point x="553" y="-1" type="curve"/>
      <point x="442" y="-1" type="line"/>
      <point x="438" y="29"/>
      <point x="395" y="86"/>
      <point x="373" y="115" type="curve" smooth="yes"/>
      <point x="348" y="148"/>
      <point x="283" y="237"/>
      <point x="239" y="289" type="curve"/>
      <point x="179" y="212" type="line"/>
      <point x="178" y="189"/>
      <point x="178" y="166"/>
      <point x="178" y="143" type="curve" smooth="yes"/>
      <point x="178" y="94"/>
      <point x="179" y="43"/>
      <point x="180" y="2" type="curve"/>
    </contour>
    <contour>
      <point x="251" y="4" type="move" name="bottom"/>
    </contour>
  </outline>
</glyph>
<glyph name="M" format="1">
  <advance width="687"/>
  <unicode hex="004D"/>
  <outline>
    <contour>
      <point x="452" y="0" type="line"/>
      <point x="455" y="28"/>
      <point x="459" y="208"/>
      <point x="460" y="318" type="curve"/>
      <point x="335" y="-1" type="line"/>
      <point x="303" y="-1" type="line"/>
      <point x="163" y="317" type="line"/>
      <point x="163" y="121" type="line" smooth="yes"/>
      <point x="163" y="80"/>
      <point x="163" y="37"/>
      <point x="164" y="2" type="curve"/>
      <point x="59" y="2" type="line"/>
      <point x="64" y="35"/>
      <point x="69" y="412"/>
      <point x="69" y="462" type="curve" smooth="yes"/>
      <point x="69" y="505"/>
      <point x="69" y="554"/>
      <point x="60" y="569" type="curve"/>
      <point x="111" y="649" type="line"/>
      <point x="120" y="649"/>
      <point x="131" y="642"/>
      <point x="138" y="628" type="curve"/>
      <point x="181" y="561"/>
      <point x="277" y="345"/>
      <point x="329" y="240" type="curve"/>
      <point x="404" y="424"/>
      <point x="426" y="476"/>
      <point x="452" y="549" type="curve" smooth="yes"/>
      <point x="455" y="558" type="line"/>
      <point x="453" y="564" type="line"/>
      <point x="516" y="649" type="line"/>
      <point x="579" y="649"/>
      <point x="587" y="522"/>
      <point x="587" y="369" type="curve" smooth="yes"/>
      <point x="587" y="121" type="line" smooth="yes"/>
      <point x="587" y="80"/>
      <point x="587" y="37"/>
      <point x="588" y="2" type="curve"/>
    </contour>
  </outline>
</glyph>
<glyph name="N" format="1">
  <advance width="625"/>
  <unicode hex="004E"/>
  <outline>
    <contour>
      <point x="433" y="0" type="line"/>
      <point x="411" y="1" type="line"/>
      <point x="392" y="47"/>
      <point x="242" y="274"/>
      <point x="163" y="399" type="curve"/>
      <point x="163" y="121" type="line" smooth="yes"/>
      <point x="163" y="80"/>
      <point x="163" y="37"/>
      <point x="164" y="2" type="curve"/>
      <point x="59" y="2" type="line"/>
      <point x="64" y="35"/>
      <point x="69" y="412"/>
      <point x="69" y="462" type="curve" smooth="yes"/>
      <point x="69" y="505"/>
      <point x="69" y="554"/>
      <point x="60" y="569" type="curve"/>
      <point x="115" y="655" type="line"/>
      <point x="205" y="545"/>
      <point x="337" y="360"/>
      <point x="421" y="221" type="curve"/>
      <point x="423" y="328"/>
      <point x="424" y="436"/>
      <point x="424" y="462" type="curve" smooth="yes"/>
      <point x="424" y="505"/>
      <point x="424" y="554"/>
      <point x="416" y="568" type="curve"/>
      <point x="452" y="648" type="line"/>
      <point x="509" y="648"/>
      <point x="522" y="578"/>
      <point x="522" y="480" type="curve" smooth="yes"/>
      <point x="522" y="212"/>
      <point x="519" y="132"/>
      <point x="519" y="0" type="curve"/>
    </contour>
    <contour>
      <point x="285" y="625" type="move" name="top"/>
    </contour>
    <contour>
      <point x="216" y="11" type="move" name="bottom"/>
    </contour>
  </outline>
</glyph>
<glyph name="Q" format="1">
  <advance width="719"/>
  <unicode hex="0051"/>
  <outline>
    <contour>
      <point x="144" y="392" type="curve" smooth="yes"/>
      <point x="202" y="589"/>
      <point x="378" y="657"/>
      <point x="471" y="657" type="curve" smooth="yes"/>
      <point x="614" y="657"/>
      <point x="663" y="503"/>
      <point x="663" y="375" type="curve" smooth="yes"/>
      <point x="663" y="159"/>
      <point x="527" y="49"/>
      <point x="424" y="11" type="curve"/>
      <point x="430" y="-99"/>
      <point x="482" y="-138"/>
      <point x="542" y="-138" type="curve" smooth="yes"/>
      <point x="588" y="-138"/>
      <point x="659" y="-110"/>
      <point x="728" y="-68" type="curve"/>
      <point x="740" y="-121" type="line"/>
      <point x="680" y="-167"/>
      <point x="543" y="-182"/>
      <point x="470" y="-182" type="curve" smooth="yes"/>
      <point x="342" y="-182"/>
      <point x="283" y="-93"/>
      <point x="278" y="0" type="curve"/>
      <point x="175" y="24"/>
      <point x="128" y="159"/>
      <point x="128" y="277" type="curve" smooth="yes"/>
      <point x="128" y="318"/>
      <point x="134" y="359"/>
    </contour>
    <contour>
      <point x="357" y="576" type="curve" smooth="yes"/>
      <point x="320" y="574"/>
      <point x="257" y="552"/>
      <point x="257" y="348" type="curve" smooth="yes"/>
      <point x="257" y="330" type="line" smooth="yes"/>
      <point x="257" y="161"/>
      <point x="344" y="75"/>
      <point x="412" y="75" type="curve" smooth="yes"/>
      <point x="488" y="75"/>
      <point x="528" y="124"/>
      <point x="535" y="335" type="curve" smooth="yes"/>
      <point x="535" y="345" type="line" smooth="yes"/>
      <point x="533" y="549"/>
      <point x="430" y="577"/>
      <point x="374" y="577" type="curve" smooth="yes"/>
      <point x="369" y="577"/>
      <point x="365" y="577"/>
    </contour>
  </outline>
</glyph>
<glyph name="R" format="1">
  <advance width="572"/>
  <unicode hex="0052"/>
  <outline>
    <contour>
      <point x="13" y="649" type="line"/>
      <point x="337" y="649" type="line"/>
      <point x="463" y="639"/>
      <point x="501" y="562"/>
      <point x="501" y="496" type="curve" smooth="yes"/>
      <point x="501" y="410"/>
      <point x="425" y="336"/>
      <point x="362" y="300" type="curve"/>
      <point x="401" y="248"/>
      <point x="462" y="176"/>
      <point x="459" y="176" type="curve" smooth="yes"/>
      <point x="459" y="176"/>
      <point x="454" y="183"/>
      <point x="454" y="183" type="curve"/>
      <point x="521" y="100"/>
      <point x="569" y="40"/>
      <point x="569" y="16" type="curve" smooth="yes"/>
      <point x="569" y="13"/>
      <point x="563" y="7"/>
      <point x="553" y="-1" type="curve"/>
      <point x="438" y="-1" type="line"/>
      <point x="434" y="23"/>
      <point x="402" y="77"/>
      <point x="383" y="104" type="curve" smooth="yes"/>
      <point x="340" y="161" type="line" smooth="yes"/>
      <point x="311" y="200"/>
      <point x="267" y="254"/>
      <point x="242" y="282" type="curve"/>
      <point x="178" y="282" type="line"/>
      <point x="178" y="256" type="line" smooth="yes"/>
      <point x="178" y="238"/>
      <point x="177" y="220"/>
      <point x="177" y="203" type="curve" smooth="yes"/>
      <point x="177" y="151" type="line" smooth="yes"/>
      <point x="177" y="102"/>
      <point x="178" y="44"/>
      <point x="179" y="2" type="curve"/>
      <point x="41" y="2" type="line"/>
      <point x="46" y="32"/>
      <point x="52" y="305"/>
      <point x="52" y="426" type="curve" smooth="yes"/>
      <point x="52" y="462" type="line" smooth="yes"/>
      <point x="52" y="504"/>
      <point x="52" y="550"/>
      <point x="44" y="562" type="curve"/>
      <point x="60" y="583" type="line"/>
      <point x="53" y="583"/>
      <point x="44" y="582"/>
      <point x="42" y="582" type="curve"/>
    </contour>
    <contour>
      <point x="178" y="330" type="line"/>
      <point x="195" y="326"/>
      <point x="224" y="324"/>
      <point x="248" y="324" type="curve" smooth="yes"/>
      <point x="347" y="324"/>
      <point x="372" y="365"/>
      <point x="374" y="453" type="curve" smooth="yes"/>
      <point x="374" y="459" type="line" smooth="yes"/>
      <point x="374" y="553"/>
      <point x="330" y="599"/>
      <point x="255" y="599" type="curve" smooth="yes"/>
      <point x="218" y="599"/>
      <point x="179" y="594"/>
      <point x="169" y="594" type="curve"/>
      <point x="177" y="544"/>
      <point x="178" y="466"/>
      <point x="178" y="376" type="curve" smooth="yes"/>
    </contour>
    <contour>
      <point x="223" y="596" type="move" name="top"/>
    </contour>
    <contour>
      <point x="256" y="43" type="move" name="bottom"/>
    </contour>
  </outline>
</glyph>
<glyph name="T" format="1">
  <advance width="500"/>
  <unicode hex="0054"/>
  <outline>
    <contour>
      <point x="361" y="648" type="line" smooth="yes"/>
      <point x="457" y="648"/>
      <point x="504" y="646"/>
      <point x="504" y="626" type="curve"/>
      <point x="439" y="569" type="line"/>
      <point x="400" y="578"/>
      <point x="341" y="581"/>
      <point x="303" y="581" type="curve" smooth="yes"/>
      <point x="294" y="581" type="line"/>
      <point x="296" y="528"/>
      <point x="296" y="446"/>
      <point x="296" y="358" type="curve" smooth="yes"/>
      <point x="296" y="2" type="line"/>
      <point x="160" y="2" type="line"/>
      <point x="164" y="89"/>
      <point x="171" y="317"/>
      <point x="171" y="470" type="curve" smooth="yes"/>
      <point x="171" y="520"/>
      <point x="170" y="555"/>
      <point x="169" y="581" type="curve"/>
      <point x="130" y="581" type="line" smooth="yes"/>
      <point x="96" y="581"/>
      <point x="57" y="579"/>
      <point x="16" y="568" type="curve"/>
      <point x="-52" y="626" type="line"/>
      <point x="-52" y="646"/>
      <point x="-6" y="648"/>
      <point x="92" y="648" type="curve" smooth="yes"/>
    </contour>
    <contour>
      <point x="234" y="612" type="move" name="top"/>
    </contour>
    <contour>
      <point x="221" y="11" type="move" name="bottom"/>
    </contour>
  </outline>
</glyph>
<glyph name="V" format="1">
  <advance width="541"/>
  <unicode hex="0056"/>
  <outline>
    <contour>
      <point x="249" y="-40" type="line"/>
      <point x="236" y="32"/>
      <point x="171" y="270"/>
      <point x="142" y="355" type="curve"/>
      <point x="117" y="426"/>
      <point x="65" y="558"/>
      <point x="46" y="572" type="curve"/>
      <point x="94" y="647" type="line"/>
      <point x="101" y="654"/>
      <point x="114" y="658"/>
      <point x="123" y="658" type="curve" smooth="yes"/>
      <point x="166" y="658"/>
      <point x="191" y="582"/>
      <point x="238" y="442" type="curve"/>
      <point x="298" y="263" type="line"/>
      <point x="343" y="385"/>
      <point x="380" y="517"/>
      <point x="402" y="652" type="curve"/>
      <point x="483" y="657" type="line"/>
      <point x="500" y="649"/>
      <point x="510" y="641"/>
      <point x="510" y="630" type="curve" smooth="yes"/>
      <point x="510" y="626" type="line" smooth="yes"/>
      <point x="509" y="585"/>
      <point x="423" y="345"/>
      <point x="350" y="112" type="curve"/>
      <point x="353" y="98" type="line"/>
    </contour>
  </outline>
</glyph>
<glyph name="W" format="1">
  <advance width="709"/>
  <unicode hex="0057"/>
  <outline>
    <contour>
      <point x="489" y="-39" type="line"/>
      <point x="479" y="22"/>
      <point x="436" y="185"/>
      <point x="406" y="285" type="curve"/>
      <point x="349" y="119" type="line"/>
      <point x="356" y="98" type="line"/>
      <point x="253" y="-39" type="line"/>
      <point x="239" y="32"/>
      <point x="172" y="269"/>
      <point x="143" y="355" type="curve" smooth="yes"/>
      <point x="119" y="426"/>
      <point x="64" y="557"/>
      <point x="46" y="572" type="curve"/>
      <point x="95" y="648" type="line"/>
      <point x="109" y="657"/>
      <point x="115" y="657"/>
      <point x="124" y="657" type="curve" smooth="yes"/>
      <point x="167" y="657"/>
      <point x="205" y="548"/>
      <point x="254" y="401" type="curve" smooth="yes"/>
      <point x="299" y="265" type="line"/>
      <point x="317" y="314"/>
      <point x="336" y="368"/>
      <point x="353" y="430" type="curve"/>
      <point x="330" y="487"/>
      <point x="297" y="560"/>
      <point x="285" y="571" type="curve"/>
      <point x="334" y="649" type="line"/>
      <point x="342" y="653"/>
      <point x="350" y="657"/>
      <point x="361" y="657" type="curve" smooth="yes"/>
      <point x="419" y="657"/>
      <point x="457" y="491"/>
      <point x="533" y="273" type="curve"/>
      <point x="548" y="322"/>
      <point x="564" y="380"/>
      <point x="571" y="408" type="curve"/>
      <point x="590" y="467"/>
      <point x="620" y="588"/>
      <point x="620" y="638" type="curve" smooth="yes"/>
      <point x="620" y="646" type="line"/>
      <point x="700" y="659" type="line"/>
      <point x="717" y="650"/>
      <point x="726" y="641"/>
      <point x="726" y="628" type="curve" smooth="yes"/>
      <point x="726" y="568"/>
      <point x="668" y="398"/>
      <point x="590" y="117" type="curve"/>
      <point x="596" y="99" type="line"/>
    </contour>
    <contour>
      <point x="372" y="604" type="move" name="top"/>
    </contour>
  </outline>
</glyph>
<glyph name="X" format="1">
  <advance width="520"/>
  <unicode hex="0058"/>
  <outline>
    <contour>
      <point x="354" y="6" type="line"/>
      <point x="341" y="59"/>
      <point x="279" y="178"/>
      <point x="255" y="237" type="curve"/>
      <point x="227" y="200"/>
      <point x="143" y="38"/>
      <point x="142" y="0" type="curve"/>
      <point x="41" y="0" type="line"/>
      <point x="28" y="12"/>
      <point x="22" y="18"/>
      <point x="22" y="23" type="curve" smooth="yes"/>
      <point x="22" y="51"/>
      <point x="80" y="130"/>
      <point x="208" y="343" type="curve"/>
      <point x="168" y="422"/>
      <point x="110" y="525"/>
      <point x="91" y="539" type="curve"/>
      <point x="110" y="662" type="line"/>
      <point x="118" y="666"/>
      <point x="126" y="670"/>
      <point x="138" y="670" type="curve" smooth="yes"/>
      <point x="179" y="670"/>
      <point x="236" y="585"/>
      <point x="302" y="447" type="curve"/>
      <point x="338" y="510"/>
      <point x="396" y="619"/>
      <point x="396" y="652" type="curve"/>
      <point x="498" y="652" type="line"/>
      <point x="512" y="640"/>
      <point x="519" y="631"/>
      <point x="519" y="626" type="curve" smooth="yes"/>
      <point x="519" y="601"/>
      <point x="474" y="540"/>
      <point x="353" y="334" type="curve"/>
      <point x="391" y="251"/>
      <point x="431" y="155"/>
      <point x="474" y="53" type="curve"/>
      <point x="495" y="6" type="line"/>
    </contour>
  </outline>
</glyph>
<glyph name="Y" format="1">
  <advance width="459"/>
  <unicode hex="0059"/>
  <outline>
    <contour>
      <point x="138" y="483" type="curve" smooth="yes"/>
      <point x="113" y="525"/>
      <point x="61" y="605"/>
      <point x="42" y="614" type="curve"/>
      <point x="103" y="665" type="line"/>
      <point x="103" y="665"/>
      <point x="111" y="665"/>
      <point x="115" y="666" type="curve"/>
      <point x="110" y="666" type="line"/>
      <point x="112" y="667"/>
      <point x="118" y="667"/>
      <point x="125" y="667" type="curve" smooth="yes"/>
      <point x="187" y="667"/>
      <point x="216" y="568"/>
      <point x="298" y="432" type="curve"/>
      <point x="312" y="458"/>
      <point x="325" y="486"/>
      <point x="334" y="509" type="curve"/>
      <point x="352" y="544"/>
      <point x="389" y="637"/>
      <point x="389" y="658" type="curve" smooth="yes"/>
      <point x="389" y="661"/>
      <point x="388" y="662"/>
      <point x="387" y="662" type="curve" smooth="yes"/>
      <point x="394" y="662"/>
      <point x="405" y="662"/>
      <point x="464" y="667" type="curve"/>
      <point x="483" y="662"/>
      <point x="492" y="656"/>
      <point x="492" y="649" type="curve" smooth="yes"/>
      <point x="492" y="610"/>
      <point x="418" y="489"/>
      <point x="344" y="322" type="curve"/>
      <point x="344" y="228" type="line" smooth="yes"/>
      <point x="345" y="75"/>
      <point x="345" y="34"/>
      <point x="346" y="2" type="curve"/>
      <point x="209" y="2" type="line"/>
      <point x="213" y="78" type="line" smooth="yes"/>
      <point x="216" y="142"/>
      <point x="220" y="208"/>
      <point x="220" y="269" type="curve" smooth="yes"/>
      <point x="220" y="284"/>
      <point x="220" y="298"/>
      <point x="219" y="313" type="curve"/>
      <point x="195" y="370"/>
      <point x="155" y="453"/>
    </contour>
    <contour>
      <point x="271" y="619" type="move" name="top"/>
    </contour>
  </outline>
</glyph>
<glyph name="Z" format="1">
  <advance width="646"/>
  <unicode hex="005A"/>
  <outline>
    <contour>
      <point x="360" y="585" type="line" smooth="yes"/>
      <point x="348" y="587"/>
      <point x="337" y="589"/>
      <point x="330" y="589" type="curve" smooth="yes"/>
      <point x="232" y="589"/>
      <point x="207" y="452"/>
      <point x="207" y="386" type="curve" smooth="yes"/>
      <point x="207" y="379" type="line"/>
      <point x="153" y="370" type="line"/>
      <point x="117" y="428"/>
      <point x="93" y="479"/>
      <point x="93" y="510" type="curve" smooth="yes"/>
      <point x="93" y="510"/>
      <point x="94" y="510"/>
      <point x="94" y="510" type="curve"/>
      <point x="109" y="565"/>
      <point x="201" y="656"/>
      <point x="272" y="660" type="curve" smooth="yes"/>
      <point x="278" y="660" type="line" smooth="yes"/>
      <point x="354" y="660"/>
      <point x="467" y="607"/>
      <point x="509" y="607" type="curve" smooth="yes"/>
      <point x="521" y="607"/>
      <point x="541" y="612"/>
      <point x="571" y="625" type="curve"/>
      <point x="577" y="539" type="line"/>
      <point x="542" y="549" type="line"/>
      <point x="520" y="472"/>
      <point x="422" y="303"/>
      <point x="305" y="59" type="curve"/>
      <point x="367" y="64"/>
      <point x="454" y="75"/>
      <point x="512" y="82" type="curve" smooth="yes"/>
      <point x="592" y="91" type="line"/>
      <point x="559" y="5" type="line"/>
      <point x="527" y="6"/>
      <point x="477" y="7"/>
      <point x="446" y="7" type="curve" smooth="yes"/>
      <point x="373" y="7"/>
      <point x="304" y="5"/>
      <point x="245" y="5" type="curve" smooth="yes"/>
      <point x="150" y="5"/>
      <point x="91" y="6"/>
      <point x="91" y="19" type="curve"/>
      <point x="148" y="78" type="line"/>
      <point x="151" y="75" type="line"/>
      <point x="224" y="173"/>
      <point x="337" y="398"/>
      <point x="346" y="418" type="curve"/>
      <point x="351" y="428" type="line"/>
      <point x="371" y="471"/>
      <point x="393" y="521"/>
      <point x="395" y="574" type="curve"/>
    </contour>
    <contour>
      <point x="389" y="587" type="move" name="top"/>
    </contour>
  </outline>
</glyph>
<glyph name="bracketleft" format="1">
  <advance width="292"/>
  <unicode hex="005B"/>
  <outline>
    <contour>
      <point x="45" y="663" type="line"/>
      <point x="128" y="664"/>
      <point x="175" y="664"/>
      <point x="178" y="664" type="curve" smooth="yes"/>
      <point x="274" y="664"/>
      <point x="321" y="662"/>
      <point x="321" y="642" type="curve"/>
      <point x="260" y="602" type="line"/>
      <point x="230" y="618"/>
      <point x="201" y="620"/>
      <point x="177" y="621" type="curve"/>
      <point x="184" y="563"/>
      <point x="185" y="456"/>
      <point x="185" y="334" type="curve" smooth="yes"/>
      <point x="185" y="210"/>
      <point x="183" y="76"/>
      <point x="183" y="-54" type="curve" smooth="yes"/>
      <point x="183" y="-69"/>
      <point x="184" y="-84"/>
      <point x="184" y="-98" type="curve" smooth="yes"/>
      <point x="184" y="-135" type="line"/>
      <point x="207" y="-134"/>
      <point x="233" y="-131"/>
      <point x="260" y="-116" type="curve"/>
      <point x="321" y="-157" type="line"/>
      <point x="321" y="-176"/>
      <point x="274" y="-179"/>
      <point x="178" y="-179" type="curve" smooth="yes"/>
      <point x="46" y="-179" type="line"/>
      <point x="63" y="-149" type="line"/>
      <point x="68" y="-48"/>
      <point x="75" y="434"/>
      <point x="75" y="481" type="curve" smooth="yes"/>
      <point x="75" y="522"/>
      <point x="72" y="617"/>
      <point x="64" y="633" type="curve"/>
    </contour>
  </outline>
</glyph>
<glyph name="grave" format="1">
  <advance width="367"/>
  <unicode hex="0060"/>
  <outline>
    <contour>
      <point x="169" y="562" type="line"/>
      <point x="228" y="499"/>
      <point x="254" y="476"/>
      <point x="287" y="470" type="curve"/>
      <point x="290" y="413" type="line"/>
      <point x="286" y="407"/>
      <point x="275" y="404"/>
      <point x="262" y="404" type="curve" smooth="yes"/>
      <point x="228" y="404"/>
      <point x="211" y="433"/>
      <point x="124" y="500" type="curve"/>
    </contour>
    <contour>
      <point x="204" y="329" type="move" name="_top"/>
    </contour>
  </outline>
</glyph>
<glyph name="a" format="1">
  <advance width="378"/>
  <unicode hex="0061"/>
  <outline>
    <contour>
      <point x="129" y="3" type="curve" smooth="yes"/>
      <point x="84" y="8"/>
      <point x="20" y="59"/>
      <point x="17" y="97" type="curve"/>
      <point x="22" y="97"/>
      <point x="44" y="216"/>
      <point x="185" y="216" type="curve" smooth="yes"/>
      <point x="189" y="216" type="line"/>
      <point x="189" y="225" type="line" smooth="yes"/>
      <point x="189" y="301"/>
      <point x="167" y="319"/>
      <point x="143" y="319" type="curve" smooth="yes"/>
      <point x="130" y="319"/>
      <point x="112" y="314"/>
      <point x="98" y="310" type="curve" smooth="yes"/>
      <point x="64" y="301" type="line"/>
      <point x="58" y="314" type="line"/>
      <point x="90" y="347"/>
      <point x="136" y="386"/>
      <point x="168" y="386" type="curve"/>
      <point x="207" y="382"/>
      <point x="293" y="330"/>
      <point x="304" y="291" type="curve"/>
      <point x="306" y="285"/>
      <point x="306" y="283"/>
      <point x="306" y="280" type="curve" smooth="yes"/>
      <point x="306" y="251"/>
      <point x="301" y="208"/>
      <point x="301" y="185" type="curve" smooth="yes"/>
      <point x="301" y="89"/>
      <point x="331" y="73"/>
      <point x="346" y="64" type="curve" smooth="yes"/>
      <point x="353" y="59"/>
      <point x="358" y="54"/>
      <point x="362" y="53" type="curve"/>
      <point x="355" y="42"/>
      <point x="337" y="18"/>
      <point x="291" y="-10" type="curve"/>
      <point x="256" y="7"/>
      <point x="225" y="30"/>
      <point x="209" y="50" type="curve"/>
      <point x="181" y="23"/>
      <point x="152" y="3"/>
    </contour>
    <contour>
      <point x="207" y="93" type="curve"/>
      <point x="200" y="101"/>
      <point x="195" y="113"/>
      <point x="192" y="136" type="curve" smooth="yes"/>
      <point x="190" y="153"/>
      <point x="190" y="180"/>
      <point x="189" y="180" type="curve" smooth="yes"/>
      <point x="183" y="181"/>
      <point x="178" y="182"/>
      <point x="173" y="182" type="curve" smooth="yes"/>
      <point x="144" y="182"/>
      <point x="127" y="163"/>
      <point x="127" y="163" type="curve"/>
      <point x="131" y="130"/>
      <point x="151" y="85"/>
      <point x="178" y="85" type="curve" smooth="yes"/>
      <point x="181" y="85"/>
      <point x="189" y="88"/>
    </contour>
    <contour>
      <point x="168" y="376" type="move" name="top"/>
    </contour>
    <contour>
      <point x="286" y="11" type="move" name="bottom"/>
    </contour>
  </outline>
</glyph>
<glyph name="b" format="1">
  <advance width="410"/>
  <unicode hex="0062"/>
  <outline>
    <contour>
      <point x="46" y="0" type="line"/>
      <point x="51" y="34"/>
      <point x="56" y="430"/>
      <point x="56" y="481" type="curve" smooth="yes"/>
      <point x="56" y="523"/>
      <point x="56" y="573"/>
      <point x="49" y="586" type="curve"/>
      <point x="110" y="664" type="line"/>
      <point x="161" y="664"/>
      <point x="168" y="514"/>
      <point x="168" y="340" type="curve"/>
      <point x="196" y="362"/>
      <point x="229" y="378"/>
      <point x="242" y="378" type="curve" smooth="yes"/>
      <point x="336" y="378"/>
      <point x="377" y="277"/>
      <point x="377" y="203" type="curve" smooth="yes"/>
      <point x="377" y="188"/>
      <point x="376" y="173"/>
      <point x="371" y="158" type="curve" smooth="yes"/>
      <point x="358" y="118"/>
      <point x="258" y="-3"/>
      <point x="214" y="-3" type="curve" smooth="yes"/>
      <point x="193" y="-3"/>
      <point x="162" y="13"/>
      <point x="138" y="29" type="curve"/>
      <point x="126" y="3" type="line"/>
    </contour>
    <contour>
      <point x="183" y="283" type="curve" smooth="yes"/>
      <point x="178" y="280"/>
      <point x="172" y="270"/>
      <point x="167" y="258" type="curve"/>
      <point x="167" y="170" type="line"/>
      <point x="183" y="121"/>
      <point x="214" y="78"/>
      <point x="245" y="78" type="curve" smooth="yes"/>
      <point x="250" y="78"/>
      <point x="261" y="83"/>
      <point x="275" y="92" type="curve"/>
      <point x="277" y="106"/>
      <point x="280" y="128"/>
      <point x="280" y="153" type="curve" smooth="yes"/>
      <point x="280" y="221"/>
      <point x="246" y="293"/>
      <point x="206" y="293" type="curve" smooth="yes"/>
      <point x="202" y="293"/>
      <point x="194" y="289"/>
    </contour>
  </outline>
</glyph>
<glyph name="d" format="1">
  <advance width="402"/>
  <unicode hex="0064"/>
  <outline>
    <contour>
      <point x="232" y="-5" type="line"/>
      <point x="231" y="-6"/>
      <point x="231" y="-4"/>
      <point x="231" y="-3" type="curve" smooth="yes"/>
      <point x="231" y="3"/>
      <point x="233" y="22"/>
      <point x="234" y="34" type="curve"/>
      <point x="212" y="16"/>
      <point x="186" y="-1"/>
      <point x="161" y="-3" type="curve"/>
      <point x="69" y="-1"/>
      <point x="27" y="93"/>
      <point x="27" y="167" type="curve" smooth="yes"/>
      <point x="27" y="182"/>
      <point x="29" y="199"/>
      <point x="34" y="215" type="curve"/>
      <point x="41" y="253"/>
      <point x="146" y="376"/>
      <point x="190" y="376" type="curve" smooth="yes"/>
      <point x="200" y="376" type="line"/>
      <point x="211" y="373"/>
      <point x="228" y="366"/>
      <point x="240" y="359" type="curve"/>
      <point x="240" y="414"/>
      <point x="242" y="460"/>
      <point x="242" y="475" type="curve" smooth="yes"/>
      <point x="242" y="517"/>
      <point x="242" y="566"/>
      <point x="233" y="580" type="curve"/>
      <point x="296" y="659" type="line"/>
      <point x="345" y="659"/>
      <point x="353" y="535"/>
      <point x="353" y="384" type="curve" smooth="yes"/>
      <point x="353" y="249" type="line" smooth="yes"/>
      <point x="353" y="203"/>
      <point x="352" y="157"/>
      <point x="352" y="113" type="curve" smooth="yes"/>
      <point x="352" y="72"/>
      <point x="352" y="33"/>
      <point x="353" y="-3" type="curve"/>
    </contour>
    <contour>
      <point x="222" y="90" type="curve" smooth="yes"/>
      <point x="238" y="98"/>
      <point x="238" y="145"/>
      <point x="238" y="185" type="curve"/>
      <point x="238" y="191" type="line"/>
      <point x="226" y="245"/>
      <point x="192" y="294"/>
      <point x="158" y="294" type="curve" smooth="yes"/>
      <point x="152" y="294"/>
      <point x="142" y="290"/>
      <point x="128" y="281" type="curve"/>
      <point x="127" y="266"/>
      <point x="124" y="243"/>
      <point x="124" y="220" type="curve" smooth="yes"/>
      <point x="124" y="152"/>
      <point x="156" y="80"/>
      <point x="197" y="80" type="curve" smooth="yes"/>
      <point x="201" y="80"/>
      <point x="210" y="84"/>
    </contour>
  </outline>
</glyph>
<glyph name="e" format="1">
  <advance width="371"/>
  <unicode hex="0065"/>
  <outline>
    <contour>
      <point x="281" y="193" type="curve"/>
      <point x="254" y="171"/>
      <point x="180" y="162"/>
      <point x="136" y="161" type="curve"/>
      <point x="151" y="98"/>
      <point x="186" y="72"/>
      <point x="221" y="72" type="curve" smooth="yes"/>
      <point x="245" y="72"/>
      <point x="280" y="93"/>
      <point x="314" y="130" type="curve"/>
      <point x="346" y="94" type="line"/>
      <point x="316" y="56"/>
      <point x="183" y="-3"/>
      <point x="161" y="-3" type="curve" smooth="yes"/>
      <point x="68" y="-3"/>
      <point x="27" y="96"/>
      <point x="27" y="171" type="curve" smooth="yes"/>
      <point x="27" y="184"/>
      <point x="29" y="200"/>
      <point x="33" y="215" type="curve" smooth="yes"/>
      <point x="43" y="253"/>
      <point x="146" y="376"/>
      <point x="191" y="376" type="curve" smooth="yes"/>
      <point x="197" y="376" type="line" smooth="yes"/>
      <point x="271" y="369"/>
      <point x="339" y="279"/>
      <point x="341" y="264" type="curve"/>
      <point x="332" y="234"/>
      <point x="281" y="193"/>
    </contour>
    <contour>
      <point x="133" y="260" type="curve"/>
      <point x="131" y="245"/>
      <point x="130" y="232"/>
      <point x="130" y="220" type="curve"/>
      <point x="139" y="206"/>
      <point x="157" y="200"/>
      <point x="172" y="200" type="curve" smooth="yes"/>
      <point x="201" y="200"/>
      <point x="234" y="212"/>
      <point x="246" y="227" type="curve"/>
      <point x="232" y="267"/>
      <point x="193" y="294"/>
      <point x="164" y="294" type="curve" smooth="yes"/>
      <point x="151" y="294"/>
      <point x="139" y="283"/>
    </contour>
    <contour>
      <point x="195" y="362" type="move" name="top"/>
    </contour>
    <contour>
      <point x="163" y="11" type="move" name="bottom"/>
    </contour>
  </outline>
</glyph>
<glyph name="f" format="1">
  <advance width="325"/>
  <unicode hex="0066"/>
  <outline>
    <contour>
      <point x="220" y="492" type="line"/>
      <point x="250" y="508"/>
      <point x="267" y="540"/>
      <point x="269" y="545" type="curve"/>
      <point x="248" y="563"/>
      <point x="223" y="578"/>
      <point x="205" y="579" type="curve"/>
      <point x="206" y="567"/>
      <point x="206" y="553"/>
      <point x="206" y="539" type="curve" smooth="yes"/>
      <point x="206" y="489"/>
      <point x="202" y="431"/>
      <point x="202" y="380" type="curve"/>
      <point x="326" y="380" type="line"/>
      <point x="318" y="339" type="line"/>
      <point x="200" y="339" type="line"/>
      <point x="200" y="-254" type="line"/>
      <point x="83" y="-254" type="line"/>
      <point x="83" y="336" type="line"/>
      <point x="23" y="336" type="line"/>
      <point x="32" y="380" type="line"/>
      <point x="84" y="380" type="line"/>
      <point x="84" y="416"/>
      <point x="86" y="473"/>
      <point x="86" y="508" type="curve" smooth="yes"/>
      <point x="86" y="536"/>
      <point x="193" y="659"/>
      <point x="242" y="659" type="curve" smooth="yes"/>
      <point x="272" y="659"/>
      <point x="340" y="614"/>
      <point x="367" y="576" type="curve"/>
      <point x="364" y="559"/>
      <point x="291" y="490"/>
      <point x="239" y="467" type="curve"/>
    </contour>
  </outline>
</glyph>
<glyph name="g" format="1">
  <advance width="426"/>
  <unicode hex="0067"/>
  <outline>
    <contour>
      <point x="200" y="93" type="curve" smooth="yes"/>
      <point x="164" y="93"/>
      <point x="136" y="97"/>
      <point x="116" y="105" type="curve"/>
      <point x="113" y="98" type="line"/>
      <point x="118" y="94" type="line"/>
      <point x="134" y="80"/>
      <point x="169" y="50"/>
      <point x="265" y="50" type="curve"/>
      <point x="363" y="50"/>
      <point x="428" y="9"/>
      <point x="447" y="-61" type="curve"/>
      <point x="447" y="-102"/>
      <point x="304" y="-244"/>
      <point x="262" y="-255" type="curve"/>
      <point x="257" y="-257"/>
      <point x="247" y="-257"/>
      <point x="237" y="-257" type="curve" smooth="yes"/>
      <point x="153" y="-257"/>
      <point x="25" y="-175"/>
      <point x="25" y="-86" type="curve" smooth="yes"/>
      <point x="25" y="-66"/>
      <point x="74" y="-23"/>
      <point x="99" y="-6" type="curve"/>
      <point x="111" y="-2" type="line"/>
      <point x="62" y="9"/>
      <point x="22" y="50"/>
      <point x="18" y="76" type="curve" smooth="yes"/>
      <point x="18" y="80" type="line" smooth="yes"/>
      <point x="18" y="96"/>
      <point x="45" y="117"/>
      <point x="78" y="134" type="curve"/>
      <point x="50" y="163"/>
      <point x="45" y="193"/>
      <point x="45" y="223" type="curve" smooth="yes"/>
      <point x="45" y="246" type="line" smooth="yes"/>
      <point x="45" y="284"/>
      <point x="185" y="380"/>
      <point x="238" y="380" type="curve" smooth="yes"/>
      <point x="363" y="380"/>
      <point x="397" y="327"/>
      <point x="397" y="266" type="curve" smooth="yes"/>
      <point x="397" y="254"/>
      <point x="394" y="238"/>
      <point x="393" y="225" type="curve"/>
      <point x="388" y="188"/>
      <point x="254" y="93"/>
    </contour>
    <contour>
      <point x="145" y="-20" type="curve"/>
      <point x="138" y="-30"/>
      <point x="135" y="-44"/>
      <point x="135" y="-62" type="curve" smooth="yes"/>
      <point x="135" y="-117"/>
      <point x="193" y="-159"/>
      <point x="255" y="-159" type="curve" smooth="yes"/>
      <point x="274" y="-159"/>
      <point x="295" y="-154"/>
      <point x="308" y="-144" type="curve"/>
      <point x="319" y="-128"/>
      <point x="323" y="-113"/>
      <point x="323" y="-95" type="curve" smooth="yes"/>
      <point x="323" y="-40"/>
      <point x="255" y="-10"/>
      <point x="193" y="-10" type="curve" smooth="yes"/>
      <point x="174" y="-10"/>
      <point x="154" y="-13"/>
    </contour>
    <contour>
      <point x="260" y="156" type="curve"/>
      <point x="267" y="170"/>
      <point x="270" y="190"/>
      <point x="270" y="214" type="curve" smooth="yes"/>
      <point x="270" y="270"/>
      <point x="248" y="329"/>
      <point x="203" y="329" type="curve" smooth="yes"/>
      <point x="194" y="329"/>
      <point x="181" y="325"/>
      <point x="172" y="317" type="curve"/>
      <point x="161" y="301"/>
      <point x="156" y="280"/>
      <point x="156" y="257" type="curve" smooth="yes"/>
      <point x="156" y="202"/>
      <point x="190" y="148"/>
      <point x="237" y="148" type="curve" smooth="yes"/>
      <point x="245" y="148"/>
      <point x="256" y="150"/>
    </contour>
    <contour>
      <point x="221" y="368" type="move" name="top"/>
    </contour>
  </outline>
</glyph>
<glyph name="h" format="1">
  <advance width="429"/>
  <unicode hex="0068"/>
  <outline>
    <contour>
      <point x="46" y="0" type="line"/>
      <point x="51" y="34"/>
      <point x="56" y="430"/>
      <point x="56" y="481" type="curve" smooth="yes"/>
      <point x="56" y="523"/>
      <point x="56" y="573"/>
      <point x="49" y="586" type="curve"/>
      <point x="110" y="664" type="line"/>
      <point x="159" y="664"/>
      <point x="167" y="543"/>
      <point x="167" y="394" type="curve" smooth="yes"/>
      <point x="167" y="358" type="line"/>
      <point x="189" y="371"/>
      <point x="216" y="381"/>
      <point x="244" y="381" type="curve" smooth="yes"/>
      <point x="289" y="381"/>
      <point x="391" y="326"/>
      <point x="393" y="262" type="curve"/>
      <point x="393" y="262"/>
      <point x="391" y="195"/>
      <point x="391" y="136" type="curve" smooth="yes"/>
      <point x="391" y="103"/>
      <point x="393" y="13"/>
      <point x="393" y="0" type="curve"/>
      <point x="271" y="0" type="line"/>
      <point x="276" y="30"/>
      <point x="279" y="118"/>
      <point x="279" y="150" type="curve" smooth="yes"/>
      <point x="279" y="228"/>
      <point x="257" y="293"/>
      <point x="208" y="307" type="curve"/>
      <point x="194" y="307" type="line" smooth="yes"/>
      <point x="181" y="307"/>
      <point x="167" y="304"/>
      <point x="167" y="298" type="curve"/>
      <point x="167" y="143" type="line" smooth="yes"/>
      <point x="167" y="93"/>
      <point x="167" y="44"/>
      <point x="168" y="2" type="curve"/>
    </contour>
    <contour>
      <point x="204" y="626" type="move" name="top"/>
    </contour>
  </outline>
</glyph>
<glyph name="i" format="1">
  <advance width="230"/>
  <unicode hex="0069"/>
  <outline>
    <contour>
      <point x="116" y="567" type="curve" smooth="yes"/>
      <point x="162" y="567"/>
      <point x="174" y="542"/>
      <point x="174" y="524" type="curve" smooth="yes"/>
      <point x="174" y="502"/>
      <point x="147" y="481"/>
      <point x="113" y="481" type="curve" smooth="yes"/>
      <point x="77" y="481"/>
      <point x="54" y="502"/>
      <point x="54" y="524" type="curve" smooth="yes"/>
      <point x="54" y="550"/>
      <point x="83" y="567"/>
    </contour>
    <contour>
      <point x="56" y="0" type="line"/>
      <point x="61" y="34"/>
      <point x="66" y="145"/>
      <point x="66" y="197" type="curve" smooth="yes"/>
      <point x="66" y="240"/>
      <point x="66" y="289"/>
      <point x="59" y="302" type="curve"/>
      <point x="120" y="381" type="line"/>
      <point x="167" y="381"/>
      <point x="178" y="339"/>
      <point x="178" y="260" type="curve" smooth="yes"/>
      <point x="178" y="198" type="line" smooth="yes"/>
      <point x="178" y="171"/>
      <point x="177" y="141"/>
      <point x="177" y="108" type="curve" smooth="yes"/>
      <point x="177" y="75"/>
      <point x="177" y="40"/>
      <point x="178" y="2" type="curve"/>
    </contour>
    <contour>
      <point x="117" y="394" type="move" name="top"/>
    </contour>
  </outline>
</glyph>
<glyph name="j" format="1">
  <advance width="258"/>
  <unicode hex="006A"/>
  <outline>
    <contour>
      <point x="-90" y="-175" type="curve"/>
      <point x="-88" y="-171"/>
      <point x="-50" y="-127"/>
      <point x="-22" y="-105" type="curve"/>
      <point x="-7" y="-137"/>
      <point x="52" y="-176"/>
      <point x="66" y="-176" type="curve" smooth="yes"/>
      <point x="68" y="-176"/>
      <point x="69" y="-176"/>
      <point x="69" y="-175" type="curve"/>
      <point x="73" y="-78"/>
      <point x="78" y="153"/>
      <point x="78" y="197" type="curve" smooth="yes"/>
      <point x="78" y="240"/>
      <point x="78" y="289"/>
      <point x="71" y="302" type="curve"/>
      <point x="131" y="380"/>
      <point x="132" y="381"/>
      <point x="132" y="381" type="curve"/>
      <point x="181" y="381"/>
      <point x="191" y="302"/>
      <point x="191" y="193" type="curve" smooth="yes"/>
      <point x="191" y="113"/>
      <point x="189" y="52"/>
      <point x="189" y="-43" type="curve" smooth="yes"/>
      <point x="189" y="-54"/>
      <point x="190" y="-65"/>
      <point x="190" y="-76" type="curve" smooth="yes"/>
      <point x="190" y="-108" type="line" smooth="yes"/>
      <point x="190" y="-135"/>
      <point x="85" y="-258"/>
      <point x="40" y="-258" type="curve" smooth="yes"/>
      <point x="34" y="-258"/>
      <point x="29" y="-258"/>
      <point x="27" y="-257" type="curve"/>
      <point x="5" y="-252"/>
      <point x="-88" y="-197"/>
    </contour>
    <contour>
      <point x="128" y="567" type="curve" smooth="yes"/>
      <point x="174" y="567"/>
      <point x="186" y="542"/>
      <point x="186" y="524" type="curve" smooth="yes"/>
      <point x="186" y="502"/>
      <point x="159" y="481"/>
      <point x="125" y="481" type="curve" smooth="yes"/>
      <point x="89" y="481"/>
      <point x="66" y="502"/>
      <point x="66" y="524" type="curve" smooth="yes"/>
      <point x="66" y="550"/>
      <point x="95" y="567"/>
    </contour>
    <contour>
      <point x="129" y="385" type="move" name="top"/>
    </contour>
  </outline>
</glyph>
<glyph name="k" format="1">
  <advance width="426"/>
  <unicode hex="006B"/>
  <outline>
    <contour>
      <point x="305" y="376" type="line"/>
      <point x="321" y="370"/>
      <point x="369" y="294"/>
      <point x="370" y="249" type="curve"/>
      <point x="306" y="241" type="line"/>
      <point x="301" y="276" type="line"/>
      <point x="288" y="267"/>
      <point x="267" y="246"/>
      <point x="247" y="225" type="curve"/>
      <point x="312" y="149" type="line"/>
      <point x="331" y="123"/>
      <point x="352" y="98"/>
      <point x="358" y="93" type="curve"/>
      <point x="363" y="97"/>
      <point x="368" y="115"/>
      <point x="372" y="135" type="curve"/>
      <point x="436" y="119" type="line"/>
      <point x="432" y="80"/>
      <point x="389" y="17"/>
      <point x="373" y="1" type="curve"/>
      <point x="364" y="-5"/>
      <point x="355" y="-8"/>
      <point x="344" y="-8" type="curve" smooth="yes"/>
      <point x="300" y="-8"/>
      <point x="274" y="44"/>
      <point x="189" y="154" type="curve"/>
      <point x="178" y="141"/>
      <point x="165" y="127"/>
      <point x="159" y="114" type="curve"/>
      <point x="159" y="75"/>
      <point x="159" y="35"/>
      <point x="160" y="2" type="curve"/>
      <point x="38" y="2" type="line"/>
      <point x="43" y="34"/>
      <point x="48" y="430"/>
      <point x="48" y="481" type="curve" smooth="yes"/>
      <point x="48" y="523"/>
      <point x="48" y="573"/>
      <point x="41" y="586" type="curve"/>
      <point x="102" y="664" type="line"/>
      <point x="154" y="664"/>
      <point x="159" y="532"/>
      <point x="159" y="373" type="curve" smooth="yes"/>
      <point x="159" y="263" type="line"/>
      <point x="221" y="331"/>
      <point x="268" y="376"/>
      <point x="295" y="376" type="curve" smooth="yes"/>
    </contour>
    <contour>
      <point x="196" y="2" type="move" name="bottom"/>
    </contour>
  </outline>
</glyph>
<glyph name="l" format="1">
  <advance width="251"/>
  <unicode hex="006C"/>
  <outline>
    <contour>
      <point x="66" y="0" type="line"/>
      <point x="71" y="34"/>
      <point x="76" y="430"/>
      <point x="76" y="481" type="curve" smooth="yes"/>
      <point x="76" y="523"/>
      <point x="76" y="573"/>
      <point x="69" y="586" type="curve"/>
      <point x="130" y="664" type="line"/>
      <point x="180" y="664"/>
      <point x="188" y="534"/>
      <point x="188" y="376" type="curve" smooth="yes"/>
      <point x="188" y="335"/>
      <point x="187" y="293"/>
      <point x="187" y="251" type="curve" smooth="yes"/>
      <point x="187" y="126" type="line" smooth="yes"/>
      <point x="187" y="82"/>
      <point x="187" y="40"/>
      <point x="188" y="2" type="curve"/>
    </contour>
    <contour>
      <point x="143" y="640" type="move" name="top"/>
    </contour>
  </outline>
</glyph>
<glyph name="m" format="1">
  <advance width="672"/>
  <unicode hex="006D"/>
  <outline>
    <contour>
      <point x="56" y="0" type="line"/>
      <point x="61" y="34"/>
      <point x="66" y="145"/>
      <point x="66" y="197" type="curve" smooth="yes"/>
      <point x="66" y="240"/>
      <point x="66" y="289"/>
      <point x="59" y="302" type="curve"/>
      <point x="120" y="381" type="line"/>
      <point x="149" y="381"/>
      <point x="167" y="370"/>
      <point x="172" y="348" type="curve"/>
      <point x="194" y="367"/>
      <point x="220" y="381"/>
      <point x="249" y="381" type="curve" smooth="yes"/>
      <point x="284" y="381"/>
      <point x="337" y="353"/>
      <point x="365" y="330" type="curve"/>
      <point x="393" y="355"/>
      <point x="432" y="381"/>
      <point x="477" y="381" type="curve" smooth="yes"/>
      <point x="522" y="381"/>
      <point x="624" y="326"/>
      <point x="626" y="262" type="curve"/>
      <point x="626" y="262"/>
      <point x="624" y="195"/>
      <point x="624" y="136" type="curve" smooth="yes"/>
      <point x="624" y="103"/>
      <point x="626" y="13"/>
      <point x="626" y="0" type="curve"/>
      <point x="504" y="0" type="line"/>
      <point x="509" y="30"/>
      <point x="512" y="118"/>
      <point x="512" y="150" type="curve" smooth="yes"/>
      <point x="512" y="227"/>
      <point x="492" y="293"/>
      <point x="441" y="307" type="curve"/>
      <point x="427" y="307" type="line" smooth="yes"/>
      <point x="413" y="307"/>
      <point x="398" y="303"/>
      <point x="394" y="296" type="curve"/>
      <point x="402" y="273"/>
      <point x="403" y="233"/>
      <point x="403" y="194" type="curve" smooth="yes"/>
      <point x="403" y="136" type="line" smooth="yes"/>
      <point x="403" y="102"/>
      <point x="403" y="11"/>
      <point x="404" y="0" type="curve"/>
      <point x="281" y="0" type="line"/>
      <point x="286" y="30"/>
      <point x="289" y="118"/>
      <point x="289" y="150" type="curve" smooth="yes"/>
      <point x="289" y="231"/>
      <point x="283" y="299"/>
      <point x="212" y="303" type="curve" smooth="yes"/>
      <point x="196" y="303"/>
      <point x="182" y="295"/>
      <point x="177" y="285" type="curve"/>
      <point x="177" y="122" type="line" smooth="yes"/>
      <point x="177" y="85"/>
      <point x="177" y="46"/>
      <point x="178" y="2" type="curve"/>
    </contour>
  </outline>
</glyph>
<glyph name="o" format="1">
  <advance width="404"/>
  <unicode hex="006F"/>
  <outline>
    <contour>
      <point x="243" y="69" type="curve"/>
      <point x="249" y="86"/>
      <point x="252" y="109"/>
      <point x="252" y="134" type="curve" smooth="yes"/>
      <point x="252" y="214"/>
      <point x="223" y="304"/>
      <point x="173" y="304" type="curve" smooth="yes"/>
      <point x="165" y="304"/>
      <point x="154" y="300"/>
      <point x="144" y="289" type="curve"/>
      <point x="134" y="271"/>
      <point x="130" y="247"/>
      <point x="130" y="218" type="curve" smooth="yes"/>
      <point x="130" y="139"/>
      <point x="170" y="57"/>
      <point x="222" y="57" type="curve" smooth="yes"/>
      <point x="228" y="57"/>
      <point x="239" y="61"/>
    </contour>
    <contour>
      <point x="178" y="-3" type="curve" smooth="yes"/>
      <point x="28" y="-3"/>
      <point x="19" y="99"/>
      <point x="19" y="198" type="curve" smooth="yes"/>
      <point x="19" y="245"/>
      <point x="152" y="373"/>
      <point x="207" y="373" type="curve" smooth="yes"/>
      <point x="335" y="373"/>
      <point x="369" y="298"/>
      <point x="369" y="215" type="curve" smooth="yes"/>
      <point x="369" y="201"/>
      <point x="367" y="184"/>
      <point x="366" y="171" type="curve" smooth="yes"/>
      <point x="362" y="122"/>
      <point x="232" y="-3"/>
    </contour>
    <contour>
      <point x="205" y="370" type="move" name="top"/>
    </contour>
  </outline>
</glyph>
<glyph name="p" format="1">
  <advance width="402"/>
  <unicode hex="0070"/>
  <outline>
    <contour>
      <point x="45" y="-255" type="line"/>
      <point x="50" y="-222"/>
      <point x="54" y="145"/>
      <point x="54" y="197" type="curve" smooth="yes"/>
      <point x="54" y="240"/>
      <point x="54" y="289"/>
      <point x="47" y="302" type="curve"/>
      <point x="108" y="381" type="line"/>
      <point x="135" y="381"/>
      <point x="150" y="363"/>
      <point x="157" y="332" type="curve"/>
      <point x="187" y="358"/>
      <point x="225" y="378"/>
      <point x="240" y="378" type="curve" smooth="yes"/>
      <point x="334" y="378"/>
      <point x="375" y="277"/>
      <point x="375" y="203" type="curve" smooth="yes"/>
      <point x="375" y="188"/>
      <point x="374" y="173"/>
      <point x="369" y="158" type="curve" smooth="yes"/>
      <point x="356" y="118"/>
      <point x="254" y="-3"/>
      <point x="202" y="-3" type="curve"/>
      <point x="189" y="0"/>
      <point x="177" y="4"/>
      <point x="165" y="11" type="curve"/>
      <point x="165" y="-155" type="line" smooth="yes"/>
      <point x="165" y="-200"/>
      <point x="165" y="-214"/>
      <point x="166" y="-253" type="curve"/>
    </contour>
    <contour>
      <point x="180" y="283" type="curve"/>
      <point x="170" y="277"/>
      <point x="165" y="263"/>
      <point x="165" y="248" type="curve" smooth="yes"/>
      <point x="165" y="175" type="line"/>
      <point x="179" y="124"/>
      <point x="211" y="79"/>
      <point x="243" y="79" type="curve" smooth="yes"/>
      <point x="249" y="79"/>
      <point x="259" y="83"/>
      <point x="266" y="92" type="curve"/>
      <point x="274" y="108"/>
      <point x="278" y="128"/>
      <point x="278" y="153" type="curve" smooth="yes"/>
      <point x="278" y="221"/>
      <point x="246" y="293"/>
      <point x="204" y="293" type="curve" smooth="yes"/>
      <point x="201" y="293"/>
      <point x="192" y="289"/>
    </contour>
  </outline>
</glyph>
<glyph name="q" format="1">
  <advance width="389"/>
  <unicode hex="0071"/>
  <outline>
    <contour>
      <point x="362" y="373" type="line"/>
      <point x="357" y="341"/>
      <point x="351" y="-21"/>
      <point x="351" y="-71" type="curve" smooth="yes"/>
      <point x="351" y="-103" type="line" smooth="yes"/>
      <point x="351" y="-134"/>
      <point x="351" y="-163"/>
      <point x="354" y="-175" type="curve"/>
      <point x="381" y="-147" type="line"/>
      <point x="415" y="-181" type="line"/>
      <point x="389" y="-216"/>
      <point x="305" y="-252"/>
      <point x="282" y="-256" type="curve"/>
      <point x="239" y="-256"/>
      <point x="239" y="-158"/>
      <point x="239" y="2" type="curve" smooth="yes"/>
      <point x="239" y="32" type="line"/>
      <point x="217" y="14"/>
      <point x="191" y="-2"/>
      <point x="166" y="-3" type="curve"/>
      <point x="72" y="-1"/>
      <point x="31" y="96"/>
      <point x="31" y="171" type="curve" smooth="yes"/>
      <point x="31" y="184"/>
      <point x="33" y="200"/>
      <point x="37" y="215" type="curve" smooth="yes"/>
      <point x="47" y="253"/>
      <point x="149" y="376"/>
      <point x="196" y="376" type="curve" smooth="yes"/>
      <point x="205" y="376" type="line"/>
      <point x="224" y="371"/>
      <point x="248" y="359"/>
      <point x="270" y="344" type="curve"/>
      <point x="282" y="370" type="line"/>
    </contour>
    <contour>
      <point x="228" y="90" type="curve"/>
      <point x="235" y="92"/>
      <point x="237" y="106"/>
      <point x="240" y="118" type="curve"/>
      <point x="240" y="157" type="line" smooth="yes"/>
      <point x="240" y="170"/>
      <point x="241" y="184"/>
      <point x="241" y="198" type="curve"/>
      <point x="227" y="249"/>
      <point x="196" y="294"/>
      <point x="163" y="294" type="curve" smooth="yes"/>
      <point x="157" y="294"/>
      <point x="147" y="290"/>
      <point x="140" y="281" type="curve"/>
      <point x="132" y="265"/>
      <point x="129" y="243"/>
      <point x="129" y="220" type="curve" smooth="yes"/>
      <point x="129" y="152"/>
      <point x="161" y="80"/>
      <point x="202" y="80" type="curve" smooth="yes"/>
      <point x="206" y="80"/>
      <point x="215" y="84"/>
    </contour>
  </outline>
</glyph>
<glyph name="t" format="1">
  <advance width="323"/>
  <unicode hex="0074"/>
  <outline>
    <contour>
      <point x="19" y="380" type="line"/>
      <point x="67" y="380" type="line"/>
      <point x="67" y="478" type="line"/>
      <point x="195" y="478" type="line"/>
      <point x="195" y="476"/>
      <point x="194" y="471"/>
      <point x="193" y="465" type="curve" smooth="yes"/>
      <point x="183" y="380" type="line"/>
      <point x="313" y="380" type="line"/>
      <point x="304" y="337" type="line"/>
      <point x="179" y="337" type="line"/>
      <point x="175" y="293"/>
      <point x="172" y="238"/>
      <point x="172" y="194" type="curve" smooth="yes"/>
      <point x="172" y="126"/>
      <point x="183" y="71"/>
      <point x="188" y="71" type="curve" smooth="yes"/>
      <point x="196" y="71"/>
      <point x="229" y="104"/>
      <point x="242" y="117" type="curve" smooth="yes"/>
      <point x="262" y="137" type="line"/>
      <point x="295" y="104" type="line"/>
      <point x="245" y="35"/>
      <point x="147" y="-3"/>
      <point x="125" y="-3" type="curve" smooth="yes"/>
      <point x="64" y="-3"/>
      <point x="58" y="69"/>
      <point x="58" y="157" type="curve" smooth="yes"/>
      <point x="58" y="216"/>
      <point x="60" y="279"/>
      <point x="64" y="337" type="curve"/>
      <point x="10" y="337" type="line"/>
    </contour>
    <contour>
      <point x="120" y="11" type="move" name="bottom"/>
    </contour>
  </outline>
</glyph>
<glyph name="v" format="1">
  <advance width="388"/>
  <unicode hex="0076"/>
  <outline>
    <contour>
      <point x="180" y="-29" type="curve"/>
      <point x="168" y="16"/>
      <point x="121" y="145"/>
      <point x="101" y="191" type="curve" smooth="yes"/>
      <point x="81" y="238"/>
      <point x="64" y="276"/>
      <point x="55" y="287" type="curve"/>
      <point x="50" y="281"/>
      <point x="43" y="265"/>
      <point x="36" y="249" type="curve"/>
      <point x="-15" y="280" type="line"/>
      <point x="1" y="319"/>
      <point x="71" y="372"/>
      <point x="93" y="379" type="curve"/>
      <point x="104" y="380" type="line"/>
      <point x="141" y="380"/>
      <point x="163" y="328"/>
      <point x="200" y="241" type="curve" smooth="yes"/>
      <point x="222" y="189" type="line"/>
      <point x="229" y="207"/>
      <point x="278" y="342"/>
      <point x="278" y="370" type="curve" smooth="yes"/>
      <point x="278" y="373"/>
      <point x="277" y="375"/>
      <point x="276" y="375" type="curve" smooth="yes"/>
      <point x="276" y="375"/>
      <point x="276" y="375"/>
      <point x="345" y="383" type="curve"/>
      <point x="364" y="377"/>
      <point x="372" y="371"/>
      <point x="372" y="365" type="curve" smooth="yes"/>
      <point x="372" y="335"/>
      <point x="329" y="245"/>
      <point x="272" y="80" type="curve"/>
      <point x="274" y="73"/>
      <point x="275" y="70"/>
      <point x="275" y="68" type="curve" smooth="yes"/>
      <point x="275" y="68"/>
      <point x="274" y="68"/>
    </contour>
  </outline>
</glyph>
<glyph name="w" format="1">
  <advance width="569"/>
  <unicode hex="0077"/>
  <outline>
    <contour>
      <point x="377" y="-32" type="line"/>
      <point x="366" y="9"/>
      <point x="330" y="112"/>
      <point x="308" y="168" type="curve"/>
      <point x="298" y="142"/>
      <point x="287" y="112"/>
      <point x="275" y="76" type="curve"/>
      <point x="276" y="74"/>
      <point x="278" y="73"/>
      <point x="279" y="70" type="curve"/>
      <point x="182" y="-30" type="line"/>
      <point x="171" y="13"/>
      <point x="124" y="146"/>
      <point x="104" y="193" type="curve"/>
      <point x="87" y="232"/>
      <point x="69" y="272"/>
      <point x="59" y="286" type="curve"/>
      <point x="54" y="280"/>
      <point x="48" y="266"/>
      <point x="42" y="248" type="curve"/>
      <point x="-11" y="280" type="line"/>
      <point x="6" y="322"/>
      <point x="81" y="375"/>
      <point x="100" y="378" type="curve"/>
      <point x="108" y="379" type="line"/>
      <point x="144" y="379"/>
      <point x="164" y="336"/>
      <point x="200" y="248" type="curve" smooth="yes"/>
      <point x="226" y="184" type="line"/>
      <point x="246" y="242"/>
      <point x="254" y="255"/>
      <point x="258" y="269" type="curve"/>
      <point x="247" y="287" type="line"/>
      <point x="275" y="371" type="line"/>
      <point x="283" y="379"/>
      <point x="292" y="379"/>
      <point x="301" y="379" type="curve" smooth="yes"/>
      <point x="337" y="379"/>
      <point x="355" y="338"/>
      <point x="387" y="261" type="curve"/>
      <point x="409" y="209" type="line"/>
      <point x="423" y="247" type="line" smooth="yes"/>
      <point x="436" y="282"/>
      <point x="454" y="346"/>
      <point x="455" y="369" type="curve" smooth="yes"/>
      <point x="455" y="373" type="line"/>
      <point x="524" y="382" type="line"/>
      <point x="543" y="377"/>
      <point x="553" y="370"/>
      <point x="553" y="363" type="curve" smooth="yes"/>
      <point x="553" y="332"/>
      <point x="512" y="253"/>
      <point x="458" y="98" type="curve"/>
      <point x="471" y="68" type="line"/>
    </contour>
    <contour>
      <point x="305" y="367" type="move" name="top"/>
    </contour>
  </outline>
</glyph>
<glyph name="x" format="1">
  <advance width="361"/>
  <unicode hex="0078"/>
  <outline>
    <contour>
      <point x="209" y="3" type="line"/>
      <point x="204" y="24"/>
      <point x="185" y="56"/>
      <point x="168" y="88" type="curve" smooth="yes"/>
      <point x="155" y="112" type="line"/>
      <point x="131" y="77"/>
      <point x="96" y="22"/>
      <point x="94" y="0" type="curve"/>
      <point x="11" y="0" type="line"/>
      <point x="-2" y="8"/>
      <point x="-6" y="12"/>
      <point x="-6" y="14" type="curve" smooth="yes"/>
      <point x="-6" y="28"/>
      <point x="38" y="76"/>
      <point x="116" y="187" type="curve"/>
      <point x="87" y="231"/>
      <point x="42" y="294"/>
      <point x="29" y="302" type="curve"/>
      <point x="54" y="376" type="line"/>
      <point x="63" y="385"/>
      <point x="69" y="385"/>
      <point x="80" y="385" type="curve" smooth="yes"/>
      <point x="110" y="385"/>
      <point x="148" y="341"/>
      <point x="190" y="268" type="curve"/>
      <point x="215" y="306"/>
      <point x="244" y="355"/>
      <point x="244" y="374" type="curve"/>
      <point x="329" y="374" type="line"/>
      <point x="341" y="365"/>
      <point x="348" y="360"/>
      <point x="348" y="358" type="curve" smooth="yes"/>
      <point x="348" y="352"/>
      <point x="286" y="270"/>
      <point x="232" y="192" type="curve"/>
      <point x="330" y="3" type="line"/>
    </contour>
  </outline>
</glyph>
<glyph name="y" format="1">
  <advance width="394"/>
  <unicode hex="0079"/>
  <outline>
    <contour>
      <point x="49" y="-254" type="line"/>
      <point x="55" y="-239"/>
      <point x="66" y="-217"/>
      <point x="79" y="-188" type="curve" smooth="yes"/>
      <point x="176" y="28" type="line"/>
      <point x="159" y="80"/>
      <point x="126" y="168"/>
      <point x="111" y="202" type="curve" smooth="yes"/>
      <point x="91" y="246"/>
      <point x="74" y="282"/>
      <point x="65" y="291" type="curve"/>
      <point x="61" y="286"/>
      <point x="53" y="273"/>
      <point x="45" y="255" type="curve"/>
      <point x="-6" y="284" type="line"/>
      <point x="9" y="323"/>
      <point x="90" y="386"/>
      <point x="116" y="386" type="curve" smooth="yes"/>
      <point x="162" y="386"/>
      <point x="178" y="316"/>
      <point x="239" y="178" type="curve"/>
      <point x="275" y="268"/>
      <point x="301" y="344"/>
      <point x="301" y="376" type="curve"/>
      <point x="375" y="389" type="line"/>
      <point x="392" y="389"/>
      <point x="401" y="385"/>
      <point x="401" y="380" type="curve" smooth="yes"/>
      <point x="401" y="322"/>
      <point x="231" y="-50"/>
      <point x="153" y="-254" type="curve"/>
    </contour>
    <contour>
      <point x="226" y="378" type="move" name="top"/>
    </contour>
  </outline>
</glyph>
<glyph name="braceleft" format="1">
  <advance width="348"/>
  <unicode hex="007B"/>
  <outline>
    <contour>
      <point x="45" y="247" type="line"/>
      <point x="49" y="252" type="line"/>
      <point x="71" y="282"/>
      <point x="79" y="358"/>
      <point x="79" y="437" type="curve" smooth="yes"/>
      <point x="79" y="515"/>
      <point x="70" y="594"/>
      <point x="63" y="633" type="curve"/>
      <point x="60" y="643"/>
      <point x="52" y="653"/>
      <point x="46" y="663" type="curve"/>
      <point x="129" y="664"/>
      <point x="176" y="664"/>
      <point x="179" y="664" type="curve" smooth="yes"/>
      <point x="275" y="664"/>
      <point x="322" y="662"/>
      <point x="322" y="642" type="curve"/>
      <point x="261" y="602" type="line"/>
      <point x="231" y="618"/>
      <point x="202" y="620"/>
      <point x="178" y="621" type="curve"/>
      <point x="180" y="552"/>
      <point x="188" y="489"/>
      <point x="188" y="433" type="curve" smooth="yes"/>
      <point x="188" y="357"/>
      <point x="171" y="296"/>
      <point x="105" y="243" type="curve"/>
      <point x="172" y="189"/>
      <point x="188" y="129"/>
      <point x="188" y="53" type="curve" smooth="yes"/>
      <point x="188" y="-3"/>
      <point x="180" y="-67"/>
      <point x="178" y="-134" type="curve"/>
      <point x="202" y="-133"/>
      <point x="231" y="-131"/>
      <point x="261" y="-115" type="curve"/>
      <point x="322" y="-156" type="line"/>
      <point x="322" y="-176"/>
      <point x="275" y="-178"/>
      <point x="179" y="-178" type="curve" smooth="yes"/>
      <point x="47" y="-178" type="line"/>
      <point x="64" y="-148" type="line"/>
      <point x="71" y="-109"/>
      <point x="79" y="-29"/>
      <point x="79" y="49" type="curve" smooth="yes"/>
      <point x="79" y="138"/>
      <point x="70" y="222"/>
      <point x="41" y="245" type="curve"/>
    </contour>
  </outline>
</glyph>
<glyph name="asciitilde" format="1">
  <advance width="495"/>
  <unicode hex="007E"/>
  <outline>
    <contour>
      <point x="206" y="276" type="line"/>
      <point x="243" y="273"/>
      <point x="298" y="211"/>
      <point x="299" y="211" type="curve"/>
      <point x="300" y="209"/>
      <point x="301" y="208"/>
      <point x="301" y="208" type="curve"/>
      <point x="329" y="216"/>
      <point x="353" y="258"/>
      <point x="368" y="278" type="curve"/>
      <point x="399" y="278"/>
      <point x="411" y="266"/>
      <point x="411" y="266" type="curve"/>
      <point x="408" y="214" type="line"/>
      <point x="367" y="168"/>
      <point x="337" y="147"/>
      <point x="281" y="147" type="curve" smooth="yes"/>
      <point x="264" y="147"/>
      <point x="247" y="160"/>
      <point x="231" y="175" type="curve"/>
      <point x="213" y="192"/>
      <point x="190" y="212"/>
      <point x="192" y="214" type="curve"/>
      <point x="177" y="211"/>
      <point x="137" y="147"/>
      <point x="102" y="147" type="curve" smooth="yes"/>
      <point x="81" y="147"/>
      <point x="79" y="149"/>
      <point x="74" y="157" type="curve"/>
      <point x="77" y="209" type="line"/>
      <point x="101" y="233"/>
      <point x="143" y="276"/>
      <point x="197" y="276" type="curve" smooth="yes"/>
    </contour>
  </outline>
</glyph>
<glyph name="cent" format="1">
  <advance width="369"/>
  <unicode hex="00A2"/>
  <outline>
    <contour>
      <point x="156" y="-65" type="line"/>
      <point x="156" y="-3" type="line"/>
      <point x="65" y="2"/>
      <point x="24" y="101"/>
      <point x="24" y="177" type="curve" smooth="yes"/>
      <point x="24" y="212"/>
      <point x="30" y="271"/>
      <point x="155" y="369" type="curve"/>
      <point x="155" y="420" type="line"/>
      <point x="204" y="448" type="line"/>
      <point x="217" y="448"/>
      <point x="219" y="441"/>
      <point x="219" y="431" type="curve" smooth="yes"/>
      <point x="219" y="423"/>
      <point x="217" y="413"/>
      <point x="217" y="403" type="curve" smooth="yes"/>
      <point x="217" y="394"/>
      <point x="219" y="385"/>
      <point x="224" y="376" type="curve"/>
      <point x="260" y="360"/>
      <point x="327" y="307"/>
      <point x="327" y="302" type="curve" smooth="yes"/>
      <point x="327" y="297"/>
      <point x="283" y="248"/>
      <point x="262" y="231" type="curve"/>
      <point x="249" y="249"/>
      <point x="237" y="263"/>
      <point x="227" y="271" type="curve"/>
      <point x="227" y="75" type="line"/>
      <point x="260" y="75"/>
      <point x="291" y="107"/>
      <point x="310" y="128" type="curve"/>
      <point x="344" y="94" type="line"/>
      <point x="328" y="74"/>
      <point x="275" y="43"/>
      <point x="226" y="20" type="curve"/>
      <point x="226" y="-71" type="line"/>
    </contour>
    <contour>
      <point x="112" y="268" type="curve"/>
      <point x="110" y="253"/>
      <point x="109" y="238"/>
      <point x="109" y="224" type="curve" smooth="yes"/>
      <point x="109" y="162"/>
      <point x="129" y="121"/>
      <point x="158" y="98" type="curve"/>
      <point x="158" y="214"/>
      <point x="156" y="260"/>
      <point x="156" y="303" type="curve"/>
      <point x="135" y="303"/>
      <point x="119" y="293"/>
    </contour>
  </outline>
</glyph>
<glyph name="sterling" format="1">
  <advance width="505"/>
  <unicode hex="00A3"/>
  <outline>
    <contour>
      <point x="132" y="317" type="line"/>
      <point x="191" y="317" type="line"/>
      <point x="191" y="338"/>
      <point x="194" y="355"/>
      <point x="196" y="384" type="curve"/>
      <point x="219" y="434"/>
      <point x="308" y="537"/>
      <point x="357" y="537" type="curve"/>
      <point x="379" y="534"/>
      <point x="397" y="525"/>
      <point x="413" y="515" type="curve"/>
      <point x="423" y="508" type="line"/>
      <point x="458" y="483"/>
      <point x="489" y="456"/>
      <point x="489" y="454" type="curve" smooth="yes"/>
      <point x="489" y="450"/>
      <point x="443" y="402"/>
      <point x="420" y="386" type="curve"/>
      <point x="397" y="419"/>
      <point x="349" y="456"/>
      <point x="320" y="456" type="curve" smooth="yes"/>
      <point x="303" y="456"/>
      <point x="292" y="436"/>
      <point x="292" y="383" type="curve" smooth="yes"/>
      <point x="292" y="356"/>
      <point x="296" y="335"/>
      <point x="296" y="321" type="curve" smooth="yes"/>
      <point x="296" y="317" type="line"/>
      <point x="323" y="317"/>
      <point x="345" y="319"/>
      <point x="406" y="319" type="curve"/>
      <point x="371" y="265" type="line"/>
      <point x="327" y="265"/>
      <point x="318" y="267"/>
      <point x="302" y="267" type="curve"/>
      <point x="298" y="266" type="line"/>
      <point x="290" y="195"/>
      <point x="251" y="116"/>
      <point x="190" y="61" type="curve"/>
      <point x="227" y="57"/>
      <point x="287" y="56"/>
      <point x="319" y="56" type="curve" smooth="yes"/>
      <point x="329" y="56" type="line" smooth="yes"/>
      <point x="355" y="56"/>
      <point x="391" y="56"/>
      <point x="428" y="76" type="curve"/>
      <point x="500" y="22" type="line"/>
      <point x="500" y="3"/>
      <point x="454" y="1"/>
      <point x="360" y="1" type="curve" smooth="yes"/>
      <point x="262" y="1" type="line" smooth="yes"/>
      <point x="244" y="1"/>
      <point x="225" y="2"/>
      <point x="212" y="2" type="curve" smooth="yes"/>
      <point x="176" y="2"/>
      <point x="110" y="1"/>
      <point x="66" y="0" type="curve"/>
      <point x="97" y="69" type="line"/>
      <point x="132" y="64" type="line"/>
      <point x="167" y="95"/>
      <point x="184" y="190"/>
      <point x="188" y="265" type="curve"/>
      <point x="165" y="263"/>
      <point x="151" y="260"/>
      <point x="115" y="260" type="curve"/>
    </contour>
  </outline>
</glyph>
<glyph name="currency" format="1">
  <advance width="485"/>
  <unicode hex="00A4"/>
  <outline>
    <contour>
      <point x="58" y="289" type="curve" smooth="yes"/>
      <point x="58" y="317"/>
      <point x="67" y="345"/>
      <point x="85" y="372" type="curve"/>
      <point x="60" y="404"/>
      <point x="48" y="421"/>
      <point x="40" y="433" type="curve"/>
      <point x="111" y="472" type="line"/>
      <point x="129" y="440"/>
      <point x="135" y="437"/>
      <point x="145" y="425" type="curve"/>
      <point x="169" y="439"/>
      <point x="200" y="447"/>
      <point x="236" y="447" type="curve" smooth="yes"/>
      <point x="269" y="447"/>
      <point x="300" y="440"/>
      <point x="325" y="425" type="curve"/>
      <point x="363" y="470" type="line"/>
      <point x="430" y="434" type="line"/>
      <point x="419" y="416"/>
      <point x="402" y="395"/>
      <point x="383" y="372" type="curve"/>
      <point x="403" y="345"/>
      <point x="411" y="317"/>
      <point x="411" y="289" type="curve" smooth="yes"/>
      <point x="411" y="261"/>
      <point x="402" y="233"/>
      <point x="383" y="204" type="curve"/>
      <point x="426" y="147" type="line"/>
      <point x="433" y="140" type="line"/>
      <point x="361" y="102" type="line"/>
      <point x="322" y="153" type="line"/>
      <point x="299" y="140"/>
      <point x="271" y="134"/>
      <point x="236" y="134" type="curve" smooth="yes"/>
      <point x="201" y="134"/>
      <point x="172" y="140"/>
      <point x="149" y="153" type="curve"/>
      <point x="131" y="132"/>
      <point x="114" y="109"/>
      <point x="109" y="102" type="curve"/>
      <point x="39" y="140" type="line"/>
      <point x="45" y="150"/>
      <point x="66" y="175"/>
      <point x="89" y="204" type="curve"/>
      <point x="69" y="233"/>
      <point x="58" y="262"/>
    </contour>
    <contour>
      <point x="147" y="289" type="curve" smooth="yes"/>
      <point x="147" y="230"/>
      <point x="187" y="183"/>
      <point x="236" y="183" type="curve" smooth="yes"/>
      <point x="284" y="183"/>
      <point x="323" y="230"/>
      <point x="323" y="289" type="curve" smooth="yes"/>
      <point x="323" y="350"/>
      <point x="284" y="398"/>
      <point x="236" y="398" type="curve" smooth="yes"/>
      <point x="187" y="398"/>
      <point x="147" y="350"/>
    </contour>
  </outline>
</glyph>
<glyph name="yen" format="1">
  <advance width="577"/>
  <unicode hex="00A5"/>
  <outline>
    <contour>
      <point x="80" y="169" type="line"/>
      <point x="236" y="169" type="line"/>
      <point x="236" y="201" type="line" smooth="yes"/>
      <point x="236" y="212"/>
      <point x="237" y="223"/>
      <point x="237" y="234" type="curve"/>
      <point x="183" y="232"/>
      <point x="106" y="228"/>
      <point x="78" y="225" type="curve"/>
      <point x="96" y="285" type="line"/>
      <point x="234" y="285" type="line"/>
      <point x="208" y="340"/>
      <point x="172" y="414"/>
      <point x="155" y="442" type="curve" smooth="yes"/>
      <point x="129" y="485"/>
      <point x="78" y="564"/>
      <point x="59" y="573" type="curve"/>
      <point x="120" y="624" type="line"/>
      <point x="132" y="624"/>
      <point x="132" y="626"/>
      <point x="142" y="626" type="curve" smooth="yes"/>
      <point x="204" y="626"/>
      <point x="233" y="527"/>
      <point x="315" y="391" type="curve"/>
      <point x="342" y="443"/>
      <point x="406" y="570"/>
      <point x="406" y="617" type="curve" smooth="yes"/>
      <point x="406" y="620"/>
      <point x="405" y="621"/>
      <point x="404" y="621" type="curve" smooth="yes"/>
      <point x="411" y="621"/>
      <point x="422" y="621"/>
      <point x="481" y="626" type="curve"/>
      <point x="500" y="621"/>
      <point x="509" y="615"/>
      <point x="509" y="608" type="curve" smooth="yes"/>
      <point x="509" y="572"/>
      <point x="441" y="460"/>
      <point x="361" y="285" type="curve"/>
      <point x="482" y="285" type="line"/>
      <point x="526" y="291" type="line"/>
      <point x="490" y="234" type="line"/>
      <point x="457" y="234"/>
      <point x="437" y="236"/>
      <point x="418" y="236" type="curve" smooth="yes"/>
      <point x="389" y="236" type="line" smooth="yes"/>
      <point x="376" y="236"/>
      <point x="381" y="235"/>
      <point x="363" y="235" type="curve"/>
      <point x="363" y="191" type="line"/>
      <point x="362" y="187"/>
      <point x="362" y="182"/>
      <point x="362" y="180" type="curve" smooth="yes"/>
      <point x="362" y="169" type="line"/>
      <point x="508" y="169" type="line"/>
      <point x="474" y="118" type="line"/>
      <point x="433" y="118"/>
      <point x="413" y="119"/>
      <point x="385" y="119" type="curve"/>
      <point x="362" y="119" type="line"/>
      <point x="362" y="71"/>
      <point x="362" y="22"/>
      <point x="363" y="2" type="curve"/>
      <point x="226" y="2" type="line"/>
      <point x="227" y="27"/>
      <point x="228" y="51"/>
      <point x="230" y="75" type="curve" smooth="yes"/>
      <point x="233" y="116" type="line"/>
      <point x="214" y="116" type="line"/>
      <point x="159" y="116"/>
      <point x="89" y="113"/>
      <point x="62" y="110" type="curve"/>
    </contour>
  </outline>
</glyph>
<glyph name="section" format="1">
  <advance width="460"/>
  <unicode hex="00A7"/>
  <outline>
    <contour>
      <point x="59" y="-21" type="curve"/>
      <point x="54" y="-13"/>
      <point x="51" y="-4"/>
      <point x="51" y="6" type="curve" smooth="yes"/>
      <point x="51" y="25"/>
      <point x="58" y="56"/>
      <point x="74" y="90" type="curve"/>
      <point x="131" y="74" type="line"/>
      <point x="130" y="72"/>
      <point x="130" y="64"/>
      <point x="130" y="56" type="curve" smooth="yes"/>
      <point x="130" y="15"/>
      <point x="168" y="-9"/>
      <point x="219" y="-9" type="curve" smooth="yes"/>
      <point x="238" y="-9"/>
      <point x="256" y="2"/>
      <point x="264" y="32" type="curve"/>
      <point x="220" y="113"/>
      <point x="61" y="122"/>
      <point x="61" y="166" type="curve" smooth="yes"/>
      <point x="61" y="214"/>
      <point x="131" y="310"/>
      <point x="178" y="340" type="curve"/>
      <point x="121" y="367"/>
      <point x="62" y="384"/>
      <point x="62" y="401" type="curve"/>
      <point x="73" y="440"/>
      <point x="177" y="557"/>
      <point x="226" y="557" type="curve" smooth="yes"/>
      <point x="233" y="557" type="line"/>
      <point x="280" y="549"/>
      <point x="358" y="518"/>
      <point x="358" y="514" type="curve" smooth="yes"/>
      <point x="358" y="508" type="line" smooth="yes"/>
      <point x="358" y="478"/>
      <point x="350" y="441"/>
      <point x="334" y="407" type="curve"/>
      <point x="276" y="423" type="line"/>
      <point x="277" y="426"/>
      <point x="278" y="432"/>
      <point x="278" y="441" type="curve" smooth="yes"/>
      <point x="278" y="476"/>
      <point x="240" y="496"/>
      <point x="220" y="496" type="curve" smooth="yes"/>
      <point x="205" y="496"/>
      <point x="190" y="483"/>
      <point x="181" y="449" type="curve"/>
      <point x="181" y="444"/>
      <point x="394" y="348"/>
      <point x="394" y="320" type="curve"/>
      <point x="386" y="292"/>
      <point x="333" y="199"/>
      <point x="287" y="148" type="curve"/>
      <point x="339" y="118"/>
      <point x="394" y="85"/>
      <point x="394" y="74" type="curve"/>
      <point x="384" y="35"/>
      <point x="254" y="-78"/>
      <point x="207" y="-78" type="curve" smooth="yes"/>
      <point x="161" y="-78"/>
      <point x="56" y="-25"/>
    </contour>
    <contour>
      <point x="264" y="278" type="line"/>
      <point x="256" y="294"/>
      <point x="241" y="308"/>
      <point x="226" y="318" type="curve"/>
      <point x="204" y="289"/>
      <point x="181" y="239"/>
      <point x="181" y="210" type="curve" smooth="yes"/>
      <point x="181" y="200" type="line"/>
      <point x="188" y="197"/>
      <point x="202" y="189"/>
      <point x="232" y="174" type="curve"/>
      <point x="243" y="194"/>
      <point x="255" y="241"/>
      <point x="261" y="269" type="curve"/>
    </contour>
  </outline>
</glyph>
<glyph name="dieresis" format="1">
  <advance width="402"/>
  <unicode hex="00A8"/>
  <outline>
    <contour>
      <point x="134" y="551" type="curve" smooth="yes"/>
      <point x="180" y="551"/>
      <point x="192" y="524"/>
      <point x="192" y="506" type="curve" smooth="yes"/>
      <point x="192" y="485"/>
      <point x="165" y="464"/>
      <point x="131" y="464" type="curve" smooth="yes"/>
      <point x="95" y="464"/>
      <point x="72" y="486"/>
      <point x="72" y="508" type="curve" smooth="yes"/>
      <point x="72" y="538"/>
      <point x="110" y="551"/>
    </contour>
    <contour>
      <point x="272" y="551" type="curve" smooth="yes"/>
      <point x="318" y="551"/>
      <point x="330" y="524"/>
      <point x="330" y="506" type="curve" smooth="yes"/>
      <point x="330" y="485"/>
      <point x="303" y="464"/>
      <point x="268" y="464" type="curve" smooth="yes"/>
      <point x="233" y="464"/>
      <point x="211" y="486"/>
      <point x="211" y="508" type="curve" smooth="yes"/>
      <point x="211" y="510"/>
      <point x="211" y="513"/>
      <point x="213" y="519" type="curve"/>
      <point x="216" y="538"/>
      <point x="245" y="551"/>
    </contour>
    <contour>
      <point x="194" y="378" type="move" name="_top"/>
    </contour>
  </outline>
</glyph>
<glyph name="copyright" format="1">
  <advance width="624"/>
  <unicode hex="00A9"/>
  <outline>
    <contour>
      <point x="433" y="368" type="curve"/>
      <point x="432" y="365"/>
      <point x="394" y="324"/>
      <point x="369" y="306" type="curve"/>
      <point x="348" y="337"/>
      <point x="306" y="371"/>
      <point x="281" y="371" type="curve" smooth="yes"/>
      <point x="273" y="371"/>
      <point x="265" y="362"/>
      <point x="259" y="339" type="curve"/>
      <point x="258" y="326"/>
      <point x="258" y="313"/>
      <point x="258" y="301" type="curve" smooth="yes"/>
      <point x="258" y="207"/>
      <point x="299" y="166"/>
      <point x="340" y="166" type="curve" smooth="yes"/>
      <point x="360" y="166"/>
      <point x="389" y="185"/>
      <point x="417" y="216" type="curve"/>
      <point x="449" y="183" type="line"/>
      <point x="424" y="155"/>
      <point x="324" y="97"/>
      <point x="281" y="97" type="curve" smooth="yes"/>
      <point x="197" y="97"/>
      <point x="159" y="190"/>
      <point x="159" y="257" type="curve" smooth="yes"/>
      <point x="159" y="270"/>
      <point x="161" y="286"/>
      <point x="165" y="298" type="curve" smooth="yes"/>
      <point x="179" y="336"/>
      <point x="272" y="444"/>
      <point x="315" y="444" type="curve"/>
      <point x="340" y="439"/>
      <point x="431" y="388"/>
    </contour>
    <contour>
      <point x="22" y="263" type="curve" smooth="yes"/>
      <point x="22" y="409"/>
      <point x="149" y="527"/>
      <point x="305" y="527" type="curve" smooth="yes"/>
      <point x="462" y="527"/>
      <point x="589" y="409"/>
      <point x="589" y="263" type="curve" smooth="yes"/>
      <point x="589" y="118"/>
      <point x="462" y="0"/>
      <point x="305" y="0" type="curve" smooth="yes"/>
      <point x="149" y="0"/>
      <point x="22" y="118"/>
    </contour>
    <contour>
      <point x="119" y="263" type="curve" smooth="yes"/>
      <point x="119" y="150"/>
      <point x="203" y="57"/>
      <point x="305" y="57" type="curve" smooth="yes"/>
      <point x="408" y="57"/>
      <point x="491" y="150"/>
      <point x="491" y="263" type="curve" smooth="yes"/>
      <point x="491" y="377"/>
      <point x="408" y="469"/>
      <point x="305" y="469" type="curve" smooth="yes"/>
      <point x="203" y="469"/>
      <point x="119" y="377"/>
    </contour>
  </outline>
</glyph>
<glyph name="guillemotleft" format="1">
  <advance width="441"/>
  <unicode hex="00AB"/>
  <outline>
    <contour>
      <point x="140" y="95" type="curve" smooth="yes"/>
      <point x="121" y="119"/>
      <point x="80" y="173"/>
      <point x="62" y="191" type="curve"/>
      <point x="101" y="230"/>
      <point x="163" y="310"/>
      <point x="167" y="336" type="curve"/>
      <point x="259" y="340" type="line"/>
      <point x="266" y="337"/>
      <point x="272" y="335"/>
      <point x="273" y="335" type="curve" smooth="yes"/>
      <point x="276" y="335"/>
      <point x="232" y="266"/>
      <point x="167" y="191" type="curve"/>
      <point x="216" y="127"/>
      <point x="274" y="61"/>
      <point x="274" y="48" type="curve" smooth="yes"/>
      <point x="273" y="48"/>
      <point x="264" y="44"/>
      <point x="259" y="42" type="curve"/>
      <point x="167" y="46" type="line"/>
      <point x="165" y="61"/>
      <point x="152" y="79"/>
    </contour>
    <contour>
      <point x="304" y="95" type="curve" smooth="yes"/>
      <point x="285" y="119"/>
      <point x="244" y="173"/>
      <point x="226" y="191" type="curve"/>
      <point x="265" y="230"/>
      <point x="327" y="310"/>
      <point x="331" y="336" type="curve"/>
      <point x="423" y="340" type="line"/>
      <point x="430" y="337"/>
      <point x="436" y="335"/>
      <point x="437" y="335" type="curve" smooth="yes"/>
      <point x="440" y="335"/>
      <point x="396" y="266"/>
      <point x="331" y="191" type="curve"/>
      <point x="380" y="127"/>
      <point x="438" y="61"/>
      <point x="438" y="48" type="curve" smooth="yes"/>
      <point x="437" y="48"/>
      <point x="428" y="44"/>
      <point x="423" y="42" type="curve"/>
      <point x="331" y="46" type="line"/>
      <point x="329" y="61"/>
      <point x="316" y="79"/>
    </contour>
  </outline>
</glyph>
<glyph name="registered" format="1">
  <advance width="474"/>
  <unicode hex="00AE"/>
  <outline>
    <contour>
      <point x="24" y="449" type="curve" smooth="yes"/>
      <point x="24" y="555"/>
      <point x="120" y="642"/>
      <point x="236" y="642" type="curve" smooth="yes"/>
      <point x="353" y="642"/>
      <point x="449" y="555"/>
      <point x="449" y="449" type="curve" smooth="yes"/>
      <point x="449" y="344"/>
      <point x="353" y="257"/>
      <point x="236" y="257" type="curve" smooth="yes"/>
      <point x="120" y="257"/>
      <point x="24" y="344"/>
    </contour>
    <contour>
      <point x="106" y="449" type="curve" smooth="yes"/>
      <point x="106" y="367"/>
      <point x="165" y="298"/>
      <point x="236" y="298" type="curve" smooth="yes"/>
      <point x="308" y="298"/>
      <point x="366" y="367"/>
      <point x="366" y="449" type="curve" smooth="yes"/>
      <point x="366" y="532"/>
      <point x="308" y="599"/>
      <point x="236" y="599" type="curve" smooth="yes"/>
      <point x="165" y="599"/>
      <point x="106" y="532"/>
    </contour>
    <contour>
      <point x="168" y="491" type="line" smooth="yes"/>
      <point x="168" y="503"/>
      <point x="168" y="514"/>
      <point x="166" y="521" type="curve" smooth="yes"/>
      <point x="157" y="544" type="line"/>
      <point x="260" y="544" type="line"/>
      <point x="303" y="541"/>
      <point x="318" y="518"/>
      <point x="318" y="500" type="curve" smooth="yes"/>
      <point x="318" y="480"/>
      <point x="295" y="459"/>
      <point x="278" y="447" type="curve"/>
      <point x="309" y="409"/>
      <point x="334" y="381"/>
      <point x="334" y="372" type="curve" smooth="yes"/>
      <point x="334" y="372"/>
      <point x="331" y="370"/>
      <point x="323" y="365" type="curve"/>
      <point x="272" y="365" type="line"/>
      <point x="270" y="391"/>
      <point x="245" y="412"/>
      <point x="232" y="429" type="curve"/>
      <point x="232" y="366" type="line"/>
      <point x="165" y="366" type="line"/>
      <point x="167" y="373"/>
      <point x="168" y="415"/>
      <point x="168" y="448" type="curve" smooth="yes"/>
    </contour>
    <contour>
      <point x="232" y="459" type="line"/>
      <point x="236" y="459" type="line"/>
      <point x="251" y="459"/>
      <point x="255" y="469"/>
      <point x="255" y="489" type="curve" smooth="yes"/>
      <point x="255" y="513"/>
      <point x="248" y="525"/>
      <point x="238" y="525" type="curve"/>
      <point x="229" y="524" type="line"/>
      <point x="231" y="510"/>
      <point x="232" y="489"/>
      <point x="232" y="469" type="curve" smooth="yes"/>
    </contour>
  </outline>
</glyph>
<glyph name="macron" format="1">
  <advance width="406"/>
  <unicode hex="00AF"/>
  <outline>
    <contour>
      <point x="314" y="462" type="line"/>
      <point x="282" y="462"/>
      <point x="219" y="463"/>
      <point x="186" y="465" type="curve"/>
      <point x="169" y="465"/>
      <point x="143" y="463"/>
      <point x="119" y="447" type="curve"/>
      <point x="66" y="511" type="line"/>
      <point x="66" y="518"/>
      <point x="94" y="519"/>
      <point x="149" y="519" type="curve" smooth="yes"/>
      <point x="180" y="519"/>
      <point x="245" y="517"/>
      <point x="315" y="517" type="curve"/>
    </contour>
    <contour>
      <point x="198" y="368" type="move" name="_top"/>
    </contour>
  </outline>
</glyph>
<glyph name="degree" format="1">
  <advance width="266"/>
  <unicode hex="00B0"/>
  <outline>
    <contour>
      <point x="24" y="435" type="curve" smooth="yes"/>
      <point x="24" y="485"/>
      <point x="75" y="527"/>
      <point x="136" y="527" type="curve" smooth="yes"/>
      <point x="198" y="527"/>
      <point x="249" y="485"/>
      <point x="249" y="435" type="curve" smooth="yes"/>
      <point x="249" y="384"/>
      <point x="198" y="342"/>
      <point x="136" y="342" type="curve" smooth="yes"/>
      <point x="75" y="342"/>
      <point x="24" y="384"/>
    </contour>
    <contour>
      <point x="95" y="435" type="curve" smooth="yes"/>
      <point x="95" y="400"/>
      <point x="113" y="373"/>
      <point x="136" y="373" type="curve" smooth="yes"/>
      <point x="160" y="373"/>
      <point x="178" y="400"/>
      <point x="178" y="435" type="curve" smooth="yes"/>
      <point x="178" y="469"/>
      <point x="160" y="496"/>
      <point x="136" y="496" type="curve" smooth="yes"/>
      <point x="113" y="496"/>
      <point x="95" y="469"/>
    </contour>
  </outline>
</glyph>
<glyph name="plusminus" format="1">
  <advance width="723"/>
  <unicode hex="00B1"/>
  <outline>
    <contour>
      <point x="80" y="285" type="line"/>
      <point x="226" y="285" type="line"/>
      <point x="226" y="307" type="line" smooth="yes"/>
      <point x="226" y="338"/>
      <point x="225" y="349"/>
      <point x="222" y="364" type="curve" smooth="yes"/>
      <point x="220" y="376" type="line"/>
      <point x="262" y="445" type="line"/>
      <point x="264" y="451"/>
      <point x="274" y="453"/>
      <point x="288" y="453" type="curve" smooth="yes"/>
      <point x="325" y="453"/>
      <point x="329" y="437"/>
      <point x="329" y="318" type="curve" smooth="yes"/>
      <point x="329" y="286" type="line"/>
      <point x="505" y="286" type="line"/>
      <point x="471" y="224" type="line"/>
      <point x="422" y="224"/>
      <point x="403" y="226"/>
      <point x="379" y="226" type="curve" smooth="yes"/>
      <point x="370" y="226"/>
      <point x="360" y="226"/>
      <point x="348" y="225" type="curve"/>
      <point x="327" y="225" type="line"/>
      <point x="325" y="185"/>
      <point x="321" y="152"/>
      <point x="315" y="116" type="curve"/>
      <point x="215" y="116" type="line"/>
      <point x="217" y="142"/>
      <point x="221" y="183"/>
      <point x="223" y="224" type="curve"/>
      <point x="157" y="223"/>
      <point x="91" y="220"/>
      <point x="61" y="217" type="curve"/>
    </contour>
    <contour>
      <point x="75" y="63" type="line"/>
      <point x="500" y="63" type="line"/>
      <point x="470" y="11" type="line"/>
      <point x="352" y="11" type="line"/>
      <point x="247" y="11"/>
      <point x="119" y="10"/>
      <point x="61" y="4" type="curve"/>
    </contour>
  </outline>
</glyph>
<glyph name="twosuperior" format="1">
  <advance width="319"/>
  <unicode hex="00B2"/>
  <outline>
    <contour>
      <point x="135" y="653" type="line" smooth="yes"/>
      <point x="179" y="653"/>
      <point x="262" y="579"/>
      <point x="262" y="540" type="curve" smooth="yes"/>
      <point x="252" y="491"/>
      <point x="226" y="440"/>
      <point x="176" y="346" type="curve"/>
      <point x="192" y="348"/>
      <point x="210" y="352"/>
      <point x="228" y="354" type="curve" smooth="yes"/>
      <point x="255" y="357" type="line"/>
      <point x="256" y="357"/>
      <point x="258" y="358"/>
      <point x="260" y="358" type="curve" smooth="yes"/>
      <point x="302" y="365" type="line"/>
      <point x="276" y="300" type="line"/>
      <point x="265" y="300"/>
      <point x="236" y="301"/>
      <point x="226" y="301" type="curve" smooth="yes"/>
      <point x="198" y="301" type="line" smooth="yes"/>
      <point x="188" y="301"/>
      <point x="178" y="300"/>
      <point x="169" y="300" type="curve" smooth="yes"/>
      <point x="108" y="300" type="line" smooth="yes"/>
      <point x="57" y="300"/>
      <point x="28" y="301"/>
      <point x="28" y="306" type="curve"/>
      <point x="73" y="348" type="line"/>
      <point x="180" y="535"/>
      <point x="182" y="539"/>
      <point x="184" y="547" type="curve"/>
      <point x="175" y="566"/>
      <point x="161" y="592"/>
      <point x="160" y="592" type="curve" smooth="yes"/>
      <point x="140" y="592"/>
      <point x="108" y="534"/>
      <point x="95" y="495" type="curve"/>
      <point x="72" y="518"/>
      <point x="36" y="558"/>
      <point x="32" y="563" type="curve"/>
      <point x="32" y="571"/>
      <point x="84" y="647"/>
      <point x="128" y="653" type="curve"/>
    </contour>
  </outline>
</glyph>
<glyph name="threesuperior" format="1">
  <advance width="301"/>
  <unicode hex="00B3"/>
  <outline>
    <contour>
      <point x="48" y="602" type="curve"/>
      <point x="48" y="607"/>
      <point x="89" y="647"/>
      <point x="114" y="656" type="curve"/>
      <point x="131" y="657" type="line"/>
      <point x="163" y="657"/>
      <point x="239" y="597"/>
      <point x="246" y="579" type="curve"/>
      <point x="252" y="564"/>
      <point x="255" y="551"/>
      <point x="255" y="539" type="curve" smooth="yes"/>
      <point x="255" y="516"/>
      <point x="242" y="490"/>
      <point x="211" y="472" type="curve"/>
      <point x="256" y="440"/>
      <point x="285" y="403"/>
      <point x="285" y="381" type="curve" smooth="yes"/>
      <point x="285" y="337"/>
      <point x="213" y="289"/>
      <point x="156" y="289" type="curve" smooth="yes"/>
      <point x="100" y="289"/>
      <point x="28" y="289"/>
      <point x="28" y="338" type="curve" smooth="yes"/>
      <point x="28" y="344"/>
      <point x="30" y="351"/>
      <point x="30" y="358" type="curve"/>
      <point x="35" y="358"/>
      <point x="104" y="356"/>
      <point x="129" y="342" type="curve"/>
      <point x="129" y="329"/>
      <point x="129" y="313"/>
      <point x="127" y="311" type="curve"/>
      <point x="163" y="311"/>
      <point x="177" y="379"/>
      <point x="177" y="394" type="curve" smooth="yes"/>
      <point x="177" y="488"/>
      <point x="140" y="452"/>
      <point x="88" y="481" type="curve"/>
      <point x="98" y="511" type="line"/>
      <point x="113" y="497"/>
      <point x="133" y="489"/>
      <point x="140" y="489" type="curve" smooth="yes"/>
      <point x="141" y="489"/>
      <point x="143" y="490"/>
      <point x="143" y="490" type="curve" smooth="yes"/>
      <point x="149" y="496"/>
      <point x="155" y="509"/>
      <point x="155" y="555" type="curve" smooth="yes"/>
      <point x="155" y="581"/>
      <point x="147" y="599"/>
      <point x="147" y="604" type="curve"/>
      <point x="139" y="595"/>
      <point x="129" y="575"/>
      <point x="120" y="554" type="curve"/>
      <point x="90" y="572"/>
      <point x="49" y="601"/>
    </contour>
  </outline>
</glyph>
<glyph name="acute" format="1">
  <advance width="361"/>
  <unicode hex="00B4"/>
  <outline>
    <contour>
      <point x="279" y="500" type="line"/>
      <point x="194" y="431" type="line"/>
      <point x="171" y="412"/>
      <point x="161" y="404"/>
      <point x="141" y="404" type="curve" smooth="yes"/>
      <point x="128" y="404"/>
      <point x="117" y="407"/>
      <point x="113" y="413" type="curve"/>
      <point x="116" y="473" type="line"/>
      <point x="142" y="473"/>
      <point x="164" y="490"/>
      <point x="233" y="563" type="curve"/>
    </contour>
    <contour>
      <point x="201" y="318" type="move" name="_top"/>
    </contour>
  </outline>
</glyph>
<glyph name="uni00B5" format="1">
  <advance width="426"/>
  <unicode hex="00B5"/>
  <outline>
    <contour>
      <point x="36" y="-254" type="line"/>
      <point x="38" y="-226"/>
      <point x="44" y="40"/>
      <point x="44" y="156" type="curve" smooth="yes"/>
      <point x="44" y="239" type="line" smooth="yes"/>
      <point x="44" y="276"/>
      <point x="44" y="347"/>
      <point x="42" y="359" type="curve"/>
      <point x="163" y="366" type="line"/>
      <point x="154" y="312"/>
      <point x="158" y="208"/>
      <point x="156" y="192" type="curve"/>
      <point x="156" y="184"/>
      <point x="155" y="170"/>
      <point x="155" y="162" type="curve" smooth="yes"/>
      <point x="155" y="113"/>
      <point x="162" y="76"/>
      <point x="212" y="73" type="curve"/>
      <point x="218" y="73"/>
      <point x="236" y="84"/>
      <point x="245" y="96" type="curve"/>
      <point x="245" y="156" type="line" smooth="yes"/>
      <point x="245" y="184"/>
      <point x="246" y="217"/>
      <point x="246" y="253" type="curve" smooth="yes"/>
      <point x="246" y="285"/>
      <point x="246" y="318"/>
      <point x="245" y="357" type="curve"/>
      <point x="359" y="376" type="line"/>
      <point x="357" y="359"/>
      <point x="356" y="327"/>
      <point x="356" y="293" type="curve" smooth="yes"/>
      <point x="356" y="252"/>
      <point x="357" y="207"/>
      <point x="357" y="181" type="curve" smooth="yes"/>
      <point x="357" y="139"/>
      <point x="361" y="17"/>
      <point x="370" y="1" type="curve"/>
      <point x="289" y="-3" type="line"/>
      <point x="288" y="-3"/>
      <point x="288" y="-3"/>
      <point x="287" y="-3" type="curve" smooth="yes"/>
      <point x="265" y="-3"/>
      <point x="255" y="14"/>
      <point x="249" y="32" type="curve"/>
      <point x="224" y="11"/>
      <point x="197" y="-3"/>
      <point x="172" y="-3" type="curve" smooth="yes"/>
      <point x="161" y="-3"/>
      <point x="150" y="-2"/>
      <point x="140" y="1" type="curve"/>
      <point x="144" y="-93"/>
      <point x="153" y="-168"/>
      <point x="155" y="-253" type="curve"/>
    </contour>
  </outline>
</glyph>
<glyph name="paragraph" format="1">
  <advance width="624"/>
  <unicode hex="00B6"/>
  <outline>
    <contour>
      <point x="350" y="0" type="line"/>
      <point x="351" y="44"/>
      <point x="352" y="102"/>
      <point x="352" y="151" type="curve" smooth="yes"/>
      <point x="352" y="168"/>
      <point x="351" y="185"/>
      <point x="351" y="203" type="curve" smooth="yes"/>
      <point x="351" y="380" type="line"/>
      <point x="341" y="380" type="line"/>
      <point x="321" y="378"/>
      <point x="303" y="376"/>
      <point x="288" y="376" type="curve" smooth="yes"/>
      <point x="159" y="376"/>
      <point x="126" y="418"/>
      <point x="124" y="506" type="curve" smooth="yes"/>
      <point x="124" y="512" type="line" smooth="yes"/>
      <point x="124" y="607"/>
      <point x="182" y="652"/>
      <point x="283" y="652" type="curve" smooth="yes"/>
      <point x="324" y="652"/>
      <point x="370" y="649"/>
      <point x="387" y="647" type="curve"/>
      <point x="461" y="647" type="line"/>
      <point x="446" y="635"/>
      <point x="442" y="455"/>
      <point x="442" y="287" type="curve" smooth="yes"/>
      <point x="442" y="142"/>
      <point x="446" y="7"/>
      <point x="447" y="0" type="curve"/>
    </contour>
    <contour>
      <point x="469" y="0" type="line"/>
      <point x="469" y="91" type="line"/>
      <point x="469" y="111"/>
      <point x="469" y="132"/>
      <point x="470" y="151" type="curve" smooth="yes"/>
      <point x="470" y="649" type="line"/>
      <point x="560" y="649" type="line"/>
      <point x="544" y="636"/>
      <point x="540" y="455"/>
      <point x="540" y="287" type="curve"/>
      <point x="540" y="168"/>
      <point x="545" y="56"/>
      <point x="545" y="16" type="curve" smooth="yes"/>
      <point x="545" y="0" type="line"/>
    </contour>
  </outline>
</glyph>
<glyph name="periodcentered" format="1">
  <advance width="209"/>
  <unicode hex="00B7"/>
  <outline>
    <contour>
      <point x="105" y="330" type="curve" smooth="yes"/>
      <point x="162" y="330"/>
      <point x="177" y="294"/>
      <point x="177" y="270" type="curve" smooth="yes"/>
      <point x="177" y="239"/>
      <point x="144" y="212"/>
      <point x="102" y="212" type="curve" smooth="yes"/>
      <point x="56" y="212"/>
      <point x="27" y="239"/>
      <point x="27" y="270" type="curve" smooth="yes"/>
      <point x="27" y="312"/>
      <point x="72" y="330"/>
    </contour>
  </outline>
</glyph>
<glyph name="cedilla" format="1">
  <advance width="175"/>
  <unicode hex="00B8"/>
  <outline>
    <contour>
      <point x="224" y="21" type="line"/>
      <point x="143" y="-63" type="line"/>
      <point x="160" y="-81"/>
      <point x="172" y="-120"/>
      <point x="173" y="-134" type="curve"/>
      <point x="167" y="-160"/>
      <point x="131" y="-198"/>
      <point x="88" y="-198" type="curve" smooth="yes"/>
      <point x="82" y="-198"/>
      <point x="34" y="-190"/>
      <point x="1" y="-157" type="curve"/>
      <point x="60" y="-111" type="line"/>
      <point x="67" y="-131"/>
      <point x="70" y="-147"/>
      <point x="70" y="-155" type="curve" smooth="yes"/>
      <point x="70" y="-158"/>
      <point x="70" y="-160"/>
      <point x="69" y="-161" type="curve" smooth="yes"/>
      <point x="86" y="-142"/>
      <point x="88" y="-86"/>
      <point x="90" y="-84" type="curve"/>
      <point x="82" y="-84"/>
      <point x="68" y="-85"/>
      <point x="67" y="-85" type="curve"/>
      <point x="61" y="-75"/>
      <point x="54" y="-61"/>
      <point x="54" y="-56" type="curve"/>
      <point x="58" y="-55"/>
      <point x="66" y="-55"/>
      <point x="68" y="-55" type="curve"/>
      <point x="87" y="-37"/>
      <point x="101" y="-20"/>
      <point x="118" y="-2" type="curve" smooth="yes"/>
      <point x="119" y="-1"/>
      <point x="119" y="0"/>
      <point x="119" y="1" type="curve" smooth="yes"/>
      <point x="119" y="3"/>
      <point x="119" y="9"/>
      <point x="120" y="9" type="curve" smooth="yes"/>
      <point x="124" y="10"/>
      <point x="192" y="32"/>
      <point x="209" y="36" type="curve"/>
    </contour>
    <contour>
      <point x="103" y="-6" type="move" name="_bottom"/>
    </contour>
  </outline>
</glyph>
<glyph name="guillemotright" format="1">
  <advance width="483"/>
  <unicode hex="00BB"/>
  <outline>
    <contour>
      <point x="409" y="193" type="curve"/>
      <point x="376" y="161"/>
      <point x="311" y="73"/>
      <point x="306" y="46" type="curve"/>
      <point x="214" y="42" type="line"/>
      <point x="204" y="47"/>
      <point x="201" y="48"/>
      <point x="200" y="48" type="curve" smooth="yes"/>
      <point x="201" y="63"/>
      <point x="243" y="107"/>
      <point x="306" y="191" type="curve"/>
      <point x="248" y="258"/>
      <point x="201" y="323"/>
      <point x="200" y="334" type="curve"/>
      <point x="200" y="334"/>
      <point x="202" y="334"/>
      <point x="214" y="340" type="curve"/>
      <point x="306" y="336" type="line"/>
      <point x="311" y="308"/>
      <point x="375" y="222"/>
    </contour>
    <contour>
      <point x="245" y="193" type="curve"/>
      <point x="212" y="161"/>
      <point x="147" y="73"/>
      <point x="142" y="46" type="curve"/>
      <point x="50" y="42" type="line"/>
      <point x="40" y="47"/>
      <point x="37" y="48"/>
      <point x="36" y="48" type="curve" smooth="yes"/>
      <point x="37" y="63"/>
      <point x="79" y="107"/>
      <point x="142" y="191" type="curve"/>
      <point x="84" y="258"/>
      <point x="37" y="323"/>
      <point x="36" y="334" type="curve"/>
      <point x="36" y="334"/>
      <point x="38" y="334"/>
      <point x="50" y="340" type="curve"/>
      <point x="142" y="336" type="line"/>
      <point x="147" y="308"/>
      <point x="211" y="222"/>
    </contour>
  </outline>
</glyph>
<glyph name="onequarter" format="1">
  <advance width="696"/>
  <unicode hex="00BC"/>
  <outline>
    <contour>
      <point x="112" y="-10" type="line"/>
      <point x="127" y="12"/>
      <point x="337" y="429"/>
      <point x="359" y="476" type="curve"/>
      <point x="370" y="499"/>
      <point x="398" y="545"/>
      <point x="398" y="568" type="curve" smooth="yes"/>
      <point x="398" y="569"/>
      <point x="397" y="567"/>
      <point x="396" y="566" type="curve" smooth="yes"/>
      <point x="396" y="566"/>
      <point x="396" y="566"/>
      <point x="488" y="635" type="curve"/>
      <point x="511" y="631"/>
      <point x="525" y="624"/>
      <point x="525" y="616" type="curve" smooth="yes"/>
      <point x="525" y="579"/>
      <point x="495" y="514"/>
      <point x="441" y="404" type="curve"/>
      <point x="234" y="0" type="line"/>
    </contour>
    <contour>
      <point x="493" y="8" type="line"/>
      <point x="495" y="21"/>
      <point x="498" y="92"/>
      <point x="499" y="134" type="curve"/>
      <point x="495" y="133"/>
      <point x="492" y="133"/>
      <point x="356" y="133" type="curve"/>
      <point x="386" y="160" type="line" smooth="yes"/>
      <point x="403" y="175"/>
      <point x="444" y="260"/>
      <point x="455" y="288" type="curve" smooth="yes"/>
      <point x="460" y="301"/>
      <point x="475" y="315"/>
      <point x="488" y="330" type="curve" smooth="yes"/>
      <point x="486" y="327" type="line"/>
      <point x="536" y="365" type="line"/>
      <point x="586" y="365"/>
      <point x="593" y="294"/>
      <point x="593" y="210" type="curve" smooth="yes"/>
      <point x="593" y="168" type="line"/>
      <point x="610" y="170"/>
      <point x="626" y="174"/>
      <point x="636" y="176" type="curve"/>
      <point x="618" y="134" type="line"/>
      <point x="593" y="134" type="line"/>
      <point x="593" y="9" type="line"/>
    </contour>
    <contour>
      <point x="127" y="276" type="line"/>
      <point x="131" y="306"/>
      <point x="136" y="408"/>
      <point x="136" y="455" type="curve" smooth="yes"/>
      <point x="136" y="492"/>
      <point x="136" y="539"/>
      <point x="129" y="555" type="curve"/>
      <point x="118" y="551"/>
      <point x="92" y="546"/>
      <point x="75" y="542" type="curve"/>
      <point x="70" y="555" type="line"/>
      <point x="90" y="577"/>
      <point x="160" y="626"/>
      <point x="211" y="628" type="curve"/>
      <point x="229" y="601"/>
      <point x="232" y="566"/>
      <point x="232" y="514" type="curve" smooth="yes"/>
      <point x="232" y="372" type="line" smooth="yes"/>
      <point x="232" y="343"/>
      <point x="232" y="311"/>
      <point x="233" y="277" type="curve"/>
    </contour>
    <contour>
      <point x="500" y="162" type="line"/>
      <point x="500" y="174" type="line"/>
      <point x="500" y="178"/>
      <point x="500" y="185"/>
      <point x="499" y="207" type="curve"/>
      <point x="496" y="202" type="line" smooth="yes"/>
      <point x="491" y="193"/>
      <point x="481" y="175"/>
      <point x="477" y="166" type="curve" smooth="yes"/>
      <point x="473" y="159" type="line"/>
    </contour>
  </outline>
</glyph>
<glyph name="onehalf" format="1">
  <advance width="712"/>
  <unicode hex="00BD"/>
  <outline>
    <contour>
      <point x="117" y="-10" type="line"/>
      <point x="132" y="12"/>
      <point x="342" y="429"/>
      <point x="364" y="476" type="curve"/>
      <point x="375" y="499"/>
      <point x="403" y="545"/>
      <point x="403" y="568" type="curve" smooth="yes"/>
      <point x="403" y="569"/>
      <point x="402" y="567"/>
      <point x="401" y="566" type="curve" smooth="yes"/>
      <point x="401" y="566"/>
      <point x="401" y="566"/>
      <point x="493" y="635" type="curve"/>
      <point x="516" y="631"/>
      <point x="530" y="624"/>
      <point x="530" y="616" type="curve" smooth="yes"/>
      <point x="530" y="579"/>
      <point x="500" y="514"/>
      <point x="446" y="404" type="curve"/>
      <point x="239" y="0" type="line"/>
    </contour>
    <contour>
      <point x="500" y="356" type="line" smooth="yes"/>
      <point x="544" y="356"/>
      <point x="627" y="282"/>
      <point x="627" y="244" type="curve" smooth="yes"/>
      <point x="627" y="195"/>
      <point x="577" y="113"/>
      <point x="556" y="73" type="curve"/>
      <point x="544" y="50" type="line"/>
      <point x="548" y="51"/>
      <point x="551" y="51"/>
      <point x="555" y="51" type="curve" smooth="yes"/>
      <point x="622" y="60"/>
      <point x="625" y="60"/>
      <point x="667" y="68" type="curve"/>
      <point x="641" y="3" type="line"/>
      <point x="630" y="3"/>
      <point x="601" y="4"/>
      <point x="591" y="4" type="curve" smooth="yes"/>
      <point x="563" y="4" type="line" smooth="yes"/>
      <point x="553" y="4"/>
      <point x="543" y="3"/>
      <point x="534" y="3" type="curve" smooth="yes"/>
      <point x="473" y="3" type="line" smooth="yes"/>
      <point x="422" y="3"/>
      <point x="393" y="4"/>
      <point x="393" y="10" type="curve"/>
      <point x="438" y="52" type="line"/>
      <point x="452" y="75"/>
      <point x="509" y="165"/>
      <point x="530" y="208" type="curve" smooth="yes"/>
      <point x="539" y="226" type="line"/>
      <point x="541" y="234"/>
      <point x="546" y="242"/>
      <point x="549" y="250" type="curve"/>
      <point x="540" y="269"/>
      <point x="526" y="295"/>
      <point x="525" y="295" type="curve" smooth="yes"/>
      <point x="505" y="295"/>
      <point x="472" y="237"/>
      <point x="457" y="197" type="curve"/>
      <point x="438" y="218"/>
      <point x="401" y="261"/>
      <point x="397" y="266" type="curve"/>
      <point x="397" y="274"/>
      <point x="449" y="350"/>
      <point x="493" y="356" type="curve"/>
    </contour>
    <contour>
      <point x="132" y="276" type="line"/>
      <point x="136" y="306"/>
      <point x="141" y="408"/>
      <point x="141" y="455" type="curve" smooth="yes"/>
      <point x="141" y="492"/>
      <point x="141" y="539"/>
      <point x="134" y="555" type="curve"/>
      <point x="123" y="551"/>
      <point x="97" y="546"/>
      <point x="80" y="542" type="curve"/>
      <point x="75" y="555" type="line"/>
      <point x="95" y="577"/>
      <point x="165" y="626"/>
      <point x="216" y="628" type="curve"/>
      <point x="223" y="617" type="line"/>
      <point x="234" y="601"/>
      <point x="237" y="566"/>
      <point x="237" y="514" type="curve" smooth="yes"/>
      <point x="237" y="372" type="line" smooth="yes"/>
      <point x="237" y="343"/>
      <point x="237" y="311"/>
      <point x="238" y="277" type="curve"/>
    </contour>
  </outline>
</glyph>
<glyph name="questiondown" format="1">
  <advance width="388"/>
  <unicode hex="00BF"/>
  <outline>
    <contour>
      <point x="213" y="224" type="line"/>
      <point x="206" y="177"/>
      <point x="199" y="149"/>
      <point x="175" y="82" type="curve"/>
      <point x="236" y="46"/>
      <point x="334" y="-50"/>
      <point x="334" y="-116" type="curve" smooth="yes"/>
      <point x="334" y="-194"/>
      <point x="214" y="-280"/>
      <point x="145" y="-280" type="curve" smooth="yes"/>
      <point x="73" y="-280"/>
      <point x="23" y="-278"/>
      <point x="23" y="-194" type="curve" smooth="yes"/>
      <point x="23" y="-183"/>
      <point x="24" y="-171"/>
      <point x="27" y="-157" type="curve"/>
      <point x="32" y="-157"/>
      <point x="121" y="-157"/>
      <point x="141" y="-172" type="curve"/>
      <point x="141" y="-205"/>
      <point x="147" y="-229"/>
      <point x="154" y="-232" type="curve"/>
      <point x="160" y="-235"/>
      <point x="165" y="-237"/>
      <point x="166" y="-237" type="curve" smooth="yes"/>
      <point x="198" y="-237"/>
      <point x="199" y="-130"/>
      <point x="199" y="-95" type="curve" smooth="yes"/>
      <point x="199" y="-89" type="line" smooth="yes"/>
      <point x="199" y="-31"/>
      <point x="173" y="32"/>
      <point x="135" y="51" type="curve"/>
      <point x="81" y="64" type="line"/>
      <point x="94" y="109"/>
      <point x="91" y="171"/>
      <point x="97" y="194" type="curve"/>
    </contour>
    <contour>
      <point x="153" y="262" type="curve" smooth="yes"/>
      <point x="112" y="262"/>
      <point x="74" y="288"/>
      <point x="74" y="322" type="curve" smooth="yes"/>
      <point x="74" y="353"/>
      <point x="104" y="380"/>
      <point x="149" y="380" type="curve" smooth="yes"/>
      <point x="193" y="380"/>
      <point x="224" y="353"/>
      <point x="224" y="322" type="curve" smooth="yes"/>
      <point x="224" y="298"/>
      <point x="210" y="262"/>
    </contour>
  </outline>
</glyph>
<glyph name="Agrave" format="1">
  <advance width="583"/>
  <unicode hex="00C0"/>
  <outline>
    <contour>
      <point x="421" y="-1" type="line"/>
      <point x="417" y="15"/>
      <point x="394" y="84"/>
      <point x="368" y="157" type="curve"/>
      <point x="174" y="157" type="line"/>
      <point x="173" y="155"/>
      <point x="173" y="156"/>
      <point x="118" y="-6" type="curve"/>
      <point x="12" y="1" type="line"/>
      <point x="56" y="109"/>
      <point x="163" y="413"/>
      <point x="214" y="558" type="curve"/>
      <point x="209" y="568"/>
      <point x="206" y="569"/>
      <point x="205" y="569" type="curve"/>
      <point x="241" y="650" type="line"/>
      <point x="241" y="650"/>
      <point x="255" y="655"/>
      <point x="258" y="656" type="curve"/>
      <point x="315" y="656"/>
      <point x="385" y="474"/>
      <point x="451" y="293" type="curve" smooth="yes"/>
      <point x="501" y="156" type="line" smooth="yes"/>
      <point x="521" y="100"/>
      <point x="540" y="46"/>
      <point x="557" y="4" type="curve"/>
    </contour>
    <contour>
      <point x="351" y="207" type="line"/>
      <point x="269" y="446" type="line"/>
      <point x="190" y="207" type="line"/>
    </contour>
    <contour>
      <point x="212" y="796" type="line"/>
      <point x="271" y="733"/>
      <point x="297" y="710"/>
      <point x="330" y="704" type="curve"/>
      <point x="333" y="647" type="line"/>
      <point x="329" y="641"/>
      <point x="318" y="638"/>
      <point x="305" y="638" type="curve" smooth="yes"/>
      <point x="271" y="638"/>
      <point x="254" y="667"/>
      <point x="167" y="734" type="curve"/>
    </contour>
  </outline>
</glyph>
<glyph name="Aacute" format="1">
  <advance width="583"/>
  <unicode hex="00C1"/>
  <outline>
    <contour>
      <point x="421" y="-1" type="line"/>
      <point x="417" y="15"/>
      <point x="394" y="84"/>
      <point x="368" y="157" type="curve"/>
      <point x="174" y="157" type="line"/>
      <point x="173" y="155"/>
      <point x="173" y="156"/>
      <point x="118" y="-6" type="curve"/>
      <point x="12" y="1" type="line"/>
      <point x="56" y="109"/>
      <point x="163" y="413"/>
      <point x="214" y="558" type="curve"/>
      <point x="209" y="568"/>
      <point x="206" y="569"/>
      <point x="205" y="569" type="curve"/>
      <point x="241" y="650" type="line"/>
      <point x="241" y="650"/>
      <point x="255" y="655"/>
      <point x="258" y="656" type="curve"/>
      <point x="315" y="656"/>
      <point x="385" y="474"/>
      <point x="451" y="293" type="curve" smooth="yes"/>
      <point x="501" y="156" type="line" smooth="yes"/>
      <point x="521" y="100"/>
      <point x="540" y="46"/>
      <point x="557" y="4" type="curve"/>
    </contour>
    <contour>
      <point x="351" y="207" type="line"/>
      <point x="269" y="446" type="line"/>
      <point x="190" y="207" type="line"/>
    </contour>
    <contour>
      <point x="325" y="745" type="line"/>
      <point x="240" y="676" type="line"/>
      <point x="217" y="657"/>
      <point x="207" y="649"/>
      <point x="187" y="649" type="curve" smooth="yes"/>
      <point x="174" y="649"/>
      <point x="163" y="652"/>
      <point x="159" y="658" type="curve"/>
      <point x="162" y="718" type="line"/>
      <point x="188" y="718"/>
      <point x="210" y="735"/>
      <point x="279" y="808" type="curve"/>
    </contour>
  </outline>
</glyph>
<glyph name="Acircumflex" format="1">
  <advance width="583"/>
  <unicode hex="00C2"/>
  <outline>
    <contour>
      <point x="421" y="-1" type="line"/>
      <point x="417" y="15"/>
      <point x="394" y="84"/>
      <point x="368" y="157" type="curve"/>
      <point x="174" y="157" type="line"/>
      <point x="173" y="155"/>
      <point x="173" y="156"/>
      <point x="118" y="-6" type="curve"/>
      <point x="12" y="1" type="line"/>
      <point x="56" y="109"/>
      <point x="163" y="413"/>
      <point x="214" y="558" type="curve"/>
      <point x="209" y="568"/>
      <point x="206" y="569"/>
      <point x="205" y="569" type="curve"/>
      <point x="241" y="650" type="line"/>
      <point x="241" y="650"/>
      <point x="255" y="655"/>
      <point x="258" y="656" type="curve"/>
      <point x="315" y="656"/>
      <point x="385" y="474"/>
      <point x="451" y="293" type="curve" smooth="yes"/>
      <point x="501" y="156" type="line" smooth="yes"/>
      <point x="521" y="100"/>
      <point x="540" y="46"/>
      <point x="557" y="4" type="curve"/>
    </contour>
    <contour>
      <point x="351" y="207" type="line"/>
      <point x="269" y="446" type="line"/>
      <point x="190" y="207" type="line"/>
    </contour>
    <contour>
      <point x="256" y="772" type="line"/>
      <point x="265" y="768" type="line"/>
      <point x="295" y="738"/>
      <point x="335" y="703"/>
      <point x="364" y="698" type="curve"/>
      <point x="367" y="641" type="line"/>
      <point x="363" y="635"/>
      <point x="352" y="632"/>
      <point x="339" y="632" type="curve" smooth="yes"/>
      <point x="319" y="632"/>
      <point x="305" y="642"/>
      <point x="273" y="668" type="curve"/>
      <point x="247" y="690" type="line"/>
      <point x="239" y="683"/>
      <point x="231" y="676"/>
      <point x="223" y="670" type="curve"/>
      <point x="191" y="643"/>
      <point x="176" y="632"/>
      <point x="156" y="632" type="curve" smooth="yes"/>
      <point x="140" y="632"/>
      <point x="133" y="635"/>
      <point x="129" y="641" type="curve"/>
      <point x="132" y="701" type="line"/>
      <point x="154" y="701"/>
      <point x="194" y="732"/>
      <point x="232" y="772" type="curve"/>
    </contour>
  </outline>
</glyph>
<glyph name="Atilde" format="1">
  <advance width="583"/>
  <unicode hex="00C3"/>
  <outline>
    <contour>
      <point x="421" y="-1" type="line"/>
      <point x="417" y="15"/>
      <point x="394" y="84"/>
      <point x="368" y="157" type="curve"/>
      <point x="174" y="157" type="line"/>
      <point x="173" y="155"/>
      <point x="173" y="156"/>
      <point x="118" y="-6" type="curve"/>
      <point x="12" y="1" type="line"/>
      <point x="56" y="109"/>
      <point x="163" y="413"/>
      <point x="214" y="558" type="curve"/>
      <point x="209" y="568"/>
      <point x="206" y="569"/>
      <point x="205" y="569" type="curve"/>
      <point x="241" y="650" type="line"/>
      <point x="241" y="650"/>
      <point x="255" y="655"/>
      <point x="258" y="656" type="curve"/>
      <point x="315" y="656"/>
      <point x="385" y="474"/>
      <point x="451" y="293" type="curve" smooth="yes"/>
      <point x="501" y="156" type="line" smooth="yes"/>
      <point x="521" y="100"/>
      <point x="540" y="46"/>
      <point x="557" y="4" type="curve"/>
    </contour>
    <contour>
      <point x="351" y="207" type="line"/>
      <point x="269" y="446" type="line"/>
      <point x="190" y="207" type="line"/>
    </contour>
    <contour>
      <point x="337" y="644" type="line"/>
      <point x="331" y="642"/>
      <point x="324" y="641"/>
      <point x="314" y="641" type="curve" smooth="yes"/>
      <point x="263" y="641"/>
      <point x="228" y="678"/>
      <point x="211" y="678" type="curve" smooth="yes"/>
      <point x="207" y="678"/>
      <point x="198" y="667"/>
      <point x="178" y="636" type="curve"/>
      <point x="148" y="665" type="line"/>
      <point x="152" y="681"/>
      <point x="191" y="724"/>
      <point x="199" y="729" type="curve" smooth="yes"/>
      <point x="205" y="733"/>
      <point x="214" y="734"/>
      <point x="228" y="734" type="curve" smooth="yes"/>
      <point x="275" y="734"/>
      <point x="314" y="698"/>
      <point x="332" y="698" type="curve" smooth="yes"/>
      <point x="335" y="698"/>
      <point x="343" y="706"/>
      <point x="358" y="729" type="curve"/>
      <point x="393" y="711" type="line"/>
      <point x="389" y="694"/>
      <point x="348" y="648"/>
      <point x="341" y="644" type="curve"/>
    </contour>
  </outline>
</glyph>
<glyph name="Adieresis" format="1">
  <advance width="583"/>
  <unicode hex="00C4"/>
  <outline>
    <contour>
      <point x="421" y="-1" type="line"/>
      <point x="417" y="15"/>
      <point x="394" y="84"/>
      <point x="368" y="157" type="curve"/>
      <point x="174" y="157" type="line"/>
      <point x="173" y="155"/>
      <point x="173" y="156"/>
      <point x="118" y="-6" type="curve"/>
      <point x="12" y="1" type="line"/>
      <point x="56" y="109"/>
      <point x="163" y="413"/>
      <point x="214" y="558" type="curve"/>
      <point x="209" y="568"/>
      <point x="206" y="569"/>
      <point x="205" y="569" type="curve"/>
      <point x="241" y="650" type="line"/>
      <point x="241" y="650"/>
      <point x="255" y="655"/>
      <point x="258" y="656" type="curve"/>
      <point x="315" y="656"/>
      <point x="385" y="474"/>
      <point x="451" y="293" type="curve" smooth="yes"/>
      <point x="501" y="156" type="line" smooth="yes"/>
      <point x="521" y="100"/>
      <point x="540" y="46"/>
      <point x="557" y="4" type="curve"/>
    </contour>
    <contour>
      <point x="351" y="207" type="line"/>
      <point x="269" y="446" type="line"/>
      <point x="190" y="207" type="line"/>
    </contour>
    <contour>
      <point x="187" y="736" type="curve" smooth="yes"/>
      <point x="233" y="736"/>
      <point x="245" y="709"/>
      <point x="245" y="691" type="curve" smooth="yes"/>
      <point x="245" y="670"/>
      <point x="218" y="649"/>
      <point x="184" y="649" type="curve" smooth="yes"/>
      <point x="148" y="649"/>
      <point x="125" y="671"/>
      <point x="125" y="693" type="curve" smooth="yes"/>
      <point x="125" y="723"/>
      <point x="163" y="736"/>
    </contour>
    <contour>
      <point x="325" y="736" type="curve" smooth="yes"/>
      <point x="371" y="736"/>
      <point x="383" y="709"/>
      <point x="383" y="691" type="curve" smooth="yes"/>
      <point x="383" y="670"/>
      <point x="356" y="649"/>
      <point x="321" y="649" type="curve" smooth="yes"/>
      <point x="286" y="649"/>
      <point x="264" y="671"/>
      <point x="264" y="693" type="curve" smooth="yes"/>
      <point x="264" y="695"/>
      <point x="264" y="698"/>
      <point x="266" y="704" type="curve"/>
      <point x="269" y="723"/>
      <point x="298" y="736"/>
    </contour>
  </outline>
</glyph>
<glyph name="Aring" format="1">
  <advance width="583"/>
  <unicode hex="00C5"/>
  <outline>
    <contour>
      <point x="421" y="-1" type="line"/>
      <point x="417" y="15"/>
      <point x="394" y="84"/>
      <point x="368" y="157" type="curve"/>
      <point x="174" y="157" type="line"/>
      <point x="173" y="155"/>
      <point x="173" y="156"/>
      <point x="118" y="-6" type="curve"/>
      <point x="12" y="1" type="line"/>
      <point x="56" y="109"/>
      <point x="163" y="413"/>
      <point x="214" y="558" type="curve"/>
      <point x="209" y="568"/>
      <point x="206" y="569"/>
      <point x="205" y="569" type="curve"/>
      <point x="241" y="650" type="line"/>
      <point x="241" y="650"/>
      <point x="255" y="655"/>
      <point x="258" y="656" type="curve"/>
      <point x="315" y="656"/>
      <point x="385" y="474"/>
      <point x="451" y="293" type="curve" smooth="yes"/>
      <point x="501" y="156" type="line" smooth="yes"/>
      <point x="521" y="100"/>
      <point x="540" y="46"/>
      <point x="557" y="4" type="curve"/>
    </contour>
    <contour>
      <point x="351" y="207" type="line"/>
      <point x="269" y="446" type="line"/>
      <point x="190" y="207" type="line"/>
    </contour>
    <contour>
      <point x="262" y="650" type="line"/>
      <point x="263" y="655"/>
      <point x="265" y="660"/>
      <point x="265" y="673" type="curve" smooth="yes"/>
      <point x="265" y="700"/>
      <point x="255" y="734"/>
      <point x="239" y="734" type="curve" smooth="yes"/>
      <point x="238" y="734"/>
      <point x="233" y="732"/>
      <point x="233" y="729" type="curve"/>
      <point x="231" y="726"/>
      <point x="230" y="716"/>
      <point x="230" y="704" type="curve" smooth="yes"/>
      <point x="230" y="676"/>
      <point x="244" y="646"/>
      <point x="263" y="646" type="curve"/>
    </contour>
    <contour>
      <point x="242" y="626" type="curve" smooth="yes"/>
      <point x="162" y="626"/>
      <point x="159" y="663"/>
      <point x="159" y="695" type="curve" smooth="yes"/>
      <point x="159" y="713"/>
      <point x="226" y="759"/>
      <point x="256" y="759" type="curve" smooth="yes"/>
      <point x="326" y="759"/>
      <point x="340" y="730"/>
      <point x="340" y="700" type="curve" smooth="yes"/>
      <point x="340" y="698"/>
      <point x="340" y="695"/>
      <point x="338" y="687" type="curve"/>
      <point x="339" y="671"/>
      <point x="268" y="626"/>
    </contour>
  </outline>
</glyph>
<glyph name="AE" format="1">
  <advance width="829"/>
  <unicode hex="00C6"/>
  <outline>
    <contour>
      <point x="324" y="650" type="line"/>
      <point x="341" y="649"/>
      <point x="384" y="648"/>
      <point x="411" y="648" type="curve" smooth="yes"/>
      <point x="627" y="648" type="line" smooth="yes"/>
      <point x="723" y="648"/>
      <point x="770" y="646"/>
      <point x="770" y="626" type="curve"/>
      <point x="697" y="573" type="line"/>
      <point x="660" y="593"/>
      <point x="625" y="593"/>
      <point x="598" y="593" type="curve" smooth="yes"/>
      <point x="580" y="593" type="line"/>
      <point x="559" y="593"/>
      <point x="527" y="590"/>
      <point x="513" y="590" type="curve"/>
      <point x="520" y="540"/>
      <point x="522" y="462"/>
      <point x="522" y="374" type="curve" smooth="yes"/>
      <point x="522" y="357" type="line"/>
      <point x="525" y="354"/>
      <point x="547" y="353"/>
      <point x="571" y="353" type="curve" smooth="yes"/>
      <point x="581" y="353" type="line" smooth="yes"/>
      <point x="608" y="353"/>
      <point x="643" y="353"/>
      <point x="677" y="372" type="curve"/>
      <point x="759" y="320" type="line"/>
      <point x="759" y="302"/>
      <point x="732" y="299"/>
      <point x="646" y="299" type="curve" smooth="yes"/>
      <point x="522" y="299" type="line"/>
      <point x="522" y="207" type="line" smooth="yes"/>
      <point x="522" y="195"/>
      <point x="521" y="184"/>
      <point x="521" y="173" type="curve" smooth="yes"/>
      <point x="521" y="61" type="line"/>
      <point x="546" y="58"/>
      <point x="604" y="56"/>
      <point x="640" y="56" type="curve" smooth="yes"/>
      <point x="650" y="56" type="line" smooth="yes"/>
      <point x="676" y="56"/>
      <point x="713" y="56"/>
      <point x="750" y="75" type="curve"/>
      <point x="821" y="22" type="line"/>
      <point x="821" y="3"/>
      <point x="775" y="1"/>
      <point x="681" y="1" type="curve" smooth="yes"/>
      <point x="593" y="1" type="line" smooth="yes"/>
      <point x="581" y="1"/>
      <point x="568" y="2"/>
      <point x="555" y="2" type="curve"/>
      <point x="539" y="2" type="line"/>
      <point x="506" y="2"/>
      <point x="465" y="0"/>
      <point x="428" y="0" type="curve" smooth="yes"/>
      <point x="383" y="0" type="line"/>
      <point x="385" y="12"/>
      <point x="390" y="97"/>
      <point x="390" y="157" type="curve"/>
      <point x="329" y="157"/>
      <point x="280" y="155"/>
      <point x="216" y="155" type="curve"/>
      <point x="131" y="-4" type="line"/>
      <point x="29" y="2" type="line"/>
      <point x="93" y="108"/>
      <point x="269" y="424"/>
      <point x="356" y="582" type="curve"/>
      <point x="351" y="582" type="line"/>
    </contour>
    <contour>
      <point x="391" y="207" type="line"/>
      <point x="395" y="341"/>
      <point x="396" y="472"/>
      <point x="397" y="472" type="curve" smooth="yes"/>
      <point x="397" y="475"/>
      <point x="397" y="482"/>
      <point x="396" y="486" type="curve"/>
      <point x="369" y="435"/>
      <point x="340" y="381"/>
      <point x="310" y="327" type="curve" smooth="yes"/>
      <point x="244" y="207" type="line"/>
    </contour>
  </outline>
</glyph>
<glyph name="Ccedilla" format="1">
  <advance width="562"/>
  <unicode hex="00C7"/>
  <outline>
    <contour>
      <point x="296" y="658" type="line"/>
      <point x="380" y="633"/>
      <point x="494" y="523"/>
      <point x="494" y="508" type="curve"/>
      <point x="489" y="499"/>
      <point x="469" y="464"/>
      <point x="410" y="421" type="curve"/>
      <point x="376" y="474"/>
      <point x="295" y="551"/>
      <point x="243" y="551" type="curve" smooth="yes"/>
      <point x="173" y="551"/>
      <point x="168" y="414"/>
      <point x="168" y="348" type="curve" smooth="yes"/>
      <point x="168" y="145"/>
      <point x="226" y="80"/>
      <point x="293" y="80" type="curve" smooth="yes"/>
      <point x="349" y="80"/>
      <point x="414" y="95"/>
      <point x="474" y="141" type="curve"/>
      <point x="505" y="86" type="line"/>
      <point x="443" y="37"/>
      <point x="270" y="-1"/>
      <point x="231" y="-3" type="curve"/>
      <point x="94" y="6"/>
      <point x="39" y="151"/>
      <point x="39" y="277" type="curve" smooth="yes"/>
      <point x="39" y="317"/>
      <point x="44" y="359"/>
      <point x="53" y="392" type="curve" smooth="yes"/>
      <point x="70" y="454"/>
      <point x="211" y="658"/>
      <point x="286" y="658" type="curve" smooth="yes"/>
    </contour>
    <contour>
      <point x="381" y="38" type="line"/>
      <point x="300" y="-46" type="line"/>
      <point x="317" y="-64"/>
      <point x="329" y="-103"/>
      <point x="330" y="-117" type="curve"/>
      <point x="324" y="-143"/>
      <point x="288" y="-181"/>
      <point x="245" y="-181" type="curve" smooth="yes"/>
      <point x="239" y="-181"/>
      <point x="191" y="-173"/>
      <point x="158" y="-140" type="curve"/>
      <point x="217" y="-94" type="line"/>
      <point x="224" y="-114"/>
      <point x="227" y="-130"/>
      <point x="227" y="-138" type="curve" smooth="yes"/>
      <point x="227" y="-141"/>
      <point x="227" y="-143"/>
      <point x="226" y="-144" type="curve" smooth="yes"/>
      <point x="243" y="-125"/>
      <point x="245" y="-69"/>
      <point x="247" y="-67" type="curve"/>
      <point x="239" y="-67"/>
      <point x="225" y="-68"/>
      <point x="224" y="-68" type="curve"/>
      <point x="218" y="-58"/>
      <point x="211" y="-44"/>
      <point x="211" y="-39" type="curve"/>
      <point x="215" y="-38"/>
      <point x="223" y="-38"/>
      <point x="225" y="-38" type="curve"/>
      <point x="244" y="-20"/>
      <point x="258" y="-3"/>
      <point x="275" y="15" type="curve" smooth="yes"/>
      <point x="276" y="16"/>
      <point x="276" y="17"/>
      <point x="276" y="18" type="curve" smooth="yes"/>
      <point x="276" y="20"/>
      <point x="276" y="26"/>
      <point x="277" y="26" type="curve" smooth="yes"/>
      <point x="281" y="27"/>
      <point x="349" y="49"/>
      <point x="366" y="53" type="curve"/>
    </contour>
  </outline>
</glyph>
<glyph name="Egrave" format="1">
  <advance width="511"/>
  <unicode hex="00C8"/>
  <outline>
    <contour>
      <point x="13" y="650" type="line"/>
      <point x="42" y="649"/>
      <point x="94" y="648"/>
      <point x="123" y="648" type="curve" smooth="yes"/>
      <point x="284" y="648" type="line" smooth="yes"/>
      <point x="380" y="648"/>
      <point x="427" y="646"/>
      <point x="427" y="626" type="curve"/>
      <point x="352" y="574" type="line"/>
      <point x="317" y="593"/>
      <point x="281" y="593"/>
      <point x="254" y="593" type="curve" smooth="yes"/>
      <point x="244" y="593" type="line" smooth="yes"/>
      <point x="226" y="593"/>
      <point x="193" y="590"/>
      <point x="170" y="590" type="curve"/>
      <point x="177" y="539"/>
      <point x="178" y="460"/>
      <point x="178" y="374" type="curve" smooth="yes"/>
      <point x="178" y="357" type="line"/>
      <point x="182" y="354"/>
      <point x="204" y="353"/>
      <point x="228" y="353" type="curve" smooth="yes"/>
      <point x="238" y="353" type="line" smooth="yes"/>
      <point x="264" y="353"/>
      <point x="300" y="353"/>
      <point x="334" y="372" type="curve"/>
      <point x="415" y="320" type="line"/>
      <point x="415" y="302"/>
      <point x="389" y="299"/>
      <point x="303" y="299" type="curve" smooth="yes"/>
      <point x="178" y="299" type="line"/>
      <point x="178" y="250" type="line" smooth="yes"/>
      <point x="178" y="232"/>
      <point x="177" y="214"/>
      <point x="177" y="196" type="curve" smooth="yes"/>
      <point x="177" y="61" type="line"/>
      <point x="203" y="58"/>
      <point x="261" y="56"/>
      <point x="297" y="56" type="curve" smooth="yes"/>
      <point x="307" y="56" type="line" smooth="yes"/>
      <point x="333" y="56"/>
      <point x="369" y="56"/>
      <point x="406" y="76" type="curve"/>
      <point x="478" y="22" type="line"/>
      <point x="478" y="3"/>
      <point x="432" y="1"/>
      <point x="338" y="1" type="curve"/>
      <point x="248" y="1" type="line"/>
      <point x="146" y="1"/>
      <point x="114" y="0"/>
      <point x="84" y="0" type="curve" smooth="yes"/>
      <point x="40" y="0" type="line"/>
      <point x="45" y="35"/>
      <point x="52" y="412"/>
      <point x="52" y="462" type="curve" smooth="yes"/>
      <point x="52" y="506"/>
      <point x="51" y="549"/>
      <point x="44" y="562" type="curve"/>
      <point x="59" y="583" type="line"/>
      <point x="52" y="583"/>
      <point x="44" y="582"/>
      <point x="42" y="582" type="curve"/>
    </contour>
    <contour>
      <point x="181" y="825" type="line"/>
      <point x="240" y="762"/>
      <point x="266" y="739"/>
      <point x="299" y="733" type="curve"/>
      <point x="302" y="676" type="line"/>
      <point x="298" y="670"/>
      <point x="287" y="667"/>
      <point x="274" y="667" type="curve" smooth="yes"/>
      <point x="240" y="667"/>
      <point x="223" y="696"/>
      <point x="136" y="763" type="curve"/>
    </contour>
  </outline>
</glyph>
<glyph name="Igrave" format="1">
  <advance width="292"/>
  <unicode hex="00CC"/>
  <outline>
    <contour>
      <point x="41" y="0" type="line"/>
      <point x="46" y="35"/>
      <point x="51" y="412"/>
      <point x="51" y="462" type="curve" smooth="yes"/>
      <point x="51" y="505"/>
      <point x="51" y="553"/>
      <point x="44" y="566" type="curve"/>
      <point x="107" y="649" type="line"/>
      <point x="169" y="649"/>
      <point x="177" y="526"/>
      <point x="177" y="374" type="curve" smooth="yes"/>
      <point x="177" y="143" type="line" smooth="yes"/>
      <point x="177" y="94"/>
      <point x="177" y="43"/>
      <point x="178" y="2" type="curve"/>
    </contour>
    <contour>
      <point x="81" y="813" type="line"/>
      <point x="140" y="750"/>
      <point x="166" y="727"/>
      <point x="199" y="721" type="curve"/>
      <point x="202" y="664" type="line"/>
      <point x="198" y="658"/>
      <point x="187" y="655"/>
      <point x="174" y="655" type="curve" smooth="yes"/>
      <point x="140" y="655"/>
      <point x="123" y="684"/>
      <point x="36" y="751" type="curve"/>
    </contour>
  </outline>
</glyph>
<glyph name="Iacute" format="1">
  <advance width="292"/>
  <unicode hex="00CD"/>
  <outline>
    <contour>
      <point x="41" y="0" type="line"/>
      <point x="46" y="35"/>
      <point x="51" y="412"/>
      <point x="51" y="462" type="curve" smooth="yes"/>
      <point x="51" y="505"/>
      <point x="51" y="553"/>
      <point x="44" y="566" type="curve"/>
      <point x="107" y="649" type="line"/>
      <point x="169" y="649"/>
      <point x="177" y="526"/>
      <point x="177" y="374" type="curve" smooth="yes"/>
      <point x="177" y="143" type="line" smooth="yes"/>
      <point x="177" y="94"/>
      <point x="177" y="43"/>
      <point x="178" y="2" type="curve"/>
    </contour>
    <contour>
      <point x="194" y="762" type="line"/>
      <point x="109" y="693" type="line"/>
      <point x="86" y="674"/>
      <point x="76" y="666"/>
      <point x="56" y="666" type="curve" smooth="yes"/>
      <point x="43" y="666"/>
      <point x="32" y="669"/>
      <point x="28" y="675" type="curve"/>
      <point x="31" y="735" type="line"/>
      <point x="57" y="735"/>
      <point x="79" y="752"/>
      <point x="148" y="825" type="curve"/>
    </contour>
  </outline>
</glyph>
<glyph name="Icircumflex" format="1">
  <advance width="292"/>
  <unicode hex="00CE"/>
  <outline>
    <contour>
      <point x="41" y="0" type="line"/>
      <point x="46" y="35"/>
      <point x="51" y="412"/>
      <point x="51" y="462" type="curve" smooth="yes"/>
      <point x="51" y="505"/>
      <point x="51" y="553"/>
      <point x="44" y="566" type="curve"/>
      <point x="107" y="649" type="line"/>
      <point x="169" y="649"/>
      <point x="177" y="526"/>
      <point x="177" y="374" type="curve" smooth="yes"/>
      <point x="177" y="143" type="line" smooth="yes"/>
      <point x="177" y="94"/>
      <point x="177" y="43"/>
      <point x="178" y="2" type="curve"/>
    </contour>
    <contour>
      <point x="125" y="789" type="line"/>
      <point x="134" y="785" type="line"/>
      <point x="164" y="755"/>
      <point x="204" y="720"/>
      <point x="233" y="715" type="curve"/>
      <point x="236" y="658" type="line"/>
      <point x="232" y="652"/>
      <point x="221" y="649"/>
      <point x="208" y="649" type="curve" smooth="yes"/>
      <point x="188" y="649"/>
      <point x="174" y="659"/>
      <point x="142" y="685" type="curve"/>
      <point x="116" y="707" type="line"/>
      <point x="108" y="700"/>
      <point x="100" y="693"/>
      <point x="92" y="687" type="curve"/>
      <point x="60" y="660"/>
      <point x="45" y="649"/>
      <point x="25" y="649" type="curve" smooth="yes"/>
      <point x="9" y="649"/>
      <point x="2" y="652"/>
      <point x="-2" y="658" type="curve"/>
      <point x="1" y="718" type="line"/>
      <point x="23" y="718"/>
      <point x="63" y="749"/>
      <point x="101" y="789" type="curve"/>
    </contour>
  </outline>
</glyph>
<glyph name="Idieresis" format="1">
  <advance width="292"/>
  <unicode hex="00CF"/>
  <outline>
    <contour>
      <point x="41" y="0" type="line"/>
      <point x="46" y="35"/>
      <point x="51" y="412"/>
      <point x="51" y="462" type="curve" smooth="yes"/>
      <point x="51" y="505"/>
      <point x="51" y="553"/>
      <point x="44" y="566" type="curve"/>
      <point x="107" y="649" type="line"/>
      <point x="169" y="649"/>
      <point x="177" y="526"/>
      <point x="177" y="374" type="curve" smooth="yes"/>
      <point x="177" y="143" type="line" smooth="yes"/>
      <point x="177" y="94"/>
      <point x="177" y="43"/>
      <point x="178" y="2" type="curve"/>
    </contour>
    <contour>
      <point x="56" y="753" type="curve" smooth="yes"/>
      <point x="102" y="753"/>
      <point x="114" y="726"/>
      <point x="114" y="708" type="curve" smooth="yes"/>
      <point x="114" y="687"/>
      <point x="87" y="666"/>
      <point x="53" y="666" type="curve" smooth="yes"/>
      <point x="17" y="666"/>
      <point x="-6" y="688"/>
      <point x="-6" y="710" type="curve" smooth="yes"/>
      <point x="-6" y="740"/>
      <point x="32" y="753"/>
    </contour>
    <contour>
      <point x="194" y="753" type="curve" smooth="yes"/>
      <point x="240" y="753"/>
      <point x="252" y="726"/>
      <point x="252" y="708" type="curve" smooth="yes"/>
      <point x="252" y="687"/>
      <point x="225" y="666"/>
      <point x="190" y="666" type="curve" smooth="yes"/>
      <point x="155" y="666"/>
      <point x="133" y="688"/>
      <point x="133" y="710" type="curve" smooth="yes"/>
      <point x="133" y="712"/>
      <point x="133" y="715"/>
      <point x="135" y="721" type="curve"/>
      <point x="138" y="740"/>
      <point x="167" y="753"/>
    </contour>
  </outline>
</glyph>
<glyph name="Ntilde" format="1">
  <advance width="625"/>
  <unicode hex="00D1"/>
  <outline>
    <contour>
      <point x="433" y="0" type="line"/>
      <point x="411" y="1" type="line"/>
      <point x="392" y="47"/>
      <point x="242" y="274"/>
      <point x="163" y="399" type="curve"/>
      <point x="163" y="121" type="line" smooth="yes"/>
      <point x="163" y="80"/>
      <point x="163" y="37"/>
      <point x="164" y="2" type="curve"/>
      <point x="59" y="2" type="line"/>
      <point x="64" y="35"/>
      <point x="69" y="412"/>
      <point x="69" y="462" type="curve" smooth="yes"/>
      <point x="69" y="505"/>
      <point x="69" y="554"/>
      <point x="60" y="569" type="curve"/>
      <point x="115" y="655" type="line"/>
      <point x="205" y="545"/>
      <point x="337" y="360"/>
      <point x="421" y="221" type="curve"/>
      <point x="423" y="328"/>
      <point x="424" y="436"/>
      <point x="424" y="462" type="curve" smooth="yes"/>
      <point x="424" y="505"/>
      <point x="424" y="554"/>
      <point x="416" y="568" type="curve"/>
      <point x="452" y="648" type="line"/>
      <point x="509" y="648"/>
      <point x="522" y="578"/>
      <point x="522" y="480" type="curve" smooth="yes"/>
      <point x="522" y="212"/>
      <point x="519" y="132"/>
      <point x="519" y="0" type="curve"/>
    </contour>
    <contour>
      <point x="375" y="706" type="line"/>
      <point x="369" y="704"/>
      <point x="362" y="703"/>
      <point x="352" y="703" type="curve" smooth="yes"/>
      <point x="301" y="703"/>
      <point x="266" y="740"/>
      <point x="249" y="740" type="curve" smooth="yes"/>
      <point x="245" y="740"/>
      <point x="236" y="729"/>
      <point x="216" y="698" type="curve"/>
      <point x="186" y="727" type="line"/>
      <point x="190" y="743"/>
      <point x="229" y="786"/>
      <point x="237" y="791" type="curve" smooth="yes"/>
      <point x="243" y="795"/>
      <point x="252" y="796"/>
      <point x="266" y="796" type="curve" smooth="yes"/>
      <point x="313" y="796"/>
      <point x="352" y="760"/>
      <point x="370" y="760" type="curve" smooth="yes"/>
      <point x="373" y="760"/>
      <point x="381" y="768"/>
      <point x="396" y="791" type="curve"/>
      <point x="431" y="773" type="line"/>
      <point x="427" y="756"/>
      <point x="386" y="710"/>
      <point x="379" y="706" type="curve"/>
    </contour>
  </outline>
</glyph>
